<?xml version="1.0" encoding="UTF-8"?>
<svg version="1.1" xmlns="http://www.w3.org/2000/svg" width="1240" height="1545">
<path d="M0 0 C1.26328125 0.02707031 2.5265625 0.05414063 3.828125 0.08203125 C4.79234375 0.11683594 5.7565625 0.15164063 6.75 0.1875 C7.08 1.1775 7.41 2.1675 7.75 3.1875 C8.74 3.5175 9.73 3.8475 10.75 4.1875 C10.75 5.5075 10.75 6.8275 10.75 8.1875 C11.41 8.1875 12.07 8.1875 12.75 8.1875 C12.75 11.4875 12.75 14.7875 12.75 18.1875 C13.74 18.5175 14.73 18.8475 15.75 19.1875 C15.894375 20.280625 16.03875 21.37375 16.1875 22.5 C16.63288104 26.11872987 16.63288104 26.11872987 17.75 29.1875 C20.04671092 30.17843017 20.04671092 30.17843017 22.75 30.8125 C27.67664093 32.11414093 27.67664093 32.11414093 28.75 33.1875 C30.09267413 33.27381874 31.43974322 33.29456473 32.78515625 33.28515625 C33.59404297 33.28193359 34.40292969 33.27871094 35.23632812 33.27539062 C36.08646484 33.26701172 36.93660156 33.25863281 37.8125 33.25 C38.66650391 33.24548828 39.52050781 33.24097656 40.40039062 33.23632812 C42.51695663 33.22450373 44.63348685 33.20656769 46.75 33.1875 C47.08 32.5275 47.41 31.8675 47.75 31.1875 C50.19156757 30.92547811 52.55141997 30.76589145 55 30.6875 C59.56485941 30.53797667 63.6268556 30.357576 67.75 28.1875 C68.08 27.5275 68.41 26.8675 68.75 26.1875 C70.4 26.1875 72.05 26.1875 73.75 26.1875 C73.75 25.5275 73.75 24.8675 73.75 24.1875 C75.4 23.8575 77.05 23.5275 78.75 23.1875 C78.75 22.5275 78.75 21.8675 78.75 21.1875 C83.7 21.1875 88.65 21.1875 93.75 21.1875 C94.08 20.1975 94.41 19.2075 94.75 18.1875 C106.3 18.1875 117.85 18.1875 129.75 18.1875 C130.08 19.1775 130.41 20.1675 130.75 21.1875 C131.74 21.1875 132.73 21.1875 133.75 21.1875 C133.75 21.8475 133.75 22.5075 133.75 23.1875 C136.06 23.5175 138.37 23.8475 140.75 24.1875 C140.75 24.8475 140.75 25.5075 140.75 26.1875 C143.06 26.1875 145.37 26.1875 147.75 26.1875 C148.08 27.1775 148.41 28.1675 148.75 29.1875 C150.296875 29.06375 150.296875 29.06375 151.875 28.9375 C156.36260533 29.22702292 158.3247626 30.34705923 161.75 33.1875 C161.75 33.8475 161.75 34.5075 161.75 35.1875 C162.41 35.1875 163.07 35.1875 163.75 35.1875 C164.41 36.1775 165.07 37.1675 165.75 38.1875 C167.80925139 38.91132467 167.80925139 38.91132467 169.75 39.1875 C169.75 40.1775 169.75 41.1675 169.75 42.1875 C170.74 42.1875 171.73 42.1875 172.75 42.1875 C172.75 42.8475 172.75 43.5075 172.75 44.1875 C173.41 44.1875 174.07 44.1875 174.75 44.1875 C178.41641647 48.55899656 178.06749488 52.79008708 177.75 58.1875 C178.41 58.1875 179.07 58.1875 179.75 58.1875 C181.35725635 61.40201269 180.80748185 64.62362536 180.75 68.1875 C181.41 68.1875 182.07 68.1875 182.75 68.1875 C183.20117188 69.32574219 183.65234375 70.46398437 184.1171875 71.63671875 C185.52035725 74.09133861 186.17602971 75.01866245 188.92285156 75.82666016 C191.59240007 76.03077778 194.19834146 76.05868205 196.875 76 C198.6901154 75.99872713 200.50525585 76.0048722 202.3203125 76.01953125 C203.12227051 76.00639893 203.92422852 75.9932666 204.75048828 75.97973633 C206.75 76.1875 206.75 76.1875 208.75 78.1875 C208.75 79.1775 208.75 80.1675 208.75 81.1875 C209.74 81.1875 210.73 81.1875 211.75 81.1875 C211.75 82.1775 211.75 83.1675 211.75 84.1875 C215.05 84.1875 218.35 84.1875 221.75 84.1875 C221.75 84.8475 221.75 85.5075 221.75 86.1875 C224.225 86.6825 224.225 86.6825 226.75 87.1875 C226.75 87.8475 226.75 88.5075 226.75 89.1875 C235.99 89.1875 245.23 89.1875 254.75 89.1875 C255.08 90.1775 255.41 91.1675 255.75 92.1875 C256.74 92.1875 257.73 92.1875 258.75 92.1875 C258.75 92.8475 258.75 93.5075 258.75 94.1875 C259.41 94.1875 260.07 94.1875 260.75 94.1875 C262.07229189 96.83208379 261.84677194 98.86511301 261.8125 101.8125 C261.80347656 102.81539063 261.79445313 103.81828125 261.78515625 104.8515625 C261.76775391 106.00785156 261.76775391 106.00785156 261.75 107.1875 C262.41 107.1875 263.07 107.1875 263.75 107.1875 C263.79898438 108.11433594 263.84796875 109.04117188 263.8984375 109.99609375 C263.97320313 111.19363281 264.04796875 112.39117187 264.125 113.625 C264.19460938 114.81996094 264.26421875 116.01492187 264.3359375 117.24609375 C264.47257813 118.21675781 264.60921875 119.18742187 264.75 120.1875 C265.41 120.5175 266.07 120.8475 266.75 121.1875 C266.75 120.1975 266.75 119.2075 266.75 118.1875 C267.74 118.1875 268.73 118.1875 269.75 118.1875 C269.75 117.1975 269.75 116.2075 269.75 115.1875 C270.41 115.1875 271.07 115.1875 271.75 115.1875 C272.08 114.1975 272.41 113.2075 272.75 112.1875 C273.41 112.1875 274.07 112.1875 274.75 112.1875 C274.75 111.5275 274.75 110.8675 274.75 110.1875 C281.68 110.1875 288.61 110.1875 295.75 110.1875 C296.08 109.1975 296.41 108.2075 296.75 107.1875 C297.41 107.1875 298.07 107.1875 298.75 107.1875 C298.75 106.5275 298.75 105.8675 298.75 105.1875 C300.4 104.8575 302.05 104.5275 303.75 104.1875 C303.75 103.5275 303.75 102.8675 303.75 102.1875 C304.41 102.1875 305.07 102.1875 305.75 102.1875 C306.08 101.1975 306.41 100.2075 306.75 99.1875 C308.4 99.1875 310.05 99.1875 311.75 99.1875 C311.75 98.5275 311.75 97.8675 311.75 97.1875 C312.41 97.1875 313.07 97.1875 313.75 97.1875 C314.08 96.1975 314.41 95.2075 314.75 94.1875 C315.41 94.1875 316.07 94.1875 316.75 94.1875 C317.059375 93.548125 317.36875 92.90875 317.6875 92.25 C318.75 90.1875 318.75 90.1875 319.75 89.1875 C321.73757028 89.08766942 323.7286752 89.05669247 325.71875 89.0546875 C326.92917969 89.05339844 328.13960937 89.05210938 329.38671875 89.05078125 C330.66160156 89.05464844 331.93648437 89.05851562 333.25 89.0625 C335.16232422 89.05669922 335.16232422 89.05669922 337.11328125 89.05078125 C338.32371094 89.05207031 339.53414062 89.05335937 340.78125 89.0546875 C341.90080078 89.05581543 343.02035156 89.05694336 344.17382812 89.05810547 C346.75 89.1875 346.75 89.1875 347.75 90.1875 C349.59891946 90.42113881 351.45488031 90.60053635 353.3125 90.75 C354.32441406 90.83378906 355.33632813 90.91757813 356.37890625 91.00390625 C357.16136719 91.06449219 357.94382812 91.12507813 358.75 91.1875 C358.75 90.5275 358.75 89.8675 358.75 89.1875 C361.65548882 87.14580515 363.15142046 86.1875 366.75 86.1875 C366.75 85.5275 366.75 84.8675 366.75 84.1875 C373.02 84.1875 379.29 84.1875 385.75 84.1875 C385.75 84.8475 385.75 85.5075 385.75 86.1875 C386.69875 86.166875 387.6475 86.14625 388.625 86.125 C393.77227972 86.82595069 396.85996055 90.44717992 400.44140625 93.94140625 C402.76274572 96.3128838 402.76274572 96.3128838 405.8125 98.375 C408.76786326 102.66504344 408.46088895 107.09096259 408.609375 112.203125 C408.40899187 115.07083882 408.40899187 115.07083882 409.75 116.1875 C410.224375 115.383125 410.69875 114.57875 411.1875 113.75 C412.75 111.1875 412.75 111.1875 413.75 110.1875 C415.66458282 110.08778214 417.58282317 110.05669411 419.5 110.0546875 C420.6653125 110.05339844 421.830625 110.05210938 423.03125 110.05078125 C424.87203125 110.05658203 424.87203125 110.05658203 426.75 110.0625 C427.9771875 110.05863281 429.204375 110.05476563 430.46875 110.05078125 C431.6340625 110.05207031 432.799375 110.05335937 434 110.0546875 C435.07765625 110.05581543 436.1553125 110.05694336 437.265625 110.05810547 C439.75 110.1875 439.75 110.1875 440.75 111.1875 C440.81058594 110.48882812 440.87117187 109.79015625 440.93359375 109.0703125 C441.01738281 108.16023438 441.10117187 107.25015625 441.1875 106.3125 C441.26871094 105.40757813 441.34992187 104.50265625 441.43359375 103.5703125 C441.75 101.1875 441.75 101.1875 442.75 99.1875 C443.41 99.1875 444.07 99.1875 444.75 99.1875 C444.75 98.5275 444.75 97.8675 444.75 97.1875 C445.74 97.1875 446.73 97.1875 447.75 97.1875 C447.75 96.1975 447.75 95.2075 447.75 94.1875 C450.37527189 94.13367894 452.99944713 94.09391687 455.625 94.0625 C456.37136719 94.04574219 457.11773438 94.02898437 457.88671875 94.01171875 C459.84194461 93.9941041 461.79742021 94.08429811 463.75 94.1875 C464.41 94.8475 465.07 95.5075 465.75 96.1875 C467.81874034 96.8300235 467.81874034 96.8300235 469.75 97.1875 C469.75 97.8475 469.75 98.5075 469.75 99.1875 C472.225 99.6825 472.225 99.6825 474.75 100.1875 C474.75 100.8475 474.75 101.5075 474.75 102.1875 C475.36875 102.27 475.9875 102.3525 476.625 102.4375 C478.75 103.1875 478.75 103.1875 480.75 107.1875 C484.38 107.1875 488.01 107.1875 491.75 107.1875 C492.41 105.8675 493.07 104.5475 493.75 103.1875 C495.75 99.9375 495.75 99.9375 497.75 97.1875 C498.41 97.1875 499.07 97.1875 499.75 97.1875 C499.75 88.9375 499.75 80.6875 499.75 72.1875 C501.235 71.6925 501.235 71.6925 502.75 71.1875 C502.75 68.5475 502.75 65.9075 502.75 63.1875 C503.41 63.1875 504.07 63.1875 504.75 63.1875 C504.688125 62.424375 504.62625 61.66125 504.5625 60.875 C504.75 58.1875 504.75 58.1875 505.84375 56.53125 C508.68216303 54.53040147 511.01572244 54.89836304 514.4375 55 C516.20673828 55.04060547 516.20673828 55.04060547 518.01171875 55.08203125 C518.91535156 55.11683594 519.81898438 55.15164062 520.75 55.1875 C520.75 54.5275 520.75 53.8675 520.75 53.1875 C523.45879335 51.83310332 525.75933268 52.12248549 528.75 52.1875 C528.75 51.5275 528.75 50.8675 528.75 50.1875 C530.125 48.5625 530.125 48.5625 531.75 47.1875 C532.41 47.1875 533.07 47.1875 533.75 47.1875 C533.75 46.1975 533.75 45.2075 533.75 44.1875 C535.75922959 41.44358242 537.3774735 39.51013756 540.78564453 38.70898438 C543.13808146 38.50677795 545.45151369 38.44131112 547.8125 38.4375 C549.4076209 38.40418824 551.00268178 38.36783391 552.59765625 38.328125 C553.29898682 38.32329102 554.00031738 38.31845703 554.72290039 38.31347656 C556.83756277 38.18205831 558.71468389 37.76192222 560.75 37.1875 C560.75 36.5275 560.75 35.8675 560.75 35.1875 C561.41 35.1875 562.07 35.1875 562.75 35.1875 C563.03875 34.56875 563.3275 33.95 563.625 33.3125 C564.75 31.1875 564.75 31.1875 566.75 29.1875 C567.884375 28.878125 569.01875 28.56875 570.1875 28.25 C573.60424974 27.23096938 574.53347875 26.73649944 576.75 24.1875 C582.04489243 22.42253586 587.66027326 22.29190283 592.8125 24.5 C594.75 26.1875 594.75 26.1875 595.75 29.1875 C598.06 29.1875 600.37 29.1875 602.75 29.1875 C603.08 30.1775 603.41 31.1675 603.75 32.1875 C604.41 32.1875 605.07 32.1875 605.75 32.1875 C605.75 32.8475 605.75 33.5075 605.75 34.1875 C607.07 34.5175 608.39 34.8475 609.75 35.1875 C609.75 35.8475 609.75 36.5075 609.75 37.1875 C612.06 37.1875 614.37 37.1875 616.75 37.1875 C616.75 37.8475 616.75 38.5075 616.75 39.1875 C617.52085937 39.17589844 618.29171875 39.16429687 619.0859375 39.15234375 C620.08882812 39.14332031 621.09171875 39.13429687 622.125 39.125 C623.62160156 39.10759766 623.62160156 39.10759766 625.1484375 39.08984375 C627.75 39.1875 627.75 39.1875 629.75 40.1875 C629.75 40.8475 629.75 41.5075 629.75 42.1875 C631.06355469 42.15269531 632.37710938 42.11789063 633.73046875 42.08203125 C635.46613301 42.05388534 637.20181115 42.02658604 638.9375 42 C639.80181641 41.97486328 640.66613281 41.94972656 641.55664062 41.92382812 C646.39944938 41.86816366 649.88509782 41.88272857 653.75 45.1875 C653.75 45.8475 653.75 46.5075 653.75 47.1875 C655.35875 47.0328125 655.35875 47.0328125 657 46.875 C660.75 47.1875 660.75 47.1875 663.0625 49.625 C663.8978125 50.8934375 663.8978125 50.8934375 664.75 52.1875 C665.41 52.5175 666.07 52.8475 666.75 53.1875 C666.75 53.8475 666.75 54.5075 666.75 55.1875 C667.43707031 55.15269531 668.12414063 55.11789063 668.83203125 55.08203125 C670.18361328 55.04142578 670.18361328 55.04142578 671.5625 55 C672.90248047 54.94779297 672.90248047 54.94779297 674.26953125 54.89453125 C676.75 55.1875 676.75 55.1875 678.57421875 56.57421875 C679.75 58.1875 679.75 58.1875 679.75 60.1875 C683.38 60.1875 687.01 60.1875 690.75 60.1875 C691.08 59.1975 691.41 58.2075 691.75 57.1875 C692.41 57.1875 693.07 57.1875 693.75 57.1875 C693.75 56.5275 693.75 55.8675 693.75 55.1875 C697.71 55.1875 701.67 55.1875 705.75 55.1875 C705.75 55.8475 705.75 56.5075 705.75 57.1875 C706.265625 56.89875 706.78125 56.61 707.3125 56.3125 C710.37606657 54.8985462 713.4983674 54.07430889 716.75 53.1875 C718.235 52.6925 718.235 52.6925 719.75 52.1875 C719.688125 51.1975 719.62625 50.2075 719.5625 49.1875 C719.53508355 44.71861789 721.0291773 41.27445392 722.75 37.1875 C723.41 37.1875 724.07 37.1875 724.75 37.1875 C725.08 36.1975 725.41 35.2075 725.75 34.1875 C726.41 34.1875 727.07 34.1875 727.75 34.1875 C728.08 33.1975 728.41 32.2075 728.75 31.1875 C735.68 31.1875 742.61 31.1875 749.75 31.1875 C750.08 32.1775 750.41 33.1675 750.75 34.1875 C765.27 34.1875 779.79 34.1875 794.75 34.1875 C794.75 35.1775 794.75 36.1675 794.75 37.1875 C795.45125 37.15269531 796.1525 37.11789063 796.875 37.08203125 C803.3054631 36.89855336 807.88601882 37.5321123 813.75 40.1875 C813.75 40.8475 813.75 41.5075 813.75 42.1875 C815.296875 42.0946875 815.296875 42.0946875 816.875 42 C820.98468973 42.19885595 823.23882496 43.13217803 826.75 45.1875 C826.75 45.8475 826.75 46.5075 826.75 47.1875 C828.4 47.5175 830.05 47.8475 831.75 48.1875 C831.75 48.8475 831.75 49.5075 831.75 50.1875 C832.41 50.1875 833.07 50.1875 833.75 50.1875 C833.75 50.8475 833.75 51.5075 833.75 52.1875 C834.74 52.5175 835.73 52.8475 836.75 53.1875 C837.1221042 54.51053717 837.45630173 55.84487935 837.75 57.1875 C838.41 57.5175 839.07 57.8475 839.75 58.1875 C839.75 58.8475 839.75 59.5075 839.75 60.1875 C840.41 60.1875 841.07 60.1875 841.75 60.1875 C841.75 61.1775 841.75 62.1675 841.75 63.1875 C842.74 63.1875 843.73 63.1875 844.75 63.1875 C844.75 63.8475 844.75 64.5075 844.75 65.1875 C845.74 65.5175 846.73 65.8475 847.75 66.1875 C847.75 66.8475 847.75 67.5075 847.75 68.1875 C850.72 68.1875 853.69 68.1875 856.75 68.1875 C857.08 69.1775 857.41 70.1675 857.75 71.1875 C858.41 71.5175 859.07 71.8475 859.75 72.1875 C860.41 72.5175 861.07 72.8475 861.75 73.1875 C862.08 74.1775 862.41 75.1675 862.75 76.1875 C863.74 76.5175 864.73 76.8475 865.75 77.1875 C865.75 83.4575 865.75 89.7275 865.75 96.1875 C864.76 96.1875 863.77 96.1875 862.75 96.1875 C862.75 97.1775 862.75 98.1675 862.75 99.1875 C862.09 99.1875 861.43 99.1875 860.75 99.1875 C860.42 100.1775 860.09 101.1675 859.75 102.1875 C859.09 102.1875 858.43 102.1875 857.75 102.1875 C857.75 102.8475 857.75 103.5075 857.75 104.1875 C856.76 104.1875 855.77 104.1875 854.75 104.1875 C854.75 105.1775 854.75 106.1675 854.75 107.1875 C854.09 107.1875 853.43 107.1875 852.75 107.1875 C852.42 108.1775 852.09 109.1675 851.75 110.1875 C851.09 110.1875 850.43 110.1875 849.75 110.1875 C849.75 110.8475 849.75 111.5075 849.75 112.1875 C849.09 112.1875 848.43 112.1875 847.75 112.1875 C847.42 113.1775 847.09 114.1675 846.75 115.1875 C846.09 115.1875 845.43 115.1875 844.75 115.1875 C844.42 116.8375 844.09 118.4875 843.75 120.1875 C843.09 120.1875 842.43 120.1875 841.75 120.1875 C841.75 135.6975 841.75 151.2075 841.75 167.1875 C841.09 167.1875 840.43 167.1875 839.75 167.1875 C839.75 170.8175 839.75 174.4475 839.75 178.1875 C838.1 178.8475 836.45 179.5075 834.75 180.1875 C834.42 181.1775 834.09 182.1675 833.75 183.1875 C833.09 183.1875 832.43 183.1875 831.75 183.1875 C831.78480469 184.06792969 831.81960938 184.94835937 831.85546875 185.85546875 C831.89607422 187.59763672 831.89607422 187.59763672 831.9375 189.375 C831.97230469 190.52355469 832.00710938 191.67210937 832.04296875 192.85546875 C831.72436317 196.47907624 830.96947332 198.33389144 828.75 201.1875 C828.09 201.1875 827.43 201.1875 826.75 201.1875 C826.42 202.1775 826.09 203.1675 825.75 204.1875 C825.09 204.1875 824.43 204.1875 823.75 204.1875 C823.75 204.8475 823.75 205.5075 823.75 206.1875 C822.76 206.1875 821.77 206.1875 820.75 206.1875 C820.75 207.1775 820.75 208.1675 820.75 209.1875 C820.09 209.1875 819.43 209.1875 818.75 209.1875 C818.77320313 209.95835937 818.79640625 210.72921875 818.8203125 211.5234375 C818.84738281 213.02777344 818.84738281 213.02777344 818.875 214.5625 C818.89820313 215.56023437 818.92140625 216.55796875 818.9453125 217.5859375 C818.75 220.1875 818.75 220.1875 816.75 222.1875 C816.4436141 224.92184962 816.2386664 227.57029821 816.125 230.3125 C816.08632812 231.06660156 816.04765625 231.82070312 816.0078125 232.59765625 C815.91348969 234.46053184 815.83065338 236.32398255 815.75 238.1875 C816.74 238.1875 817.73 238.1875 818.75 238.1875 C820.04925791 242.51835971 821.093621 246.70224352 821.75 251.1875 C823.07 251.5175 824.39 251.8475 825.75 252.1875 C825.75 252.8475 825.75 253.5075 825.75 254.1875 C826.74 254.5175 827.73 254.8475 828.75 255.1875 C829.08 256.8375 829.41 258.4875 829.75 260.1875 C832.06 260.8475 834.37 261.5075 836.75 262.1875 C836.75 262.8475 836.75 263.5075 836.75 264.1875 C837.8946875 264.0946875 837.8946875 264.0946875 839.0625 264 C841.75 264.1875 841.75 264.1875 843.5625 265.5 C844.75 267.1875 844.75 267.1875 844.75 270.1875 C845.41 270.1875 846.07 270.1875 846.75 270.1875 C847.183125 271.156875 847.61625 272.12625 848.0625 273.125 C849.4514861 276.46481765 849.4514861 276.46481765 852.75 277.1875 C852.75 278.1775 852.75 279.1675 852.75 280.1875 C853.74 280.5175 854.73 280.8475 855.75 281.1875 C855.77892385 285.31248538 855.79677267 289.43744485 855.8125 293.5625 C855.82087891 294.738125 855.82925781 295.91375 855.83789062 297.125 C855.84272461 298.80722656 855.84272461 298.80722656 855.84765625 300.5234375 C855.85289307 301.56032715 855.85812988 302.5972168 855.86352539 303.66552734 C855.75 306.1875 855.75 306.1875 854.75 308.1875 C854.09 308.1875 853.43 308.1875 852.75 308.1875 C852.42 309.1775 852.09 310.1675 851.75 311.1875 C851.09 311.1875 850.43 311.1875 849.75 311.1875 C849.62625 311.909375 849.5025 312.63125 849.375 313.375 C848.7595069 316.14471894 847.86555626 318.5845354 846.75 321.1875 C846.09 321.1875 845.43 321.1875 844.75 321.1875 C844.42 322.1775 844.09 323.1675 843.75 324.1875 C843.09 324.1875 842.43 324.1875 841.75 324.1875 C841.75 325.8375 841.75 327.4875 841.75 329.1875 C840.945625 329.435 840.14125 329.6825 839.3125 329.9375 C836.59688769 330.89864717 836.59688769 330.89864717 836 333.1875 C835.9175 333.8475 835.835 334.5075 835.75 335.1875 C835.42 335.8475 835.09 336.5075 834.75 337.1875 C833.76 337.1875 832.77 337.1875 831.75 337.1875 C831.42 338.1775 831.09 339.1675 830.75 340.1875 C827.54619983 342.32336678 826.73060033 342.41882175 823.0625 342.3125 C822.25425781 342.29445313 821.44601562 342.27640625 820.61328125 342.2578125 C819.99839844 342.23460937 819.38351562 342.21140625 818.75 342.1875 C818.42 343.1775 818.09 344.1675 817.75 345.1875 C817.09 345.1875 816.43 345.1875 815.75 345.1875 C815.75 345.8475 815.75 346.5075 815.75 347.1875 C808.82 347.1875 801.89 347.1875 794.75 347.1875 C794.75 348.8375 794.75 350.4875 794.75 352.1875 C794.09 352.1875 793.43 352.1875 792.75 352.1875 C792.84384645 356.65359932 792.95000815 361.11918832 793.06738281 365.5847168 C793.10556704 367.10253978 793.14043808 368.62045001 793.171875 370.13842773 C793.21775628 372.32567431 793.27571029 374.51232582 793.3359375 376.69921875 C793.3673584 378.01365967 793.3987793 379.32810059 793.43115234 380.68237305 C793.73083769 383.97684661 794.22010333 386.27213272 795.75 389.1875 C796.41 389.5175 797.07 389.8475 797.75 390.1875 C797.75 391.8375 797.75 393.4875 797.75 395.1875 C798.41 395.1875 799.07 395.1875 799.75 395.1875 C800.08 396.8375 800.41 398.4875 800.75 400.1875 C801.41 400.1875 802.07 400.1875 802.75 400.1875 C809.73330717 410.08051849 808.95564848 422.5797856 808.75 434.1875 C809.41 434.1875 810.07 434.1875 810.75 434.1875 C810.75 440.1275 810.75 446.0675 810.75 452.1875 C810.09 452.1875 809.43 452.1875 808.75 452.1875 C808.72873047 453.92386719 808.72873047 453.92386719 808.70703125 455.6953125 C808.66010743 457.23441372 808.61186018 458.77347499 808.5625 460.3125 C808.55669922 461.07304687 808.55089844 461.83359375 808.54492188 462.6171875 C808.3194341 468.42976115 806.98769494 471.16201133 802.75 475.1875 C802.09 475.1875 801.43 475.1875 800.75 475.1875 C800.42 477.8275 800.09 480.4675 799.75 483.1875 C799.09 483.1875 798.43 483.1875 797.75 483.1875 C797.811875 483.950625 797.87375 484.71375 797.9375 485.5 C797.75 488.1875 797.75 488.1875 796.5625 490 C794.19017475 491.55428206 792.52958655 491.41287188 789.75 491.1875 C789.75 492.1775 789.75 493.1675 789.75 494.1875 C789.09 494.1875 788.43 494.1875 787.75 494.1875 C787.75 494.8475 787.75 495.5075 787.75 496.1875 C787.09 496.1875 786.43 496.1875 785.75 496.1875 C785.42 497.1775 785.09 498.1675 784.75 499.1875 C781.75 500.3125 781.75 500.3125 778.75 501.1875 C778.42 501.5175 778.09 501.8475 777.75 502.1875 C776.23071962 502.25929964 774.70832518 502.27142007 773.1875 502.25 C772.36121094 502.24097656 771.53492188 502.23195313 770.68359375 502.22265625 C770.04550781 502.21105469 769.40742187 502.19945312 768.75 502.1875 C768.75 502.8475 768.75 503.5075 768.75 504.1875 C767.76 504.1875 766.77 504.1875 765.75 504.1875 C765.75 505.1775 765.75 506.1675 765.75 507.1875 C764.1 507.1875 762.45 507.1875 760.75 507.1875 C760.79640625 508.34507812 760.8428125 509.50265625 760.890625 510.6953125 C760.92816248 512.23434906 760.96456051 513.7734137 761 515.3125 C761.03351563 516.07304688 761.06703125 516.83359375 761.1015625 517.6171875 C761.19507279 523.04078427 760.1665546 525.7873918 756.75 530.1875 C755.50675853 533.4124208 755.50675853 533.4124208 754.75 536.1875 C754.09 536.1875 753.43 536.1875 752.75 536.1875 C752.75 536.8475 752.75 537.5075 752.75 538.1875 C752.09 538.1875 751.43 538.1875 750.75 538.1875 C750.42 539.1775 750.09 540.1675 749.75 541.1875 C749.09 541.1875 748.43 541.1875 747.75 541.1875 C747.75 544.4875 747.75 547.7875 747.75 551.1875 C747.09 551.1875 746.43 551.1875 745.75 551.1875 C746.41 552.1775 747.07 553.1675 747.75 554.1875 C747.97705078 556.18041992 747.97705078 556.18041992 747.9453125 558.41796875 C747.93886719 559.22041016 747.93242188 560.02285156 747.92578125 560.84960938 C747.90902344 561.68298828 747.89226562 562.51636719 747.875 563.375 C747.86597656 564.21998047 747.85695313 565.06496094 747.84765625 565.93554688 C747.82410703 568.01965243 747.78823647 570.10361217 747.75 572.1875 C747.09 572.1875 746.43 572.1875 745.75 572.1875 C745.62625 573.3321875 745.62625 573.3321875 745.5 574.5 C744.75 577.1875 744.75 577.1875 743.15625 578.84375 C739.83665565 580.69754944 737.27368846 580.47982468 733.5 580.375 C732.23671875 580.34792969 730.9734375 580.32085938 729.671875 580.29296875 C728.22554687 580.24076172 728.22554687 580.24076172 726.75 580.1875 C726.75 582.1675 726.75 584.1475 726.75 586.1875 C727.74 586.1875 728.73 586.1875 729.75 586.1875 C729.75 591.4675 729.75 596.7475 729.75 602.1875 C730.41 602.1875 731.07 602.1875 731.75 602.1875 C731.87117188 603.00734375 731.99234375 603.8271875 732.1171875 604.671875 C732.28476563 605.74953125 732.45234375 606.8271875 732.625 607.9375 C732.78742188 609.00484375 732.94984375 610.0721875 733.1171875 611.171875 C733.68797604 613.89192903 734.27781076 615.84931708 735.75 618.1875 C737.7835948 619.45554566 737.7835948 619.45554566 739.75 620.1875 C739.75 620.8475 739.75 621.5075 739.75 622.1875 C740.74 622.5175 741.73 622.8475 742.75 623.1875 C742.75 624.8375 742.75 626.4875 742.75 628.1875 C743.41 628.1875 744.07 628.1875 744.75 628.1875 C744.75 628.8475 744.75 629.5075 744.75 630.1875 C745.74 630.1875 746.73 630.1875 747.75 630.1875 C747.75 631.1775 747.75 632.1675 747.75 633.1875 C748.74 633.1875 749.73 633.1875 750.75 633.1875 C750.75 646.0575 750.75 658.9275 750.75 672.1875 C751.41 672.1875 752.07 672.1875 752.75 672.1875 C754.375 673.5625 754.375 673.5625 755.75 675.1875 C755.75 675.8475 755.75 676.5075 755.75 677.1875 C756.41 677.1875 757.07 677.1875 757.75 677.1875 C759.375 678.5 759.375 678.5 760.75 680.1875 C760.75 681.1775 760.75 682.1675 760.75 683.1875 C761.41 683.1875 762.07 683.1875 762.75 683.1875 C763.91983345 685.5271669 763.9161241 687.02141527 763.9375 689.625 C763.95167969 690.40746094 763.96585938 691.18992187 763.98046875 691.99609375 C763.75 694.1875 763.75 694.1875 761.75 697.1875 C761.6675 697.97125 761.585 698.755 761.5 699.5625 C760.40699269 703.38802559 757.80388467 704.7568571 754.75 707.1875 C753.37745412 709.33730497 753.37745412 709.33730497 752.75 711.1875 C752.09 711.1875 751.43 711.1875 750.75 711.1875 C750.75 711.8475 750.75 712.5075 750.75 713.1875 C749.1 713.1875 747.45 713.1875 745.75 713.1875 C745.42 714.1775 745.09 715.1675 744.75 716.1875 C742.11 716.5175 739.47 716.8475 736.75 717.1875 C737.08 717.8475 737.41 718.5075 737.75 719.1875 C737.84772811 721.41496339 737.88077394 723.6453947 737.8828125 725.875 C737.88376923 726.53330811 737.88472595 727.19161621 737.88571167 727.86987305 C737.88639225 729.26188248 737.88454646 730.6538951 737.88037109 732.04589844 C737.87502104 734.17910883 737.88032012 736.31210867 737.88671875 738.4453125 C737.88605795 739.79687547 737.88477674 741.1484383 737.8828125 742.5 C737.88112061 744.35044922 737.88112061 744.35044922 737.87939453 746.23828125 C737.75 749.1875 737.75 749.1875 736.75 751.1875 C737.60271484 751.13529297 737.60271484 751.13529297 738.47265625 751.08203125 C744.08720226 750.88519408 747.74655005 751.63254683 752.75 754.1875 C752.75 754.8475 752.75 755.5075 752.75 756.1875 C753.74 756.5175 754.73 756.8475 755.75 757.1875 C755.83126109 759.91727064 755.89061663 762.6446017 755.9375 765.375 C755.97520508 766.52838867 755.97520508 766.52838867 756.01367188 767.70507812 C756.07335032 772.34010383 755.83905704 775.45520105 752.75 779.1875 C752.09 779.1875 751.43 779.1875 750.75 779.1875 C750.75 779.8475 750.75 780.5075 750.75 781.1875 C749.76 781.1875 748.77 781.1875 747.75 781.1875 C747.75 782.1775 747.75 783.1675 747.75 784.1875 C747.09 784.55875 746.43 784.93 745.75 785.3125 C743.32827586 787.58286638 743.37828938 788.33388391 743.25 791.5625 C743.40520389 794.85389283 743.74906911 796.18587956 745.4375 799.125 C747.81470692 801.24521158 749.72042428 802.26179631 752.75 803.1875 C752.75 803.8475 752.75 804.5075 752.75 805.1875 C754.173125 805.1565625 754.173125 805.1565625 755.625 805.125 C758.75 805.1875 758.75 805.1875 760.75 806.1875 C760.75 806.8475 760.75 807.5075 760.75 808.1875 C761.39026123 808.17178955 762.03052246 808.1560791 762.69018555 808.13989258 C765.60586631 808.07732885 768.52140555 808.03844192 771.4375 808 C772.44490234 807.97486328 773.45230469 807.94972656 774.49023438 807.92382812 C784.01797883 807.82949402 784.01797883 807.82949402 787.75 811.1875 C787.75 811.8475 787.75 812.5075 787.75 813.1875 C789.4 813.5175 791.05 813.8475 792.75 814.1875 C792.75 814.8475 792.75 815.5075 792.75 816.1875 C793.41 816.1875 794.07 816.1875 794.75 816.1875 C794.75 816.8475 794.75 817.5075 794.75 818.1875 C795.74 818.5175 796.73 818.8475 797.75 819.1875 C797.75 824.1375 797.75 829.0875 797.75 834.1875 C798.41 834.1875 799.07 834.1875 799.75 834.1875 C801.375 835.5625 801.375 835.5625 802.75 837.1875 C802.75 837.8475 802.75 838.5075 802.75 839.1875 C804.4 839.5175 806.05 839.8475 807.75 840.1875 C807.75 840.8475 807.75 841.5075 807.75 842.1875 C808.74 842.5175 809.73 842.8475 810.75 843.1875 C810.75 844.5075 810.75 845.8275 810.75 847.1875 C811.74 847.5175 812.73 847.8475 813.75 848.1875 C813.75 850.4975 813.75 852.8075 813.75 855.1875 C814.41 855.1875 815.07 855.1875 815.75 855.1875 C817.375 856.1875 817.375 856.1875 818.75 858.1875 C819.0127431 860.90608679 818.88487019 863.44513951 818.75 866.1875 C819.41 866.1875 820.07 866.1875 820.75 866.1875 C821.74 869.4875 822.73 872.7875 823.75 876.1875 C824.41 876.1875 825.07 876.1875 825.75 876.1875 C828.64464397 883.14835184 829.13066228 889.26620004 828.9375 896.75 C828.92396484 897.75869141 828.91042969 898.76738281 828.89648438 899.80664062 C828.86149576 902.26750621 828.81241158 904.72720335 828.75 907.1875 C828.09 907.1875 827.43 907.1875 826.75 907.1875 C826.42 908.8375 826.09 910.4875 825.75 912.1875 C825.09 912.1875 824.43 912.1875 823.75 912.1875 C822.67474806 914.83978812 821.65543849 917.47118454 820.75 920.1875 C820.09 920.1875 819.43 920.1875 818.75 920.1875 C818.75 920.8475 818.75 921.5075 818.75 922.1875 C817.76 922.1875 816.77 922.1875 815.75 922.1875 C815.75 928.4575 815.75 934.7275 815.75 941.1875 C815.09 941.1875 814.43 941.1875 813.75 941.1875 C813.75 946.1375 813.75 951.0875 813.75 956.1875 C812.76 956.5175 811.77 956.8475 810.75 957.1875 C810.75 960.4875 810.75 963.7875 810.75 967.1875 C809.76 967.1875 808.77 967.1875 807.75 967.1875 C807.62625 967.765 807.5025 968.3425 807.375 968.9375 C806.74351176 971.21085767 805.86141809 973.1128529 804.75 975.1875 C804.09 975.1875 803.43 975.1875 802.75 975.1875 C802.86376617 977.31313103 802.99135631 979.4380261 803.125 981.5625 C803.19460938 982.74585938 803.26421875 983.92921875 803.3359375 985.1484375 C803.45217346 988.29312319 803.45217346 988.29312319 805.75 990.1875 C806.06884766 992.70947266 806.06884766 992.70947266 806.1640625 995.8515625 C806.20273438 996.97304688 806.24140625 998.09453125 806.28125 999.25 C806.3121875 1000.425625 806.343125 1001.60125 806.375 1002.8125 C806.41367188 1003.99585938 806.45234375 1005.17921875 806.4921875 1006.3984375 C806.58668845 1009.32796691 806.67224558 1012.25748597 806.75 1015.1875 C810.67360216 1017.32554536 813.8832688 1018.54586137 818.3125 1019.0625 C823.45032551 1019.88847195 825.69702152 1020.97649521 828.75 1025.1875 C828.75 1025.8475 828.75 1026.5075 828.75 1027.1875 C829.74 1027.5175 830.73 1027.8475 831.75 1028.1875 C831.79636473 1037.61914785 831.83189024 1047.0507564 831.85362434 1056.4824934 C831.86405624 1060.86214922 831.87820461 1065.24172699 831.90087891 1069.62133789 C831.92262844 1073.84884215 831.9345731 1078.07627139 831.93975449 1082.30382729 C831.94344645 1083.91574598 831.95065593 1085.52766063 831.96146011 1087.13954735 C831.97600315 1089.39935516 831.97797678 1091.658854 831.97705078 1093.91870117 C831.98371262 1095.84730232 831.98371262 1095.84730232 831.99050903 1097.81486511 C831.7572759 1101.08547072 831.08933132 1103.23216693 829.75 1106.1875 C829.43652793 1108.98494063 829.31229463 1111.7547765 829.19140625 1114.56640625 C828.68627298 1117.56591441 827.84095115 1119.00407435 825.75 1121.1875 C825.09 1121.1875 824.43 1121.1875 823.75 1121.1875 C823.42 1122.1775 823.09 1123.1675 822.75 1124.1875 C822.09 1124.1875 821.43 1124.1875 820.75 1124.1875 C820.75 1124.8475 820.75 1125.5075 820.75 1126.1875 C818.66796875 1128.1328125 818.66796875 1128.1328125 815.9375 1130.3125 C815.04417969 1131.03695313 814.15085937 1131.76140625 813.23046875 1132.5078125 C810.75 1134.1875 810.75 1134.1875 807.75 1134.1875 C807.811875 1135.05375 807.87375 1135.92 807.9375 1136.8125 C807.717736 1140.76825203 806.63194698 1144.30555302 803.75 1147.1875 C803.51298761 1150.04627909 803.32780818 1152.88633297 803.1875 1155.75 C803.12272461 1156.95946289 803.12272461 1156.95946289 803.05664062 1158.19335938 C802.95024738 1160.19118805 802.84959112 1162.1893207 802.75 1164.1875 C803.41 1164.1875 804.07 1164.1875 804.75 1164.1875 C806.01237731 1166.71225462 805.84856404 1168.49950466 805.8125 1171.3125 C805.79896484 1172.67761719 805.79896484 1172.67761719 805.78515625 1174.0703125 C805.77355469 1174.76898437 805.76195312 1175.46765625 805.75 1176.1875 C806.41 1176.1875 807.07 1176.1875 807.75 1176.1875 C807.75 1178.1675 807.75 1180.1475 807.75 1182.1875 C808.74 1182.1875 809.73 1182.1875 810.75 1182.1875 C810.75 1189.7775 810.75 1197.3675 810.75 1205.1875 C809.76 1205.1875 808.77 1205.1875 807.75 1205.1875 C807.76160156 1206.15171875 807.77320313 1207.1159375 807.78515625 1208.109375 C807.79417969 1209.37265625 807.80320312 1210.6359375 807.8125 1211.9375 C807.82410156 1213.19046875 807.83570313 1214.4434375 807.84765625 1215.734375 C807.76958687 1218.49490828 807.4561157 1220.5666021 806.75 1223.1875 C807.08 1223.5175 807.41 1223.8475 807.75 1224.1875 C807.79063832 1225.85367115 807.792721 1227.52138095 807.75 1229.1875 C808.74 1229.1875 809.73 1229.1875 810.75 1229.1875 C810.75 1229.8475 810.75 1230.5075 810.75 1231.1875 C811.74 1231.5175 812.73 1231.8475 813.75 1232.1875 C813.75 1232.8475 813.75 1233.5075 813.75 1234.1875 C814.41 1234.1875 815.07 1234.1875 815.75 1234.1875 C817.375 1235.5625 817.375 1235.5625 818.75 1237.1875 C818.75 1237.8475 818.75 1238.5075 818.75 1239.1875 C819.41 1239.1875 820.07 1239.1875 820.75 1239.1875 C821.77611949 1240.83821396 822.77308143 1242.50720006 823.75 1244.1875 C824.28625 1244.620625 824.8225 1245.05375 825.375 1245.5 C827.66706947 1248.31299435 827.40613375 1251.63421541 827.75 1255.1875 C828.08 1255.5175 828.41 1255.8475 828.75 1256.1875 C828.79063832 1257.85367115 828.792721 1259.52138095 828.75 1261.1875 C829.41 1261.1875 830.07 1261.1875 830.75 1261.1875 C832.22022475 1266.6674286 831.23569348 1269.31171664 828.75 1274.1875 C828.42 1274.5175 828.09 1274.8475 827.75 1275.1875 C827.51807135 1276.70219448 827.33784762 1278.22504562 827.1875 1279.75 C827.06181641 1280.98943359 827.06181641 1280.98943359 826.93359375 1282.25390625 C826.87300781 1282.89199219 826.81242187 1283.53007813 826.75 1284.1875 C827.41 1284.1875 828.07 1284.1875 828.75 1284.1875 C828.75 1284.8475 828.75 1285.5075 828.75 1286.1875 C829.74 1286.5175 830.73 1286.8475 831.75 1287.1875 C831.75 1288.8375 831.75 1290.4875 831.75 1292.1875 C832.41 1292.1875 833.07 1292.1875 833.75 1292.1875 C833.75 1292.8475 833.75 1293.5075 833.75 1294.1875 C834.74 1294.1875 835.73 1294.1875 836.75 1294.1875 C836.75 1295.1775 836.75 1296.1675 836.75 1297.1875 C837.74 1297.1875 838.73 1297.1875 839.75 1297.1875 C839.75 1302.7975 839.75 1308.4075 839.75 1314.1875 C838.76 1314.5175 837.77 1314.8475 836.75 1315.1875 C836.75 1315.8475 836.75 1316.5075 836.75 1317.1875 C835.375 1318.8125 835.375 1318.8125 833.75 1320.1875 C833.09 1320.1875 832.43 1320.1875 831.75 1320.1875 C831.75 1322.4975 831.75 1324.8075 831.75 1327.1875 C830.76 1327.5175 829.77 1327.8475 828.75 1328.1875 C828.75 1328.8475 828.75 1329.5075 828.75 1330.1875 C828.09 1330.1875 827.43 1330.1875 826.75 1330.1875 C826.42 1331.8375 826.09 1333.4875 825.75 1335.1875 C825.09 1335.1875 824.43 1335.1875 823.75 1335.1875 C823.75 1337.4975 823.75 1339.8075 823.75 1342.1875 C822.76 1342.5175 821.77 1342.8475 820.75 1343.1875 C820.04325371 1344.50002882 819.38815344 1345.84028717 818.75 1347.1875 C817.96425091 1348.45448643 817.14925211 1349.70360286 816.3125 1350.9375 C815.90128906 1351.55109375 815.49007813 1352.1646875 815.06640625 1352.796875 C814.63199219 1353.25578125 814.19757813 1353.7146875 813.75 1354.1875 C812.76 1354.1875 811.77 1354.1875 810.75 1354.1875 C810.75 1357.4875 810.75 1360.7875 810.75 1364.1875 C810.09 1364.1875 809.43 1364.1875 808.75 1364.1875 C808.76047363 1365.27168213 808.77094727 1366.35586426 808.78173828 1367.47290039 C808.81810643 1371.51892762 808.84096137 1375.56494057 808.85986328 1379.61108398 C808.86988268 1381.35785355 808.88350195 1383.1046065 808.90087891 1384.85131836 C808.92530669 1387.37097285 808.93652389 1389.89040439 808.9453125 1392.41015625 C808.95563507 1393.18335709 808.96595764 1393.95655792 808.97659302 1394.75318909 C808.97779026 1400.61993297 808.45915622 1405.92700306 804.8125 1410.75 C800.05086563 1414.53987226 794.00558969 1419.1875 787.75 1419.1875 C787.3478125 1420.05375 787.3478125 1420.05375 786.9375 1420.9375 C786.545625 1421.68 786.15375 1422.4225 785.75 1423.1875 C785.41355469 1423.88359375 785.07710937 1424.5796875 784.73046875 1425.296875 C781.54637421 1428.33652343 778.10826075 1427.76826173 773.875 1427.6875 C773.07191406 1427.70296875 772.26882813 1427.7184375 771.44140625 1427.734375 C766.07961054 1427.69904191 763.83825167 1426.81565903 759.75 1423.1875 C752.70949654 1419.71080594 746.07181959 1419.71399274 738.3125 1419.625 C717.88528921 1419.32278921 717.88528921 1419.32278921 713.75 1415.1875 C713.29625 1415.8475 712.8425 1416.5075 712.375 1417.1875 C711.83875 1417.8475 711.3025 1418.5075 710.75 1419.1875 C710.09 1419.1875 709.43 1419.1875 708.75 1419.1875 C708.80800781 1420.50105469 708.86601563 1421.81460937 708.92578125 1423.16796875 C708.97269048 1424.90361023 709.01818939 1426.63929023 709.0625 1428.375 C709.10439453 1429.23931641 709.14628906 1430.10363281 709.18945312 1430.99414062 C709.2756135 1435.49171234 709.23189632 1437.5341518 706.48828125 1441.25390625 C703.89784716 1443.08310008 702.71761456 1443.816221 699.625 1443.9375 C695.83801227 1444.01677741 695.83801227 1444.01677741 692.75 1445.1875 C691.8267053 1447.28093865 691.8267053 1447.28093865 691.25 1449.8125 C689.66919624 1455.60602164 687.5250178 1460.85092731 684.75 1466.1875 C684.09 1466.1875 683.43 1466.1875 682.75 1466.1875 C682.42 1467.1775 682.09 1468.1675 681.75 1469.1875 C672.18 1469.1875 662.61 1469.1875 652.75 1469.1875 C652.42 1468.1975 652.09 1467.2075 651.75 1466.1875 C644.49 1466.1875 637.23 1466.1875 629.75 1466.1875 C629.75 1466.8475 629.75 1467.5075 629.75 1468.1875 C628.1 1468.5175 626.45 1468.8475 624.75 1469.1875 C624.75 1469.8475 624.75 1470.5075 624.75 1471.1875 C624.09 1471.1875 623.43 1471.1875 622.75 1471.1875 C622.42 1472.1775 622.09 1473.1675 621.75 1474.1875 C621.09 1474.1875 620.43 1474.1875 619.75 1474.1875 C619.42 1475.1775 619.09 1476.1675 618.75 1477.1875 C618.09 1477.1875 617.43 1477.1875 616.75 1477.1875 C616.75 1477.8475 616.75 1478.5075 616.75 1479.1875 C616.09 1479.1875 615.43 1479.1875 614.75 1479.1875 C614.70875 1479.909375 614.6675 1480.63125 614.625 1481.375 C613.40057388 1485.31065538 610.95236042 1486.70403682 607.75 1489.1875 C607.09 1490.1775 606.43 1491.1675 605.75 1492.1875 C605.09 1492.1875 604.43 1492.1875 603.75 1492.1875 C603.481875 1492.765 603.21375 1493.3425 602.9375 1493.9375 C601.66133751 1496.35549209 600.65486475 1498.20931226 598.75 1500.1875 C595.88671875 1500.68920898 595.88671875 1500.68920898 592.4375 1500.68359375 C591.19742188 1500.68423828 589.95734375 1500.68488281 588.6796875 1500.68554688 C587.38289062 1500.66556641 586.08609375 1500.64558594 584.75 1500.625 C583.45320312 1500.63208984 582.15640625 1500.63917969 580.8203125 1500.64648438 C571.28311163 1500.58204383 571.28311163 1500.58204383 568.85546875 1498.78540039 C567.75 1497.1875 567.75 1497.1875 567.75 1495.1875 C567.09 1495.1875 566.43 1495.1875 565.75 1495.1875 C565.42 1494.5275 565.09 1493.8675 564.75 1493.1875 C562.86736119 1492.28406316 562.86736119 1492.28406316 560.6875 1491.5625 C559.388125 1491.10875 558.08875 1490.655 556.75 1490.1875 C556.75 1493.4875 556.75 1496.7875 556.75 1500.1875 C555.76 1500.1875 554.77 1500.1875 553.75 1500.1875 C553.42 1501.1775 553.09 1502.1675 552.75 1503.1875 C551.43 1503.1875 550.11 1503.1875 548.75 1503.1875 C548.75 1503.8475 548.75 1504.5075 548.75 1505.1875 C547.31359829 1505.38323608 545.87580496 1505.56877816 544.4375 1505.75 C543.63699219 1505.85441406 542.83648438 1505.95882813 542.01171875 1506.06640625 C539.75 1506.1875 539.75 1506.1875 536.75 1505.1875 C536.75 1504.5275 536.75 1503.8675 536.75 1503.1875 C535.986875 1503.249375 535.22375 1503.31125 534.4375 1503.375 C531.75 1503.1875 531.75 1503.1875 529.9375 1502.1875 C528.01381554 1498.94761038 528.56717616 1495.9049181 528.75 1492.1875 C527.76 1492.1875 526.77 1492.1875 525.75 1492.1875 C525.75 1490.5375 525.75 1488.8875 525.75 1487.1875 C525.09 1487.1875 524.43 1487.1875 523.75 1487.1875 C522.54727181 1484.78204362 522.64928528 1483.23753047 522.6875 1480.5625 C522.70103516 1479.33660156 522.70103516 1479.33660156 522.71484375 1478.0859375 C522.73224609 1477.14621094 522.73224609 1477.14621094 522.75 1476.1875 C522.09 1476.1875 521.43 1476.1875 520.75 1476.1875 C520.00363281 1474.72183594 520.00363281 1474.72183594 519.2421875 1473.2265625 C517.15322891 1470.07596211 517.15322891 1470.07596211 514.64941406 1469.62792969 C512.03561966 1469.45007102 509.49296016 1469.46805699 506.875 1469.5625 C505.98941406 1469.55605469 505.10382812 1469.54960938 504.19140625 1469.54296875 C498.35133786 1469.63870758 495.60473615 1470.83163048 490.75 1474.1875 C487.96417426 1474.46889654 485.62643745 1474.57613832 482.875 1474.4375 C482.18664062 1474.41945313 481.49828125 1474.40140625 480.7890625 1474.3828125 C479.1087619 1474.33613748 477.42918837 1474.26440939 475.75 1474.1875 C475.75 1475.1775 475.75 1476.1675 475.75 1477.1875 C472.66190305 1478.95212683 471.51687864 1479.1875 467.75 1479.1875 C467.42 1480.1775 467.09 1481.1675 466.75 1482.1875 C466.14671875 1482.23648437 465.5434375 1482.28546875 464.921875 1482.3359375 C464.12265625 1482.41070313 463.3234375 1482.48546875 462.5 1482.5625 C461.71109375 1482.63210938 460.9221875 1482.70171875 460.109375 1482.7734375 C457.75242441 1483.06072874 457.75242441 1483.06072874 455.87109375 1484.19140625 C452.94065736 1485.56757804 450.28181272 1485.58056249 447.0625 1485.75 C443.08729387 1485.61832814 443.08729387 1485.61832814 439.75 1487.1875 C435.19408339 1487.47109002 430.62617944 1487.41939914 426.0625 1487.4375 C424.78181641 1487.458125 423.50113281 1487.47875 422.18164062 1487.5 C420.94220703 1487.50515625 419.70277344 1487.5103125 418.42578125 1487.515625 C417.29052002 1487.5249707 416.15525879 1487.53431641 414.9855957 1487.54394531 C411.34334824 1487.14270172 408.90970546 1485.99748347 405.75 1484.1875 C405.75 1483.5275 405.75 1482.8675 405.75 1482.1875 C404.76 1481.8575 403.77 1481.5275 402.75 1481.1875 C402.75 1480.5275 402.75 1479.8675 402.75 1479.1875 C401.656875 1479.249375 400.56375 1479.31125 399.4375 1479.375 C395.75 1479.1875 395.75 1479.1875 393.8125 1477.8125 C392.75 1476.1875 392.75 1476.1875 392.75 1474.1875 C391.1 1474.1875 389.45 1474.1875 387.75 1474.1875 C387.75 1473.5275 387.75 1472.8675 387.75 1472.1875 C385.44 1472.1875 383.13 1472.1875 380.75 1472.1875 C380.42 1471.1975 380.09 1470.2075 379.75 1469.1875 C378.76 1469.1875 377.77 1469.1875 376.75 1469.1875 C376.75 1468.1975 376.75 1467.2075 376.75 1466.1875 C375.1 1466.1875 373.45 1466.1875 371.75 1466.1875 C371.75 1465.5275 371.75 1464.8675 371.75 1464.1875 C370.76 1464.1875 369.77 1464.1875 368.75 1464.1875 C365.6577115 1460.7554953 363.84734508 1457.27776492 363.4375 1452.6875 C363.540625 1451.8625 363.64375 1451.0375 363.75 1450.1875 C363.09 1450.1875 362.43 1450.1875 361.75 1450.1875 C361.61722656 1449.43984375 361.48445312 1448.6921875 361.34765625 1447.921875 C361.17105469 1446.93703125 360.99445312 1445.9521875 360.8125 1444.9375 C360.63847656 1443.96296875 360.46445312 1442.9884375 360.28515625 1441.984375 C360.10855469 1441.06140625 359.93195312 1440.1384375 359.75 1439.1875 C359.62496094 1438.42953125 359.49992188 1437.6715625 359.37109375 1436.890625 C359.06365234 1436.04757812 359.06365234 1436.04757812 358.75 1435.1875 C357.76 1434.8575 356.77 1434.5275 355.75 1434.1875 C355.75 1433.5275 355.75 1432.8675 355.75 1432.1875 C354.1 1432.1875 352.45 1432.1875 350.75 1432.1875 C350.75 1431.5275 350.75 1430.8675 350.75 1430.1875 C346.46 1430.1875 342.17 1430.1875 337.75 1430.1875 C337.75 1429.1975 337.75 1428.2075 337.75 1427.1875 C336.491875 1427.249375 335.23375 1427.31125 333.9375 1427.375 C330.03277965 1427.38191101 330.03277965 1427.38191101 327.75 1425.8125 C326.75 1424.1875 326.75 1424.1875 326.75 1422.1875 C326.09 1422.1875 325.43 1422.1875 324.75 1422.1875 C324.75 1421.1975 324.75 1420.2075 324.75 1419.1875 C321.45 1419.1875 318.15 1419.1875 314.75 1419.1875 C314.75 1418.5275 314.75 1417.8675 314.75 1417.1875 C313.85168457 1417.19273682 312.95336914 1417.19797363 312.02783203 1417.20336914 C308.69937501 1417.22039725 305.37096419 1417.23294337 302.04248047 1417.24243164 C300.6010668 1417.24746474 299.15965824 1417.25429173 297.71826172 1417.26293945 C295.64809915 1417.27504983 293.57800399 1417.28073847 291.5078125 1417.28515625 C290.2614502 1417.29039307 289.01508789 1417.29562988 287.73095703 1417.30102539 C284.75 1417.1875 284.75 1417.1875 282.75 1416.1875 C282.75 1415.5275 282.75 1414.8675 282.75 1414.1875 C282.09 1414.1875 281.43 1414.1875 280.75 1414.1875 C278.40188574 1411.84507124 277.7805912 1410.50238541 277.45703125 1407.171875 C277.50923828 1405.57085938 277.50923828 1405.57085938 277.5625 1403.9375 C277.58957031 1402.85984375 277.61664062 1401.7821875 277.64453125 1400.671875 C277.69673828 1399.44210937 277.69673828 1399.44210937 277.75 1398.1875 C276.76 1398.1875 275.77 1398.1875 274.75 1398.1875 C274.09 1395.8775 273.43 1393.5675 272.75 1391.1875 C271.86699219 1391.99703125 270.98398437 1392.8065625 270.07421875 1393.640625 C264.74452121 1397.4450605 258.8843062 1396.93049523 252.5625 1396.9375 C250.23562812 1396.97068632 247.9087983 1397.00701034 245.58203125 1397.046875 C244.04639526 1397.05412598 244.04639526 1397.05412598 242.47973633 1397.06152344 C240.02659476 1397.17473523 238.02961633 1397.276309 235.75 1398.1875 C235.42 1399.1775 235.09 1400.1675 234.75 1401.1875 C234.09 1401.1875 233.43 1401.1875 232.75 1401.1875 C232.42 1402.5075 232.09 1403.8275 231.75 1405.1875 C231.09 1405.1875 230.43 1405.1875 229.75 1405.1875 C229.440625 1405.80625 229.13125 1406.425 228.8125 1407.0625 C228.125 1408.4375 227.4375 1409.8125 226.75 1411.1875 C225.44329346 1411.19160889 224.13658691 1411.19571777 222.7902832 1411.19995117 C217.93506605 1411.22174804 213.08065866 1411.27604402 208.22583008 1411.34008789 C206.12597422 1411.36326296 204.0260022 1411.37766244 201.92602539 1411.38305664 C198.90437475 1411.39234963 195.88454983 1411.43334846 192.86328125 1411.48046875 C191.92664139 1411.4765361 190.99000153 1411.47260345 190.02497864 1411.46855164 C185.46097426 1411.57036603 183.42518335 1411.64144068 179.77807617 1414.59106445 C178.77417847 1415.87630005 178.77417847 1415.87630005 177.75 1417.1875 C172.11006499 1422.13963805 167.85728934 1422.48464442 160.5078125 1422.40625 C154.48915594 1421.92884948 150.90779621 1419.48388941 146.75 1415.1875 C144.11777038 1413.93313813 144.11777038 1413.93313813 141.75 1413.1875 C141.75 1412.5275 141.75 1411.8675 141.75 1411.1875 C140.986875 1411.249375 140.22375 1411.31125 139.4375 1411.375 C136.75 1411.1875 136.75 1411.1875 135.1171875 1409.9921875 C133.34005276 1407.64636964 133.32066623 1406.04176995 133.1875 1403.125 C133.13197684 1399.18249171 133.13197684 1399.18249171 130.75 1396.1875 C130.75 1395.1975 130.75 1394.2075 130.75 1393.1875 C129.76 1393.1875 128.77 1393.1875 127.75 1393.1875 C127.75 1393.8475 127.75 1394.5075 127.75 1395.1875 C123.1525367 1396.71998777 118.56559361 1396.41293064 113.75 1396.4375 C112.739375 1396.458125 111.72875 1396.47875 110.6875 1396.5 C109.718125 1396.50515625 108.74875 1396.5103125 107.75 1396.515625 C106.863125 1396.5249707 105.97625 1396.53431641 105.0625 1396.54394531 C102.26759146 1396.11314227 101.59033213 1395.25133838 99.75 1393.1875 C98.76 1392.8575 97.77 1392.5275 96.75 1392.1875 C96.75 1397.1375 96.75 1402.0875 96.75 1407.1875 C95.76 1407.5175 94.77 1407.8475 93.75 1408.1875 C93.42 1409.1775 93.09 1410.1675 92.75 1411.1875 C90.02022936 1411.26876109 87.2928983 1411.32811663 84.5625 1411.375 C83.40911133 1411.41270508 83.40911133 1411.41270508 82.23242188 1411.45117188 C77.59739617 1411.51085032 74.48229895 1411.27655704 70.75 1408.1875 C70.75 1407.5275 70.75 1406.8675 70.75 1406.1875 C69.76 1406.1875 68.77 1406.1875 67.75 1406.1875 C67.75 1404.5375 67.75 1402.8875 67.75 1401.1875 C64.45 1401.1875 61.15 1401.1875 57.75 1401.1875 C57.75 1400.5275 57.75 1399.8675 57.75 1399.1875 C56.6775 1399.5175 55.605 1399.8475 54.5 1400.1875 C50.75 1401.1875 50.75 1401.1875 46.75 1401.1875 C46.75 1401.8475 46.75 1402.5075 46.75 1403.1875 C45.1 1403.5175 43.45 1403.8475 41.75 1404.1875 C41.75 1407.8175 41.75 1411.4475 41.75 1415.1875 C40.76 1415.5175 39.77 1415.8475 38.75 1416.1875 C38.7809375 1418.1365625 38.7809375 1418.1365625 38.8125 1420.125 C38.83399454 1421.47915633 38.82148199 1422.83506083 38.75 1424.1875 C38.42 1424.5175 38.09 1424.8475 37.75 1425.1875 C37.51298761 1428.04627909 37.32780818 1430.88633297 37.1875 1433.75 C37.14431641 1434.55630859 37.10113281 1435.36261719 37.05664062 1436.19335938 C36.95024738 1438.19118805 36.84959112 1440.1893207 36.75 1442.1875 C35.76 1442.5175 34.77 1442.8475 33.75 1443.1875 C32.5999169 1445.15422915 32.5999169 1445.15422915 31.75 1447.1875 C30.75 1448.1875 30.75 1448.1875 27.80859375 1448.28515625 C26.61363281 1448.27355469 25.41867187 1448.26195312 24.1875 1448.25 C22.98996094 1448.24097656 21.79242188 1448.23195313 20.55859375 1448.22265625 C19.63175781 1448.21105469 18.70492188 1448.19945312 17.75 1448.1875 C17.3478125 1449.1465625 17.3478125 1449.1465625 16.9375 1450.125 C15.75 1452.1875 15.75 1452.1875 12.75 1453.1875 C12.75 1454.1775 12.75 1455.1675 12.75 1456.1875 C11.1 1456.8475 9.45 1457.5075 7.75 1458.1875 C7.75 1459.1775 7.75 1460.1675 7.75 1461.1875 C3.90144354 1464.63094526 1.52703681 1466.31934691 -3.6015625 1466.28515625 C-4.87773438 1466.28032227 -4.87773438 1466.28032227 -6.1796875 1466.27539062 C-7.06914062 1466.26701172 -7.95859375 1466.25863281 -8.875 1466.25 C-9.7721875 1466.24548828 -10.669375 1466.24097656 -11.59375 1466.23632812 C-13.81256648 1466.22452591 -16.03125018 1466.20806155 -18.25 1466.1875 C-18.58 1467.1775 -18.91 1468.1675 -19.25 1469.1875 C-22.48306391 1470.80403196 -25.70028204 1471.57897692 -29.25 1472.1875 C-29.25 1472.8475 -29.25 1473.5075 -29.25 1474.1875 C-30.9 1474.1875 -32.55 1474.1875 -34.25 1474.1875 C-34.25 1475.1775 -34.25 1476.1675 -34.25 1477.1875 C-38.40122591 1479.95498394 -41.80703676 1479.59219629 -46.6875 1479.625 C-47.54666016 1479.65787109 -48.40582031 1479.69074219 -49.29101562 1479.72460938 C-55.61090611 1479.77854172 -55.61090611 1479.77854172 -58.84765625 1476.78515625 C-60.25 1474.1875 -60.25 1474.1875 -60.25 1472.1875 C-61.9 1471.8575 -63.55 1471.5275 -65.25 1471.1875 C-65.25 1470.5275 -65.25 1469.8675 -65.25 1469.1875 C-66.23742187 1469.21070313 -67.22484375 1469.23390625 -68.2421875 1469.2578125 C-70.16417969 1469.28488281 -70.16417969 1469.28488281 -72.125 1469.3125 C-73.40117187 1469.33570313 -74.67734375 1469.35890625 -75.9921875 1469.3828125 C-79.25 1469.1875 -79.25 1469.1875 -81.25 1467.1875 C-83.18624074 1466.87464781 -83.18624074 1466.87464781 -85.375 1466.8125 C-89.67489369 1466.44098919 -92.52270366 1465.18143117 -96.25390625 1463.109375 C-99.52552508 1461.5984121 -102.67784108 1461.44265421 -106.25 1461.1875 C-106.58 1460.1975 -106.91 1459.2075 -107.25 1458.1875 C-110.55 1458.1875 -113.85 1458.1875 -117.25 1458.1875 C-117.25 1457.5275 -117.25 1456.8675 -117.25 1456.1875 C-117.9925 1456.14625 -118.735 1456.105 -119.5 1456.0625 C-122.25 1455.1875 -122.25 1455.1875 -124 1452.1875 C-125.88057613 1449.04175178 -125.88057613 1449.04175178 -128.5 1448.5703125 C-130.76107743 1448.33713889 -132.97755178 1448.19721132 -135.25 1448.1875 C-135.58 1447.1975 -135.91 1446.2075 -136.25 1445.1875 C-148.46 1445.1875 -160.67 1445.1875 -173.25 1445.1875 C-173.25 1446.1775 -173.25 1447.1675 -173.25 1448.1875 C-174.9 1448.8475 -176.55 1449.5075 -178.25 1450.1875 C-178.25 1452.8275 -178.25 1455.4675 -178.25 1458.1875 C-179.24 1458.1875 -180.23 1458.1875 -181.25 1458.1875 C-181.91 1460.8275 -182.57 1463.4675 -183.25 1466.1875 C-184.24 1466.1875 -185.23 1466.1875 -186.25 1466.1875 C-186.25 1467.1775 -186.25 1468.1675 -186.25 1469.1875 C-186.91 1469.1875 -187.57 1469.1875 -188.25 1469.1875 C-188.435625 1470.1465625 -188.435625 1470.1465625 -188.625 1471.125 C-188.83125 1471.805625 -189.0375 1472.48625 -189.25 1473.1875 C-191.68716215 1474.40608107 -193.28274057 1474.31675575 -196.00390625 1474.3203125 C-196.94041016 1474.32160156 -197.87691406 1474.32289062 -198.84179688 1474.32421875 C-199.82212891 1474.32035156 -200.80246094 1474.31648438 -201.8125 1474.3125 C-203.28879883 1474.31830078 -203.28879883 1474.31830078 -204.79492188 1474.32421875 C-205.73013672 1474.32292969 -206.66535156 1474.32164063 -207.62890625 1474.3203125 C-208.92163452 1474.31862061 -208.92163452 1474.31862061 -210.24047852 1474.31689453 C-212.25 1474.1875 -212.25 1474.1875 -213.25 1473.1875 C-216.03642215 1473.0396327 -218.80119498 1472.95243029 -221.58984375 1472.90625 C-222.42713516 1472.88784058 -223.26442657 1472.86943115 -224.12709045 1472.85046387 C-226.81382004 1472.7915259 -229.5006143 1472.73879749 -232.1875 1472.6875 C-235.71758663 1472.61997175 -239.24746409 1472.54627245 -242.77734375 1472.46875 C-243.59508774 1472.45517456 -244.41283173 1472.44159912 -245.25535583 1472.4276123 C-251.02444579 1472.30027711 -251.02444579 1472.30027711 -253.25 1471.1875 C-253.25 1470.5275 -253.25 1469.8675 -253.25 1469.1875 C-254.9 1468.8575 -256.55 1468.5275 -258.25 1468.1875 C-258.25 1467.5275 -258.25 1466.8675 -258.25 1466.1875 C-259.39597656 1466.22230469 -260.54195313 1466.25710938 -261.72265625 1466.29296875 C-263.25258939 1466.32112703 -264.78253854 1466.34842499 -266.3125 1466.375 C-267.44075195 1466.41270508 -267.44075195 1466.41270508 -268.59179688 1466.45117188 C-273.91631856 1466.52032151 -277.49346434 1465.59419334 -282.25 1463.1875 C-282.25 1462.5275 -282.25 1461.8675 -282.25 1461.1875 C-283.9 1460.8575 -285.55 1460.5275 -287.25 1460.1875 C-287.25 1459.5275 -287.25 1458.8675 -287.25 1458.1875 C-288.24 1458.1875 -289.23 1458.1875 -290.25 1458.1875 C-290.25 1456.5375 -290.25 1454.8875 -290.25 1453.1875 C-291.24 1452.8575 -292.23 1452.5275 -293.25 1452.1875 C-293.25 1451.5275 -293.25 1450.8675 -293.25 1450.1875 C-293.91 1450.1875 -294.57 1450.1875 -295.25 1450.1875 C-295.25 1449.5275 -295.25 1448.8675 -295.25 1448.1875 C-296.24 1447.8575 -297.23 1447.5275 -298.25 1447.1875 C-298.25 1446.5275 -298.25 1445.8675 -298.25 1445.1875 C-299.013125 1445.125625 -299.77625 1445.06375 -300.5625 1445 C-303.25 1444.1875 -303.25 1444.1875 -305.0625 1441.75 C-306.25 1439.1875 -306.25 1439.1875 -306.25 1437.1875 C-306.91 1437.1875 -307.57 1437.1875 -308.25 1437.1875 C-308.25 1436.5275 -308.25 1435.8675 -308.25 1435.1875 C-308.84167969 1435.24550781 -309.43335938 1435.30351563 -310.04296875 1435.36328125 C-316.54656969 1435.73461246 -316.54656969 1435.73461246 -320.0625 1433 C-320.784375 1432.071875 -321.50625 1431.14375 -322.25 1430.1875 C-322.9925 1429.383125 -323.735 1428.57875 -324.5 1427.75 C-326.9518486 1424.15979311 -327.60103478 1421.09311737 -326.8125 1416.8125 C-326.626875 1416.27625 -326.44125 1415.74 -326.25 1415.1875 C-325.59 1415.1875 -324.93 1415.1875 -324.25 1415.1875 C-324.25 1412.8775 -324.25 1410.5675 -324.25 1408.1875 C-323.26 1407.8575 -322.27 1407.5275 -321.25 1407.1875 C-320.56513275 1405.86342331 -319.90129797 1404.52840759 -319.25 1403.1875 C-317.375 1400.9375 -317.375 1400.9375 -315.25 1399.1875 C-313.93 1399.1875 -312.61 1399.1875 -311.25 1399.1875 C-311.1675 1398.56875 -311.085 1397.95 -311 1397.3125 C-310.25 1395.1875 -310.25 1395.1875 -308.203125 1394.0546875 C-307.55859375 1393.76851562 -306.9140625 1393.48234375 -306.25 1393.1875 C-306.23541748 1392.04273193 -306.22083496 1390.89796387 -306.20581055 1389.71850586 C-306.14759239 1385.44850303 -306.07036172 1381.17901462 -305.98754883 1376.90942383 C-305.95440974 1375.06575912 -305.92634387 1373.22199564 -305.90356445 1371.37817383 C-305.86981488 1368.71913792 -305.81749034 1366.06099813 -305.76171875 1363.40234375 C-305.75532883 1362.58539536 -305.7489389 1361.76844696 -305.74235535 1360.92674255 C-305.60706762 1355.59373556 -304.51899529 1352.00324372 -302.25 1347.1875 C-301.78824023 1345.04205472 -301.78824023 1345.04205472 -301.7734375 1343.109375 C-301.72703125 1342.08070313 -301.72703125 1342.08070313 -301.6796875 1341.03125 C-301.66164063 1340.3403125 -301.64359375 1339.649375 -301.625 1338.9375 C-301.35348361 1331.49795082 -301.35348361 1331.49795082 -300.25 1328.1875 C-299.59 1328.1875 -298.93 1328.1875 -298.25 1328.1875 C-298.25 1325.8775 -298.25 1323.5675 -298.25 1321.1875 C-297.26 1320.8575 -296.27 1320.5275 -295.25 1320.1875 C-295.25 1319.5275 -295.25 1318.8675 -295.25 1318.1875 C-294.59 1318.1875 -293.93 1318.1875 -293.25 1318.1875 C-292.92 1317.1975 -292.59 1316.2075 -292.25 1315.1875 C-291.59 1315.1875 -290.93 1315.1875 -290.25 1315.1875 C-289.92 1313.5375 -289.59 1311.8875 -289.25 1310.1875 C-288.59 1310.1875 -287.93 1310.1875 -287.25 1310.1875 C-287.25 1309.5275 -287.25 1308.8675 -287.25 1308.1875 C-286.59 1308.1875 -285.93 1308.1875 -285.25 1308.1875 C-284.92 1306.8675 -284.59 1305.5475 -284.25 1304.1875 C-283.59 1304.1875 -282.93 1304.1875 -282.25 1304.1875 C-282.25 1300.2275 -282.25 1296.2675 -282.25 1292.1875 C-281.59 1292.1875 -280.93 1292.1875 -280.25 1292.1875 C-279.92 1290.2075 -279.59 1288.2275 -279.25 1286.1875 C-278.59 1286.1875 -277.93 1286.1875 -277.25 1286.1875 C-277.25 1279.9175 -277.25 1273.6475 -277.25 1267.1875 C-277.91 1267.1875 -278.57 1267.1875 -279.25 1267.1875 C-282.41727335 1262.0406808 -282.60050464 1258.029244 -282.25 1252.1875 C-283.24 1251.8575 -284.23 1251.5275 -285.25 1251.1875 C-285.25 1250.5275 -285.25 1249.8675 -285.25 1249.1875 C-286.2090625 1248.7853125 -286.2090625 1248.7853125 -287.1875 1248.375 C-289.25 1247.1875 -289.25 1247.1875 -290.25 1244.1875 C-290.9925 1244.084375 -291.735 1243.98125 -292.5 1243.875 C-295.46078443 1243.13480389 -296.86971146 1242.03030403 -299.25 1240.1875 C-301.39733927 1239.48235154 -301.39733927 1239.48235154 -303.25 1239.1875 C-303.25 1238.1975 -303.25 1237.2075 -303.25 1236.1875 C-304.2090625 1235.7234375 -304.2090625 1235.7234375 -305.1875 1235.25 C-307.25 1234.1875 -307.25 1234.1875 -308.25 1233.1875 C-308.29063832 1231.52132885 -308.292721 1229.85361905 -308.25 1228.1875 C-309.24 1228.1875 -310.23 1228.1875 -311.25 1228.1875 C-311.25 1226.5375 -311.25 1224.8875 -311.25 1223.1875 C-312.24 1223.1875 -313.23 1223.1875 -314.25 1223.1875 C-317.1540269 1218.83145965 -316.65647392 1214.87619868 -316.6875 1209.75 C-316.72037109 1208.79544922 -316.75324219 1207.84089844 -316.78710938 1206.85742188 C-316.84097814 1199.85937999 -316.84097814 1199.85937999 -313.91015625 1196.52734375 C-311.25 1195.1875 -311.25 1195.1875 -308.25 1195.1875 C-308.25 1194.1975 -308.25 1193.2075 -308.25 1192.1875 C-307.59 1192.1875 -306.93 1192.1875 -306.25 1192.1875 C-305.981875 1191.465625 -305.71375 1190.74375 -305.4375 1190 C-303.13481291 1184.54626742 -303.13481291 1184.54626742 -301.25 1182.1875 C-298.60112932 1181.72882537 -296.59565763 1181.59973621 -293.95703125 1181.69921875 C-293.25100266 1181.70629349 -292.54497406 1181.71336823 -291.81755066 1181.72065735 C-289.56478416 1181.7486247 -287.31451352 1181.81135666 -285.0625 1181.875 C-283.53454114 1181.90008034 -282.00654327 1181.92289399 -280.47851562 1181.94335938 C-276.73471694 1181.99845756 -272.99278141 1182.08473714 -269.25 1182.1875 C-268.15309641 1180.29597067 -268.15309641 1180.29597067 -267.25 1178.1875 C-267.88040043 1176.83664193 -268.55251417 1175.50497324 -269.25 1174.1875 C-269.375 1170.9375 -269.375 1170.9375 -269.25 1168.1875 C-270.24 1167.8575 -271.23 1167.5275 -272.25 1167.1875 C-272.25 1164.2175 -272.25 1161.2475 -272.25 1158.1875 C-272.91 1158.1875 -273.57 1158.1875 -274.25 1158.1875 C-274.25 1157.1975 -274.25 1156.2075 -274.25 1155.1875 C-275.24 1155.1875 -276.23 1155.1875 -277.25 1155.1875 C-280.01398593 1149.05866162 -280.7123383 1143.65093773 -281.0390625 1136.9453125 C-281.07226649 1134.2282186 -281.07226649 1134.2282186 -282.25 1132.1875 C-282.373724 1129.17200869 -282.43845633 1126.18055976 -282.453125 1123.1640625 C-282.45882507 1122.26634125 -282.46452515 1121.36862 -282.47039795 1120.44369507 C-282.47985295 1118.54222799 -282.48638391 1116.6407445 -282.49023438 1114.73925781 C-282.49993797 1111.83108912 -282.53095556 1108.92362768 -282.5625 1106.015625 C-282.56903022 1104.16927504 -282.57428062 1102.32292001 -282.578125 1100.4765625 C-282.5904718 1099.6066568 -282.6028186 1098.7367511 -282.61553955 1097.84048462 C-282.59335441 1091.82242934 -282.59335441 1091.82242934 -280.85449219 1088.60693359 C-279.25 1087.1875 -279.25 1087.1875 -277.25 1087.1875 C-277.25 1086.5275 -277.25 1085.8675 -277.25 1085.1875 C-275.6 1085.1875 -273.95 1085.1875 -272.25 1085.1875 C-271.92 1084.1975 -271.59 1083.2075 -271.25 1082.1875 C-270.59 1082.1875 -269.93 1082.1875 -269.25 1082.1875 C-269.25 1081.5275 -269.25 1080.8675 -269.25 1080.1875 C-268.59 1080.1875 -267.93 1080.1875 -267.25 1080.1875 C-267.30220703 1078.63289063 -267.30220703 1078.63289063 -267.35546875 1077.046875 C-267.38361482 1075.67709958 -267.41091411 1074.30730659 -267.4375 1072.9375 C-267.46263672 1072.25558594 -267.48777344 1071.57367187 -267.51367188 1070.87109375 C-267.55966298 1067.71303762 -267.42385973 1065.51367931 -265.92578125 1062.703125 C-264.25 1061.1875 -264.25 1061.1875 -261.25 1061.1875 C-261.25 1059.5375 -261.25 1057.8875 -261.25 1056.1875 C-260.59 1056.1875 -259.93 1056.1875 -259.25 1056.1875 C-259.188125 1055.32125 -259.12625 1054.455 -259.0625 1053.5625 C-258.04381621 1049.33104426 -256.23535409 1047.31170777 -253.25 1044.1875 C-252.54875 1043.82269531 -251.8475 1043.45789062 -251.125 1043.08203125 C-248.05141029 1039.97642498 -248.61150157 1036.26356835 -248.5625 1032.0625 C-248.33913043 1023.27663043 -248.33913043 1023.27663043 -247.25 1022.1875 C-246.08222775 1016.1363165 -246.46368643 1012.07182704 -248.25 1006.1875 C-249.9 1006.1875 -251.55 1006.1875 -253.25 1006.1875 C-253.25 1005.5275 -253.25 1004.8675 -253.25 1004.1875 C-254.013125 1004.084375 -254.77625 1003.98125 -255.5625 1003.875 C-258.43416484 1003.14038806 -259.48042094 1002.5158935 -261.25 1000.1875 C-261.25 999.5275 -261.25 998.8675 -261.25 998.1875 C-261.91 998.1875 -262.57 998.1875 -263.25 998.1875 C-263.58 996.5375 -263.91 994.8875 -264.25 993.1875 C-264.91 993.1875 -265.57 993.1875 -266.25 993.1875 C-269.25 987.4375 -269.25 987.4375 -269.25 985.1875 C-270.24 984.8575 -271.23 984.5275 -272.25 984.1875 C-272.25 981.8775 -272.25 979.5675 -272.25 977.1875 C-273.013125 976.919375 -273.77625 976.65125 -274.5625 976.375 C-277.15483979 975.22954753 -278.55075537 974.42334819 -280.25 972.1875 C-280.25 971.1975 -280.25 970.2075 -280.25 969.1875 C-280.91 969.1875 -281.57 969.1875 -282.25 969.1875 C-282.26417969 968.1975 -282.27835938 967.2075 -282.29296875 966.1875 C-282.59022058 956.30052647 -282.59022058 956.30052647 -287.19140625 947.703125 C-288.25 946.1875 -288.25 946.1875 -288.25 943.1875 C-288.91 943.1875 -289.57 943.1875 -290.25 943.1875 C-290.25 941.5375 -290.25 939.8875 -290.25 938.1875 C-291.24 937.8575 -292.23 937.5275 -293.25 937.1875 C-293.25 930.5875 -293.25 923.9875 -293.25 917.1875 C-293.91 917.1875 -294.57 917.1875 -295.25 917.1875 C-295.25 916.5275 -295.25 915.8675 -295.25 915.1875 C-296.24 914.8575 -297.23 914.5275 -298.25 914.1875 C-298.93939809 911.86078146 -299.60466922 909.52682406 -300.25 907.1875 C-301.2293879 906.16730427 -302.22895449 905.16600195 -303.25 904.1875 C-305.09729608 899.73225652 -305.80702445 895.20214983 -306.4921875 890.45703125 C-307.44823746 887.59380947 -308.86830286 886.93790392 -311.25 885.1875 C-311.5 881.5 -311.5 881.5 -311.25 878.1875 C-312.24 877.8575 -313.23 877.5275 -314.25 877.1875 C-314.25 870.2575 -314.25 863.3275 -314.25 856.1875 C-313.26 855.8575 -312.27 855.5275 -311.25 855.1875 C-311.27320313 854.41664063 -311.29640625 853.64578125 -311.3203125 852.8515625 C-311.33835937 851.84867188 -311.35640625 850.84578125 -311.375 849.8125 C-311.39820313 848.81476562 -311.42140625 847.81703125 -311.4453125 846.7890625 C-311.25 844.1875 -311.25 844.1875 -309.25 842.1875 C-308.88105418 840.15689341 -308.88105418 840.15689341 -308.8359375 837.8359375 C-308.79726563 836.98515625 -308.75859375 836.134375 -308.71875 835.2578125 C-308.6878125 834.36835937 -308.656875 833.47890625 -308.625 832.5625 C-308.58632813 831.6653125 -308.54765625 830.768125 -308.5078125 829.84375 C-308.41340643 827.6252073 -308.32783252 825.40667597 -308.25 823.1875 C-308.87181152 823.04183594 -309.49362305 822.89617188 -310.13427734 822.74609375 C-312.32963782 822.166474 -313.93344873 821.35072015 -315.875 820.1875 C-317.6401852 819.14146432 -319.4147737 818.10511315 -321.25 817.1875 C-321.25 816.5275 -321.25 815.8675 -321.25 815.1875 C-321.91 815.1875 -322.57 815.1875 -323.25 815.1875 C-324.78266582 812.12216836 -324.35276471 808.91995728 -324.3125 805.5625 C-324.30798828 804.85609375 -324.30347656 804.1496875 -324.29882812 803.421875 C-324.28703875 801.67704725 -324.26910324 799.932263 -324.25 798.1875 C-323.59 798.1875 -322.93 798.1875 -322.25 798.1875 C-321.92 795.5475 -321.59 792.9075 -321.25 790.1875 C-320.59 790.1875 -319.93 790.1875 -319.25 790.1875 C-318.92 789.1975 -318.59 788.2075 -318.25 787.1875 C-317.59 787.1875 -316.93 787.1875 -316.25 787.1875 C-315.8478125 786.2284375 -315.8478125 786.2284375 -315.4375 785.25 C-314.25 783.1875 -314.25 783.1875 -311.25 782.1875 C-310.92 781.1975 -310.59 780.2075 -310.25 779.1875 C-308.93 779.1875 -307.61 779.1875 -306.25 779.1875 C-305.92 775.8875 -305.59 772.5875 -305.25 769.1875 C-304.59 769.1875 -303.93 769.1875 -303.25 769.1875 C-303.26571045 767.97690918 -303.2814209 766.76631836 -303.29760742 765.51904297 C-303.35204969 761.01276342 -303.38640207 756.50651276 -303.41479492 752 C-303.42984899 750.05235906 -303.4502968 748.10475184 -303.47631836 746.15722656 C-303.51285053 743.35212872 -303.52976033 740.54748046 -303.54296875 737.7421875 C-303.55845261 736.87633026 -303.57393646 736.01047302 -303.58988953 735.11837769 C-303.59129541 730.02826486 -302.99803833 726.6439497 -300.25 722.1875 C-299.59 722.1875 -298.93 722.1875 -298.25 722.1875 C-298.105625 721.383125 -297.96125 720.57875 -297.8125 719.75 C-297.25 717.1875 -297.25 717.1875 -296.25 716.1875 C-296.01712992 714.50566052 -295.83735834 712.8162584 -295.6875 711.125 C-295.60371094 710.20589844 -295.51992188 709.28679688 -295.43359375 708.33984375 C-295.37300781 707.62957031 -295.31242187 706.91929687 -295.25 706.1875 C-294.59 706.1875 -293.93 706.1875 -293.25 706.1875 C-293.25 703.8775 -293.25 701.5675 -293.25 699.1875 C-292.26 698.8575 -291.27 698.5275 -290.25 698.1875 C-289.92 697.1975 -289.59 696.2075 -289.25 695.1875 C-288.59 695.1875 -287.93 695.1875 -287.25 695.1875 C-287.25 694.5275 -287.25 693.8675 -287.25 693.1875 C-286.59 693.1875 -285.93 693.1875 -285.25 693.1875 C-284.92 692.1975 -284.59 691.2075 -284.25 690.1875 C-283.59 690.1875 -282.93 690.1875 -282.25 690.1875 C-282.270625 689.218125 -282.29125 688.24875 -282.3125 687.25 C-282.25 684.1875 -282.25 684.1875 -281.25 683.1875 C-281.03964095 681.06637958 -280.88149899 678.93996581 -280.75 676.8125 C-280.53419953 673.33657092 -280.3524508 670.4948524 -279.25 667.1875 C-278.59 667.1875 -277.93 667.1875 -277.25 667.1875 C-277.25 666.1975 -277.25 665.2075 -277.25 664.1875 C-276.26 664.1875 -275.27 664.1875 -274.25 664.1875 C-274.37375 662.888125 -274.4975 661.58875 -274.625 660.25 C-274.69460938 659.51910156 -274.76421875 658.78820312 -274.8359375 658.03515625 C-274.97257812 657.42542969 -275.10921875 656.81570313 -275.25 656.1875 C-275.91 655.8575 -276.57 655.5275 -277.25 655.1875 C-277.25 654.5275 -277.25 653.8675 -277.25 653.1875 C-277.91 653.1875 -278.57 653.1875 -279.25 653.1875 C-280.7180946 649.0325153 -282.11149045 645.04933718 -282.8125 640.6875 C-282.956875 639.8625 -283.10125 639.0375 -283.25 638.1875 C-283.91 637.8575 -284.57 637.5275 -285.25 637.1875 C-285.25 636.5275 -285.25 635.8675 -285.25 635.1875 C-285.91 635.1875 -286.57 635.1875 -287.25 635.1875 C-290.25 629.4375 -290.25 629.4375 -290.25 627.1875 C-291.9 627.1875 -293.55 627.1875 -295.25 627.1875 C-295.25 626.5275 -295.25 625.8675 -295.25 625.1875 C-296.9 624.8575 -298.55 624.5275 -300.25 624.1875 C-300.25 623.5275 -300.25 622.8675 -300.25 622.1875 C-301.24 622.1875 -302.23 622.1875 -303.25 622.1875 C-303.25 621.1975 -303.25 620.2075 -303.25 619.1875 C-303.889375 618.919375 -304.52875 618.65125 -305.1875 618.375 C-307.25 617.1875 -307.25 617.1875 -308.25 614.1875 C-309.24 614.1875 -310.23 614.1875 -311.25 614.1875 C-311.25 611.5475 -311.25 608.9075 -311.25 606.1875 C-312.24 605.8575 -313.23 605.5275 -314.25 605.1875 C-314.25 599.9075 -314.25 594.6275 -314.25 589.1875 C-313.26 588.8575 -312.27 588.5275 -311.25 588.1875 C-310.755 585.7125 -310.755 585.7125 -310.25 583.1875 C-309.59 583.1875 -308.93 583.1875 -308.25 583.1875 C-308.25 580.8775 -308.25 578.5675 -308.25 576.1875 C-307.59 576.1875 -306.93 576.1875 -306.25 576.1875 C-305.92 574.8675 -305.59 573.5475 -305.25 572.1875 C-304.59 572.1875 -303.93 572.1875 -303.25 572.1875 C-303.37375 570.7334375 -303.37375 570.7334375 -303.5 569.25 C-303.52990575 564.36539475 -301.41818569 560.46291837 -299.25 556.1875 C-298.92 555.5275 -298.59 554.8675 -298.25 554.1875 C-297.26 554.1875 -296.27 554.1875 -295.25 554.1875 C-295.25 552.5375 -295.25 550.8875 -295.25 549.1875 C-294.59 549.1875 -293.93 549.1875 -293.25 549.1875 C-292.92 548.1975 -292.59 547.2075 -292.25 546.1875 C-291.59 546.1875 -290.93 546.1875 -290.25 546.1875 C-290.34213805 539.95756827 -290.44942557 533.72803121 -290.56738281 527.49853516 C-290.60572842 525.3781531 -290.64057133 523.25770474 -290.671875 521.13720703 C-290.71740466 518.09383402 -290.77541839 515.05091968 -290.8359375 512.0078125 C-290.84748871 511.05568878 -290.85903992 510.10356506 -290.87094116 509.12258911 C-290.89081085 508.24182709 -290.91068054 507.36106506 -290.93115234 506.45361328 C-290.94447601 505.67639923 -290.95779968 504.89918518 -290.9715271 504.09841919 C-291.09039576 501.9486053 -291.09039576 501.9486053 -293.25 500.1875 C-293.375 497.0625 -293.375 497.0625 -293.25 494.1875 C-293.91 494.1875 -294.57 494.1875 -295.25 494.1875 C-295.25 493.1975 -295.25 492.2075 -295.25 491.1875 C-296.24 491.1875 -297.23 491.1875 -298.25 491.1875 C-302.27311141 486.7109165 -303.77100923 482.05513689 -304.25 476.1875 C-304.58 475.8575 -304.91 475.5275 -305.25 475.1875 C-306.94738162 465.30523079 -306.36319492 454.98881223 -306.3125 445 C-306.30747379 443.26757942 -306.30291287 441.53515743 -306.29882812 439.80273438 C-306.28791402 435.59762072 -306.27071152 431.39257634 -306.25 427.1875 C-305.26 426.8575 -304.27 426.5275 -303.25 426.1875 C-303.270625 425.218125 -303.29125 424.24875 -303.3125 423.25 C-303.25 420.1875 -303.25 420.1875 -302.25 419.1875 C-301.96372691 416.1839046 -301.80134245 413.18009893 -301.62890625 410.16796875 C-301.27071349 407.35043188 -300.69283886 405.60002004 -299.25 403.1875 C-298.59 403.1875 -297.93 403.1875 -297.25 403.1875 C-297.25 402.5275 -297.25 401.8675 -297.25 401.1875 C-296.59 401.1875 -295.93 401.1875 -295.25 401.1875 C-295.25 389.6375 -295.25 378.0875 -295.25 366.1875 C-294.59 366.1875 -293.93 366.1875 -293.25 366.1875 C-293.270625 364.90875 -293.29125 363.63 -293.3125 362.3125 C-293.375 358.4375 -293.375 358.4375 -292.25 356.1875 C-291.59 356.1875 -290.93 356.1875 -290.25 356.1875 C-290.25 355.1975 -290.25 354.2075 -290.25 353.1875 C-289.59 353.1875 -288.93 353.1875 -288.25 353.1875 C-287.92 351.5375 -287.59 349.8875 -287.25 348.1875 C-286.59 348.1875 -285.93 348.1875 -285.25 348.1875 C-285.25 347.1975 -285.25 346.2075 -285.25 345.1875 C-284.26 345.1875 -283.27 345.1875 -282.25 345.1875 C-282.26571045 344.23907227 -282.2814209 343.29064453 -282.29760742 342.31347656 C-282.34880107 338.7873791 -282.38638125 335.26167778 -282.41479492 331.73535156 C-282.42986151 330.2105485 -282.45031876 328.68578864 -282.47631836 327.16113281 C-282.51279706 324.96668834 -282.52974714 322.77281784 -282.54296875 320.578125 C-282.5586792 319.25844727 -282.57438965 317.93876953 -282.59057617 316.57910156 C-282.23660014 313.05405851 -281.78578228 311.61500773 -279.25 309.1875 C-278.59 309.1875 -277.93 309.1875 -277.25 309.1875 C-276.92 308.1975 -276.59 307.2075 -276.25 306.1875 C-275.59 306.1875 -274.93 306.1875 -274.25 306.1875 C-273.981875 305.548125 -273.71375 304.90875 -273.4375 304.25 C-272.25 302.1875 -272.25 302.1875 -269.25 301.1875 C-269.27320313 300.40246094 -269.29640625 299.61742187 -269.3203125 298.80859375 C-269.42405893 292.76906968 -269.11758802 287.90698831 -267.25 282.1875 C-267.08071457 279.39505955 -267.08071457 279.39505955 -267.25 277.1875 C-267.91 277.1875 -268.57 277.1875 -269.25 277.1875 C-269.37375 276.383125 -269.4975 275.57875 -269.625 274.75 C-269.83125 273.904375 -270.0375 273.05875 -270.25 272.1875 C-270.91 271.8575 -271.57 271.5275 -272.25 271.1875 C-272.25 270.5275 -272.25 269.8675 -272.25 269.1875 C-273.11625 268.81625 -273.11625 268.81625 -274 268.4375 C-276.57939979 267.00450012 -278.31121592 265.40325324 -280.25 263.1875 C-280.25 262.5275 -280.25 261.8675 -280.25 261.1875 C-280.91 261.1875 -281.57 261.1875 -282.25 261.1875 C-283.875 260 -283.875 260 -285.25 258.1875 C-285.4375 255.5 -285.4375 255.5 -285.25 253.1875 C-286.24 252.8575 -287.23 252.5275 -288.25 252.1875 C-288.25 250.8675 -288.25 249.5475 -288.25 248.1875 C-288.91 248.1875 -289.57 248.1875 -290.25 248.1875 C-290.33121924 246.58417209 -290.38929134 244.97965974 -290.4375 243.375 C-290.47230469 242.48167969 -290.50710938 241.58835938 -290.54296875 240.66796875 C-290.25 238.1875 -290.25 238.1875 -288.86328125 236.36328125 C-287.25 235.1875 -287.25 235.1875 -285.25 235.1875 C-285.42223977 224.88552471 -285.42223977 224.88552471 -290.25 216.1875 C-290.25 215.5275 -290.25 214.8675 -290.25 214.1875 C-291.9 214.1875 -293.55 214.1875 -295.25 214.1875 C-295.25 213.1975 -295.25 212.2075 -295.25 211.1875 C-296.24 210.8575 -297.23 210.5275 -298.25 210.1875 C-298.25 203.2575 -298.25 196.3275 -298.25 189.1875 C-297.26 188.8575 -296.27 188.5275 -295.25 188.1875 C-295.25 187.5275 -295.25 186.8675 -295.25 186.1875 C-293.875 184.5625 -293.875 184.5625 -292.25 183.1875 C-291.59 183.1875 -290.93 183.1875 -290.25 183.1875 C-290.25 182.5275 -290.25 181.8675 -290.25 181.1875 C-289.59 181.1875 -288.93 181.1875 -288.25 181.1875 C-288.29125 180.07375 -288.3325 178.96 -288.375 177.8125 C-288.25 174.1875 -288.25 174.1875 -286.25 172.1875 C-285.54289322 170.53758418 -284.87056011 168.87187744 -284.25 167.1875 C-283.59 167.1875 -282.93 167.1875 -282.25 167.1875 C-282.1571875 166.1975 -282.1571875 166.1975 -282.0625 165.1875 C-280.94621505 161.0658325 -278.91238434 157.52999498 -276.25 154.1875 C-275.59 154.1875 -274.93 154.1875 -274.25 154.1875 C-274.25 150.8875 -274.25 147.5875 -274.25 144.1875 C-273.59 144.1875 -272.93 144.1875 -272.25 144.1875 C-271.92 142.5375 -271.59 140.8875 -271.25 139.1875 C-270.59 139.1875 -269.93 139.1875 -269.25 139.1875 C-269.270625 138.300625 -269.29125 137.41375 -269.3125 136.5 C-269.25713176 133.56548345 -268.82192163 131.04710817 -268.25 128.1875 C-268.58 127.8575 -268.91 127.5275 -269.25 127.1875 C-269.33758003 125.18785018 -269.35696576 123.1851389 -269.34765625 121.18359375 C-269.34443359 119.96865234 -269.34121094 118.75371094 -269.33789062 117.50195312 C-269.32532227 115.58286133 -269.32532227 115.58286133 -269.3125 113.625 C-269.30798828 112.34173828 -269.30347656 111.05847656 -269.29882812 109.73632812 C-269.28699545 106.55333978 -269.27051068 103.37044238 -269.25 100.1875 C-268.26 99.8575 -267.27 99.5275 -266.25 99.1875 C-266.25 98.5275 -266.25 97.8675 -266.25 97.1875 C-265.59 97.1875 -264.93 97.1875 -264.25 97.1875 C-263.755 95.7025 -263.755 95.7025 -263.25 94.1875 C-262.59 94.1875 -261.93 94.1875 -261.25 94.1875 C-261.25 93.5275 -261.25 92.8675 -261.25 92.1875 C-259.6 91.8575 -257.95 91.5275 -256.25 91.1875 C-256.25 90.5275 -256.25 89.8675 -256.25 89.1875 C-255.59 89.1875 -254.93 89.1875 -254.25 89.1875 C-253.755 87.7025 -253.755 87.7025 -253.25 86.1875 C-252.59 86.1875 -251.93 86.1875 -251.25 86.1875 C-250.92 84.5375 -250.59 82.8875 -250.25 81.1875 C-249.59 81.1875 -248.93 81.1875 -248.25 81.1875 C-248.25 80.5275 -248.25 79.8675 -248.25 79.1875 C-244.94005287 77.53252644 -241.25877 78.08665665 -237.625 78.125 C-236.42230469 78.13176758 -236.42230469 78.13176758 -235.1953125 78.13867188 C-233.21350994 78.15046832 -231.23174567 78.16840395 -229.25 78.1875 C-228.92 79.1775 -228.59 80.1675 -228.25 81.1875 C-224.95 81.1875 -221.65 81.1875 -218.25 81.1875 C-217.92 82.1775 -217.59 83.1675 -217.25 84.1875 C-215.59385343 84.56968767 -213.92542976 84.90145102 -212.25 85.1875 C-211.92 84.8575 -211.59 84.5275 -211.25 84.1875 C-208.38732433 84.11424832 -205.549281 84.09511795 -202.6875 84.125 C-201.88119141 84.12951172 -201.07488281 84.13402344 -200.24414062 84.13867188 C-198.24606244 84.15049482 -196.24802217 84.16843086 -194.25 84.1875 C-194.25 84.8475 -194.25 85.5075 -194.25 86.1875 C-192.99703125 86.24808594 -191.7440625 86.30867188 -190.453125 86.37109375 C-188.80207276 86.45552256 -187.15103165 86.54016939 -185.5 86.625 C-184.675 86.66431641 -183.85 86.70363281 -183 86.74414062 C-182.20078125 86.78603516 -181.4015625 86.82792969 -180.578125 86.87109375 C-179.8449707 86.90775146 -179.11181641 86.94440918 -178.35644531 86.98217773 C-176.23822395 87.18864785 -174.2980544 87.61882086 -172.25 88.1875 C-171.79625 87.5275 -171.3425 86.8675 -170.875 86.1875 C-170.33875 85.5275 -169.8025 84.8675 -169.25 84.1875 C-168.59 84.1875 -167.93 84.1875 -167.25 84.1875 C-167.25 77.2575 -167.25 70.3275 -167.25 63.1875 C-166.26 63.1875 -165.27 63.1875 -164.25 63.1875 C-164.25 62.1975 -164.25 61.2075 -164.25 60.1875 C-161.94 60.1875 -159.63 60.1875 -157.25 60.1875 C-157.25 59.5275 -157.25 58.8675 -157.25 58.1875 C-154.28 57.6925 -154.28 57.6925 -151.25 57.1875 C-151.25 56.5275 -151.25 55.8675 -151.25 55.1875 C-150.59 55.1875 -149.93 55.1875 -149.25 55.1875 C-149.26160156 54.27226563 -149.27320313 53.35703125 -149.28515625 52.4140625 C-149.29417969 51.22554687 -149.30320313 50.03703125 -149.3125 48.8125 C-149.32990234 47.03746094 -149.32990234 47.03746094 -149.34765625 45.2265625 C-149.25 42.1875 -149.25 42.1875 -148.25 40.1875 C-147.59 40.1875 -146.93 40.1875 -146.25 40.1875 C-145.92 39.1975 -145.59 38.2075 -145.25 37.1875 C-144.59 37.1875 -143.93 37.1875 -143.25 37.1875 C-142.92 36.1975 -142.59 35.2075 -142.25 34.1875 C-135.32 34.1875 -128.39 34.1875 -121.25 34.1875 C-120.92 35.1775 -120.59 36.1675 -120.25 37.1875 C-116.95 37.1875 -113.65 37.1875 -110.25 37.1875 C-110.25 37.8475 -110.25 38.5075 -110.25 39.1875 C-104.97 39.1875 -99.69 39.1875 -94.25 39.1875 C-94.25 38.5275 -94.25 37.8675 -94.25 37.1875 C-91.61 37.1875 -88.97 37.1875 -86.25 37.1875 C-86.25 36.1975 -86.25 35.2075 -86.25 34.1875 C-85.26 34.1875 -84.27 34.1875 -83.25 34.1875 C-83.00121094 33.45144531 -82.75242187 32.71539062 -82.49609375 31.95703125 C-81.13970883 28.94237009 -79.6535998 27.18994226 -77.3125 24.875 C-76.62285156 24.17761719 -75.93320312 23.48023437 -75.22265625 22.76171875 C-73.25 21.1875 -73.25 21.1875 -70.25 21.1875 C-70.353125 19.929375 -70.45625 18.67125 -70.5625 17.375 C-70.5703125 15.16796875 -70.5703125 15.16796875 -70.25 13.1875 C-67.41346849 10.73428356 -65.99876504 10.1875 -62.25 10.1875 C-62.25 9.5275 -62.25 8.8675 -62.25 8.1875 C-58.5523798 5.39529822 -55.87063703 4.82410558 -51.29296875 4.89453125 C-50.18115234 4.90419922 -49.06933594 4.91386719 -47.92382812 4.92382812 C-46.77333984 4.94896484 -45.62285156 4.97410156 -44.4375 5 C-42.68276367 5.02030273 -42.68276367 5.02030273 -40.89257812 5.04101562 C-38.011248 5.07629722 -35.13086096 5.1255972 -32.25 5.1875 C-31.92 6.1775 -31.59 7.1675 -31.25 8.1875 C-30.528125 8.31125 -29.80625 8.435 -29.0625 8.5625 C-26.29278106 9.1779931 -23.8529646 10.07194374 -21.25 11.1875 C-21.25 11.8475 -21.25 12.5075 -21.25 13.1875 C-18.45451711 12.83806464 -17.4752673 12.47021047 -15.6875 10.2265625 C-14.9759375 9.03160156 -14.9759375 9.03160156 -14.25 7.8125 C-10.34469155 1.29657775 -7.71204898 -0.21422358 0 0 Z " fill="#BCB3AB" transform="translate(357.25,11.8125)"/>
<path d="M0 0 C8.58 0 17.16 0 26 0 C22.72362069 3.27637931 22.47757439 3.38137048 18.18359375 3.3984375 C17.25482422 3.40230469 16.32605469 3.40617187 15.36914062 3.41015625 C14.40169922 3.39855469 13.43425781 3.38695313 12.4375 3.375 C10.98053711 3.39240234 10.98053711 3.39240234 9.49414062 3.41015625 C8.10291992 3.40435547 8.10291992 3.40435547 6.68359375 3.3984375 C5.40826782 3.39336182 5.40826782 3.39336182 4.10717773 3.38818359 C3.41180908 3.26008301 2.71644043 3.13198242 2 3 C1.34 2.01 0.68 1.02 0 0 Z " fill="#C1AC9F" transform="translate(585,101)"/>
<path d="M0 0 C7.59 0 15.18 0 23 0 C19.63019839 3.36980161 18.42733686 3.38630447 13.83984375 3.41015625 C13.06769531 3.39855469 12.29554688 3.38695313 11.5 3.375 C10.34177734 3.39240234 10.34177734 3.39240234 9.16015625 3.41015625 C4.57266314 3.38630447 3.36980161 3.36980161 0 0 Z " fill="#BFAB9E" transform="translate(678,101)"/>
<path d="M0 0 C0.33 0.99 0.66 1.98 1 3 C-2 6 -5 9 -8 12 C-8 10.02 -8 8.04 -8 6 C-7.01 5.67 -6.02 5.34 -5 5 C-5 4.34 -5 3.68 -5 3 C-2.46153846 0 -2.46153846 0 0 0 Z " fill="#9B9A96" transform="translate(67,195)"/>
<path d="M0 0 C3.63 0 7.26 0 11 0 C11 0.99 11 1.98 11 3 C7.37 3 3.74 3 0 3 C0 2.01 0 1.02 0 0 Z " fill="#6B6B69" transform="translate(515,1431)"/>
<path d="M0 0 C0.66 0 1.32 0 2 0 C2.33 4.62 2.66 9.24 3 14 C2.01 14 1.02 14 0 14 C0 9.38 0 4.76 0 0 Z " fill="#C7C55B" transform="translate(77,1145)"/>
<path d="M0 0 C2.64 0 5.28 0 8 0 C8 0.66 8 1.32 8 2 C11.63 2 15.26 2 19 2 C19 2.33 19 2.66 19 3 C16.77110504 3.05428973 14.54182529 3.09292338 12.3125 3.125 C10.45044922 3.15980469 10.45044922 3.15980469 8.55078125 3.1953125 C5.18762143 3.01032021 3.0014413 2.45767895 0 1 C0 0.67 0 0.34 0 0 Z " fill="#898986" transform="translate(77,1475)"/>
<path d="M0 0 C0 1.98 0 3.96 0 6 C-0.99 6.495 -0.99 6.495 -2 7 C-2.33 7.825 -2.66 8.65 -3 9.5 C-4 12 -4 12 -6 13 C-6 11.68 -6 10.36 -6 9 C-5.34 9 -4.68 9 -4 9 C-3.17361624 6.10765685 -3 4.11257569 -3 1 C-1 0 -1 0 0 0 Z " fill="#C8BDB4" transform="translate(632,1392)"/>
<path d="M0 0 C0.99 0 1.98 0 3 0 C3.125 7.75 3.125 7.75 2 10 C1.34 10 0.68 10 0 10 C0 6.7 0 3.4 0 0 Z " fill="#A8A6A2" transform="translate(1118,698)"/>
<path d="M0 0 C1.32 0.33 2.64 0.66 4 1 C3.360625 1.61875 2.72125 2.2375 2.0625 2.875 C-0.03883584 4.82597612 -0.03883584 4.82597612 -1 7 C-2.32 7 -3.64 7 -5 7 C-4.67 6.01 -4.34 5.02 -4 4 C-3.34 4 -2.68 4 -2 4 C-2 3.34 -2 2.68 -2 2 C-1.34 2 -0.68 2 0 2 C0 1.34 0 0.68 0 0 Z " fill="#AC8A89" transform="translate(64,1328)"/>
<path d="M0 0 C0.99 0.33 1.98 0.66 3 1 C3 5.95 3 10.9 3 16 C2.67 16 2.34 16 2 16 C1.93941406 15.26394531 1.87882812 14.52789063 1.81640625 13.76953125 C1.73261719 12.79371094 1.64882812 11.81789063 1.5625 10.8125 C1.48128906 9.84957031 1.40007812 8.88664063 1.31640625 7.89453125 C1.02333849 5.21350398 0.57296246 2.6337014 0 0 Z " fill="#BAAAA3" transform="translate(1152,830)"/>
<path d="M0 0 C0 0.66 0 1.32 0 2 C-2.97 2 -5.94 2 -9 2 C-8.67 1.34 -8.34 0.68 -8 0 C-4.71585695 -0.95067299 -3.30306592 -1.10102197 0 0 Z " fill="#989885" transform="translate(1098,590)"/>
<path d="M0 0 C0.33 0 0.66 0 1 0 C1 3.3 1 6.6 1 10 C-0.98 10.99 -0.98 10.99 -3 12 C-2.67 10.68 -2.34 9.36 -2 8 C-1.34 8 -0.68 8 0 8 C0 5.36 0 2.72 0 0 Z " fill="#B4ABAA" transform="translate(57,423)"/>
<path d="M0 0 C0.99 0.33 1.98 0.66 3 1 C1.1875 3.5 1.1875 3.5 -1 6 C-1.99 6 -2.98 6 -4 6 C-3.67 5.01 -3.34 4.02 -3 3 C-2.34 3 -1.68 3 -1 3 C-0.67 2.01 -0.34 1.02 0 0 Z " fill="#958F8D" transform="translate(68,707)"/>
<path d="M0 0 C0.66 0 1.32 0 2 0 C2.1875 3.375 2.1875 3.375 2 7 C1.01 7.66 0.02 8.32 -1 9 C-0.67 6.03 -0.34 3.06 0 0 Z " fill="#C5C573" transform="translate(1163,474)"/>
<path d="M0 0 C0.99 0.33 1.98 0.66 3 1 C2.34 2.32 1.68 3.64 1 5 C0.01 5 -0.98 5 -2 5 C-1.34 3.35 -0.68 1.7 0 0 Z " fill="#979590" transform="translate(852,113)"/>
</svg>
