<?xml version="1.0" encoding="UTF-8"?>
<svg version="1.1" xmlns="http://www.w3.org/2000/svg" width="305" height="329">
<path d="M0 0 C2.55949546 1.85342775 2.97918798 2.93756393 4 6 C6.78606925 6.96724419 6.78606925 6.96724419 10.125 7.5625 C11.30191406 7.81515625 12.47882813 8.0678125 13.69140625 8.328125 C15.55079245 8.70570992 17.41174771 9.07627573 19.27734375 9.421875 C22.87279591 10.20862602 23.921337 10.89125998 26.125 13.9375 C26.74375 14.948125 27.3625 15.95875 28 17 C29.63978318 18.04349839 31.30094366 19.05607981 33 20 C33 20.66 33 21.32 33 22 C34.65 22 36.3 22 38 22 C38.99 23.98 38.99 23.98 40 26 C40.7425 25.95875 41.485 25.9175 42.25 25.875 C45 26 45 26 46.9375 27 C49.9001979 28.43645959 51.73097975 28.44868905 55 28 C56.82634432 26.83012968 58.48631156 25.52393015 60.1875 24.1796875 C63.06074349 22.3096023 65.61799544 22.2070615 69 22 C69.33 21.01 69.66 20.02 70 19 C73.11003984 17.44498008 76.2669269 18.08877255 79.6875 18.2578125 C80.450625 18.17273438 81.21375 18.08765625 82 18 C82.66 17.01 83.32 16.02 84 15 C87.8616746 14.35638757 90.32743693 14.09068077 93.7890625 15.97265625 C99.45650037 21.20735872 99.59018871 29.21428366 99.93896484 36.46289062 C100.45277236 57.82084146 100.45277236 57.82084146 97 63 C96.56313207 65.0065004 96.56313207 65.0065004 96.40234375 67.1953125 C96.32306641 67.99324219 96.24378906 68.79117188 96.16210938 69.61328125 C96.08798828 70.44214844 96.01386719 71.27101563 95.9375 72.125 C95.12149533 80.87850467 95.12149533 80.87850467 94 82 C93.83983614 84.35203598 93.72246761 86.70703279 93.625 89.0625 C93.32578765 94.92942234 92.41729852 99.63990328 90 105 C90 105.66 90 106.32 90 107 C89.93143029 108.81527358 89.85766937 110.63035243 89.78125 112.4453125 C89.71357422 114.05986328 89.71357422 114.05986328 89.64453125 115.70703125 C89.59683594 116.83496094 89.54914063 117.96289062 89.5 119.125 C89.45230469 120.26066406 89.40460938 121.39632812 89.35546875 122.56640625 C89.23735053 125.37762 89.11884471 128.18881688 89 131 C89.804375 131.144375 90.60875 131.28875 91.4375 131.4375 C94 132 94 132 95 133 C95.42040613 138.27951886 95.54677703 143.22479306 93 148 C93.61875 148.185625 94.2375 148.37125 94.875 148.5625 C97.41709659 150.28215357 98.00123311 151.74918668 98.69140625 154.69921875 C99.94388091 164.03728929 98.85527072 173.66838553 98 183 C98.639375 183.28875 99.27875 183.5775 99.9375 183.875 C102 185 102 185 103 187 C103.08426094 188.6674606 103.10725143 190.33825187 103.09765625 192.0078125 C103.09443359 192.99394531 103.09121094 193.98007813 103.08789062 194.99609375 C103.07951172 196.02863281 103.07113281 197.06117188 103.0625 198.125 C103.05798828 199.16527344 103.05347656 200.20554688 103.04882812 201.27734375 C103.03701952 203.85161962 103.02055075 206.42578146 103 209 C102.01 209.33 101.02 209.66 100 210 C99.78199512 215.47434478 100.00729208 220.60302453 101 226 C101.99270792 231.39697547 102.21800488 236.52565522 102 242 C100.02 242.99 100.02 242.99 98 244 C98.0309375 245.2065625 98.0309375 245.2065625 98.0625 246.4375 C98 249 98 249 97 250 C96.9175 251.0725 96.835 252.145 96.75 253.25 C95.84922898 257.75385508 94.38676784 259.0164188 91 262 C90.46375 262.763125 89.9275 263.52625 89.375 264.3125 C88.694375 265.1478125 88.694375 265.1478125 88 266 C87.01 266 86.02 266 85 266 C85.00888245 266.55266037 85.01776489 267.10532074 85.0269165 267.67472839 C85.11549906 273.43351892 85.17577921 279.19211551 85.21972656 284.95141602 C85.23982586 287.0999335 85.26710993 289.2483964 85.30175781 291.39672852 C85.35034913 294.48727905 85.37298579 297.57710555 85.390625 300.66796875 C85.41127014 301.62648239 85.43191528 302.58499603 85.45318604 303.57255554 C85.4546344 307.88976149 85.37774657 310.35310147 83.16308594 314.14575195 C81 316 81 316 78 316 C77.87625 316.61875 77.7525 317.2375 77.625 317.875 C77 320 77 320 75 322 C72.37325147 322.2002454 69.87491598 322.2782249 67.25 322.25 C66.54617188 322.25773437 65.84234375 322.26546875 65.1171875 322.2734375 C60.66467344 322.2568854 57.22175317 321.53199353 53 320 C51.21603365 319.73366136 49.42283846 319.52077069 47.625 319.375 C46.31402344 319.26285156 46.31402344 319.26285156 44.9765625 319.1484375 C44.32429687 319.09945313 43.67203125 319.05046875 43 319 C42.67 319.99 42.34 320.98 42 322 C39.93816367 322.08150744 37.87538651 322.1394194 35.8125 322.1875 C34.66394531 322.22230469 33.51539063 322.25710938 32.33203125 322.29296875 C28.70842376 321.97436317 26.85360856 321.21947332 24 319 C24 318.34 24 317.68 24 317 C22.89140625 317.06960938 21.7828125 317.13921875 20.640625 317.2109375 C19.177144 317.26722523 17.71359738 317.32182432 16.25 317.375 C15.52039063 317.42527344 14.79078125 317.47554688 14.0390625 317.52734375 C11.890625 317.5859375 11.890625 317.5859375 8 317 C7.05640625 315.53046875 7.05640625 315.53046875 6.09375 314.03125 C4.38623549 310.87066373 4.38623549 310.87066373 1.92089844 310.41259766 C-0.64993236 310.1862384 -3.16935126 310.11737622 -5.75 310.125 C-6.63816406 310.104375 -7.52632812 310.08375 -8.44140625 310.0625 C-10.62854194 310.01546482 -12.81246268 309.9955512 -15 310 C-15.33 309.01 -15.66 308.02 -16 307 C-18.33406663 306.91794297 -20.66516394 306.8590195 -23 306.8125 C-24.9490625 306.76029297 -24.9490625 306.76029297 -26.9375 306.70703125 C-29.92846917 306.77595421 -32.13860019 307.32953396 -34.890625 308.48828125 C-39.51699726 310.39615104 -43.79652556 310.4449863 -48.75 310.375 C-49.58660156 310.38660156 -50.42320312 310.39820313 -51.28515625 310.41015625 C-55.96228711 310.38777763 -58.37582814 310.14581361 -62 307 C-64.54633551 306.46628933 -64.54633551 306.46628933 -67.1875 306.375 C-71.91575663 306.08424337 -71.91575663 306.08424337 -73 305 C-79.13102666 303.68620857 -83.64783195 303.94968171 -89.421875 306.234375 C-93.90290845 307.56510615 -98.50882053 307.580524 -103.15625 307.7890625 C-105.89899664 307.68137565 -105.89899664 307.68137565 -107 309 C-109.67058851 309.14115161 -112.32432238 309.04247107 -115 309 C-115.144375 309.639375 -115.28875 310.27875 -115.4375 310.9375 C-116 313 -116 313 -117 314 C-119.33297433 314.04092937 -121.66705225 314.04241723 -124 314 C-124 314.66 -124 315.32 -124 316 C-124.94359375 315.94779297 -124.94359375 315.94779297 -125.90625 315.89453125 C-131.17926308 315.72776427 -135.1470592 316.12130132 -139.98828125 318.203125 C-142.89444297 319.35430362 -145.86674331 319.94390061 -148.921875 320.5703125 C-150.96425914 320.99260997 -152.98016441 321.48139356 -155 322 C-155 322.66 -155 323.32 -155 324 C-158.3 324 -161.6 324 -165 324 C-165.33 325.32 -165.66 326.64 -166 328 C-167 329 -167 329 -170.25 329.375 C-174 329 -174 329 -176.75 326.8125 C-182 320.25 -182 320.25 -182 316 C-182.99 315.67 -183.98 315.34 -185 315 C-185.05534912 314.15703369 -185.11069824 313.31406738 -185.16772461 312.44555664 C-185.3746505 309.32745699 -185.58569117 306.2096715 -185.79956055 303.09204102 C-185.8913909 301.74091591 -185.98156498 300.38967719 -186.07006836 299.03833008 C-186.19733406 297.09948332 -186.33098983 295.16105931 -186.46484375 293.22265625 C-186.543396 292.05484619 -186.62194824 290.88703613 -186.70288086 289.68383789 C-186.70770973 287.08395465 -186.70770973 287.08395465 -188 286 C-188.2045476 282.29162775 -188.34631956 278.58980384 -188.4296875 274.87695312 C-188.63026651 269.76636718 -189.56169551 266.57182092 -192 262 C-192.6953125 258.421875 -192.6953125 258.421875 -193.125 254.75 C-193.54253892 250.22111642 -193.54253892 250.22111642 -195 246 C-195.06950541 244.45976004 -195.08452357 242.91665012 -195.0625 241.375 C-195.05347656 240.55773437 -195.04445312 239.74046875 -195.03515625 238.8984375 C-195.02355469 238.27195313 -195.01195312 237.64546875 -195 237 C-194.01 236.67 -193.02 236.34 -192 236 C-191.95101562 235.10796875 -191.90203125 234.2159375 -191.8515625 233.296875 C-191.77679688 232.12640625 -191.70203125 230.9559375 -191.625 229.75 C-191.55539063 228.58984375 -191.48578125 227.4296875 -191.4140625 226.234375 C-191.03751692 223.29305666 -190.5225877 221.50050989 -189 219 C-189.99 218.67 -190.98 218.34 -192 218 C-192.05519204 216.18786143 -192.09331732 214.37520201 -192.125 212.5625 C-192.14820313 211.55316406 -192.17140625 210.54382813 -192.1953125 209.50390625 C-192.03711553 206.66585266 -191.6779196 204.42752916 -191.0078125 201.703125 C-189.8503864 196.82701744 -189.70246993 192.1821182 -189.75 187.1875 C-189.74226562 186.35541016 -189.73453125 185.52332031 -189.7265625 184.66601562 C-189.73042969 183.46041992 -189.73042969 183.46041992 -189.734375 182.23046875 C-189.73663086 181.51270264 -189.73888672 180.79493652 -189.74121094 180.05541992 C-190.03996231 177.68260126 -190.92421931 176.12303495 -192 174 C-193.36846511 166.79720867 -193.15311979 159.30177174 -193.125 152 C-193.12886719 150.96488281 -193.13273438 149.92976562 -193.13671875 148.86328125 C-193.13542969 147.87714844 -193.13414062 146.89101562 -193.1328125 145.875 C-193.13168457 144.98554688 -193.13055664 144.09609375 -193.12939453 143.1796875 C-193 141 -193 141 -192 139 C-191.77186333 135.0008984 -191.90608025 131.0027705 -192 127 C-192.01675781 125.81535156 -192.03351563 124.63070312 -192.05078125 123.41015625 C-192.31437363 116.47391113 -193.13111057 112.03315645 -196.91796875 106.23828125 C-198.92608196 102.08431422 -198.56248802 97.49990417 -198 93 C-197.505 92.505 -197.505 92.505 -197 92 C-196.63239269 89.67182036 -196.29758419 87.3381615 -196 85 C-196.99 84.67 -197.98 84.34 -199 84 C-199.07347656 82.53626953 -199.07347656 82.53626953 -199.1484375 81.04296875 C-199.22320312 79.77066406 -199.29796875 78.49835938 -199.375 77.1875 C-199.44460937 75.92292969 -199.51421875 74.65835938 -199.5859375 73.35546875 C-199.76102939 69.87244766 -199.76102939 69.87244766 -202 67 C-202.59616318 62.28228558 -202.66107855 57.71230354 -202 53 C-199.1875 50.4375 -199.1875 50.4375 -196 49 C-194.94895617 47.36504293 -193.94011682 45.70116376 -193 44 C-190 42 -190 42 -186 42 C-185.67 40.68 -185.34 39.36 -185 38 C-183.741875 37.938125 -182.48375 37.87625 -181.1875 37.8125 C-178.98301356 37.61730333 -178.98301356 37.61730333 -177 37 C-175.30117552 34.50240018 -175.30117552 34.50240018 -174 32 C-171.3125 31.6875 -171.3125 31.6875 -169 32 C-168.9175 31.21625 -168.835 30.4325 -168.75 29.625 C-168 27 -168 27 -166.41015625 25.9375 C-163.23552403 24.70263495 -160.02345785 24.00249688 -156.6875 23.375 C-155.99269531 23.24311279 -155.29789063 23.11122559 -154.58203125 22.9753418 C-147.36061132 21.71501501 -140.31279808 21.71631387 -133 22 C-132.505 23.485 -132.505 23.485 -132 25 C-130.88625 24.938125 -129.7725 24.87625 -128.625 24.8125 C-125.22340922 24.8005855 -122.53001315 25.35270833 -119.3125 26.4375 C-113.45499825 28.32936392 -107.16237369 29.61364451 -101 29 C-99.23000097 27.14539342 -99.23000097 27.14539342 -98 25 C-95.06159553 23.53079777 -93.30252488 23 -90 23 C-90 22.34 -90 21.68 -90 21 C-83.75709852 19.1153505 -77.52131155 18.0582578 -71 19 C-68.671875 20.51953125 -68.671875 20.51953125 -67 22 C-66.34 20.68 -65.68 19.36 -65 18 C-63.75863281 18.02320312 -62.51726562 18.04640625 -61.23828125 18.0703125 C-59.5963602 18.08907731 -57.95443262 18.10727675 -56.3125 18.125 C-55.49587891 18.14175781 -54.67925781 18.15851562 -53.83789062 18.17578125 C-49.37734203 18.21189905 -46.09002127 17.97345409 -42 16 C-40.9275 15.835 -39.855 15.67 -38.75 15.5 C-37.8425 15.335 -36.935 15.17 -36 15 C-35.67 14.34 -35.34 13.68 -35 13 C-32.7225093 12.58061552 -30.42574456 12.26347995 -28.125 12 C-22.73175439 11.44034945 -22.73175439 11.44034945 -18 9 C-17.01 8.731875 -16.02 8.46375 -15 8.1875 C-11.35414533 6.74434919 -10.77897241 5.38851888 -9 2 C-5.53076119 -0.31282587 -4.07794425 -0.42478586 0 0 Z " fill="#3C482E" transform="translate(202,0)"/>
<path d="M0 0 C0.89203125 0.00902344 1.7840625 0.01804687 2.703125 0.02734375 C3.37859375 0.03894531 4.0540625 0.05054688 4.75 0.0625 C4.75 0.3925 4.75 0.7225 4.75 1.0625 C3.37714844 1.10117188 3.37714844 1.10117188 1.9765625 1.140625 C0.19378906 1.22570312 0.19378906 1.22570312 -1.625 1.3125 C-3.40003906 1.38210938 -3.40003906 1.38210938 -5.2109375 1.453125 C-8.36291753 1.71898799 -8.36291753 1.71898799 -9.6640625 4.109375 C-9.85742188 4.75390625 -10.05078125 5.3984375 -10.25 6.0625 C-10.9925 6.02125 -11.735 5.98 -12.5 5.9375 C-15.19188565 5.85678525 -15.19188565 5.85678525 -17.05859375 7.05859375 C-23.15747403 9.85255495 -31.78471113 8.23800707 -38.25 7.0625 C-38.58 8.0525 -38.91 9.0425 -39.25 10.0625 C-39.91 10.0625 -40.57 10.0625 -41.25 10.0625 C-40.59 8.7425 -39.93 7.4225 -39.25 6.0625 C-38.00863281 6.08570313 -36.76726562 6.10890625 -35.48828125 6.1328125 C-33.8463602 6.15157731 -32.20443262 6.16977675 -30.5625 6.1875 C-29.74587891 6.20425781 -28.92925781 6.22101562 -28.08789062 6.23828125 C-23.62734203 6.27439905 -20.34002127 6.03595409 -16.25 4.0625 C-15.1775 3.8975 -14.105 3.7325 -13 3.5625 C-11.63875 3.315 -11.63875 3.315 -10.25 3.0625 C-9.92 2.4025 -9.59 1.7425 -9.25 1.0625 C-6.16857132 -0.04098459 -3.24765038 -0.04273224 0 0 Z " fill="#747864" transform="translate(176.25,11.9375)"/>
<path d="M0 0 C0.33 0 0.66 0 1 0 C1.03738281 0.77085937 1.07476562 1.54171875 1.11328125 2.3359375 C1.17902344 3.33882812 1.24476562 4.34171875 1.3125 5.375 C1.37050781 6.37273437 1.42851562 7.37046875 1.48828125 8.3984375 C1.65714844 9.25695312 1.82601563 10.11546875 2 11 C2.99 11.66 3.98 12.32 5 13 C4.34 16.3 3.68 19.6 3 23 C2.34 23 1.68 23 1 23 C0.82057837 19.05272412 0.90649311 16.4019487 3 13 C2.01 12.67 1.02 12.34 0 12 C0 8.04 0 4.08 0 0 Z " fill="#7A7D6A" transform="translate(10,206)"/>
<path d="M0 0 C0.99 0 1.98 0 3 0 C1.63016497 3.16115776 1.0109362 3.9927092 -2 6 C-1.125 1.125 -1.125 1.125 0 0 Z " fill="#676D58" transform="translate(35,26)"/>
</svg>
