<?xml version="1.0" encoding="UTF-8"?>
<svg version="1.1" xmlns="http://www.w3.org/2000/svg" width="277" height="209">
<path d="M0 0 C2.06298828 -0.34057617 2.06298828 -0.34057617 4.5703125 -0.29296875 C5.46621094 -0.28330078 6.36210937 -0.27363281 7.28515625 -0.26367188 C8.69087891 -0.2259668 8.69087891 -0.2259668 10.125 -0.1875 C11.06988281 -0.17396484 12.01476562 -0.16042969 12.98828125 -0.14648438 C15.32608779 -0.11106306 17.66276237 -0.06167271 20 0 C20.33 0.66 20.66 1.32 21 2 C23.54384467 2.83833204 23.54384467 2.83833204 26.5 3.5 C29.53125 4.21875 29.53125 4.21875 32 5 C32.33 5.66 32.66 6.32 33 7 C33.60943451 6.99777939 34.21886902 6.99555878 34.84677124 6.99327087 C41.17290665 6.9711979 47.49903118 6.95608495 53.82519531 6.94506836 C56.18815556 6.94003041 58.55111268 6.93319992 60.9140625 6.92456055 C64.30469535 6.91247146 67.69528709 6.90676641 71.0859375 6.90234375 C72.14743011 6.89718246 73.20892273 6.89202118 74.30258179 6.88670349 C75.77388046 6.88659019 75.77388046 6.88659019 77.27490234 6.88647461 C78.14094086 6.884254 79.00697937 6.88203339 79.89926147 6.87974548 C82 7 82 7 84 8 C84 8.66 84 9.32 84 10 C84.99 10.33 85.98 10.66 87 11 C87 11.66 87 12.32 87 13 C87.66 13 88.32 13 89 13 C88.99476318 13.79172607 88.98952637 14.58345215 88.98413086 15.39916992 C88.96331063 18.99527184 88.95032373 22.59136105 88.9375 26.1875 C88.92912109 27.43337891 88.92074219 28.67925781 88.91210938 29.96289062 C88.90888672 31.16494141 88.90566406 32.36699219 88.90234375 33.60546875 C88.89710693 34.71043701 88.89187012 35.81540527 88.88647461 36.95385742 C88.99098077 39.75799379 89.35902041 42.27417329 90 45 C90.66 45 91.32 45 92 45 C92.23783203 46.73636719 92.23783203 46.73636719 92.48046875 48.5078125 C92.71510615 50.04703385 92.95084167 51.58608808 93.1875 53.125 C93.28869141 53.88554688 93.38988281 54.64609375 93.49414062 55.4296875 C94.13466844 59.44597001 94.75178052 62.07578424 97.59375 65.0625 C100.57862412 68.7063723 100.59519871 71.38661437 100.3125 75.875 C100.28994141 76.56335938 100.26738281 77.25171875 100.24414062 77.9609375 C100.1857849 79.64158245 100.09612071 81.32109153 100 83 C99.34 83 98.68 83 98 83 C98 96.86 98 110.72 98 125 C98.66 125.33 99.32 125.66 100 126 C100.02468857 130.5206665 100.04285449 135.0412939 100.05493164 139.56201172 C100.05996552 141.10043013 100.06679308 142.63884375 100.07543945 144.17724609 C100.08754639 146.38640526 100.09323769 148.59550126 100.09765625 150.8046875 C100.10281754 151.49432587 100.10797882 152.18396423 100.11329651 152.89450073 C100.11387171 157.77225659 100.11387171 157.77225659 99 160 C98.83340906 163.78346536 98.70307032 167.56086491 98.65820312 171.34765625 C98.44563737 177.40825202 98.44563737 177.40825202 96.09375 180.53125 C93.98853631 182.00804169 92.48286214 182.48630438 90 183 C89.67 183.66 89.34 184.32 89 185 C83.99650794 186.77193731 79.38573856 187.34235016 74.0625 187.625 C73.03672852 187.68300781 73.03672852 187.68300781 71.99023438 187.7421875 C70.32720487 187.83522412 68.66364153 187.91863787 67 188 C67 188.66 67 189.32 67 190 C65.56445975 190.50559908 64.1264798 191.0042749 62.6875 191.5 C61.48673828 191.91765625 61.48673828 191.91765625 60.26171875 192.34375 C58 193 58 193 55 193 C55 193.66 55 194.32 55 195 C54.01 195 53.02 195 52 195 C52 195.66 52 196.32 52 197 C49.03 197.33 46.06 197.66 43 198 C43 198.66 43 199.32 43 200 C39.45835085 200.0292067 35.91673303 200.04686814 32.375 200.0625 C31.37597656 200.07087891 30.37695312 200.07925781 29.34765625 200.08789062 C21.62405996 200.11346545 21.62405996 200.11346545 17.90625 199.4375 C13.56931397 198.78462791 9.45795808 199.41219409 5.125 199.9375 C4.24585938 200.03740234 3.36671875 200.13730469 2.4609375 200.24023438 C0.30643877 200.48612825 -1.84691076 200.74205565 -4 201 C-4 201.66 -4 202.32 -4 203 C-4.67546875 203.13277344 -5.3509375 203.26554688 -6.046875 203.40234375 C-7.38492188 203.66724609 -7.38492188 203.66724609 -8.75 203.9375 C-9.63171875 204.11152344 -10.5134375 204.28554687 -11.421875 204.46484375 C-12.92434971 204.77672108 -14.42247484 205.1166701 -15.90161133 205.52514648 C-18.05515363 206.01248096 -19.94744668 206.12926643 -22.15234375 206.1328125 C-23.31733398 206.13474609 -23.31733398 206.13474609 -24.50585938 206.13671875 C-25.30830078 206.13285156 -26.11074219 206.12898437 -26.9375 206.125 C-28.13536133 206.13080078 -28.13536133 206.13080078 -29.35742188 206.13671875 C-33.36995566 206.13006998 -37.08442668 205.99669139 -41 205 C-41 205.66 -41 206.32 -41 207 C-44.582906 207.14533755 -48.16505417 207.23407931 -51.75 207.3125 C-53.27367188 207.3753418 -53.27367188 207.3753418 -54.828125 207.43945312 C-62.34726754 207.56312323 -62.34726754 207.56312323 -65.703125 204.66796875 C-67 202 -67 202 -67 199 C-75.75633739 196.6351788 -84.39607679 196.79900501 -93.375 196.9375 C-95.54919559 196.96523824 -97.72332161 196.98990274 -99.89761353 197.00868225 C-101.85417736 197.02637817 -103.81064613 197.05380206 -105.76708984 197.08178711 C-108.41532277 197.01479134 -110.4974747 196.79931989 -113 196 C-113 195.34 -113 194.68 -113 194 C-119.15781799 193.80451371 -125.1348782 193.87913006 -131 196 C-131.33 196.66 -131.66 197.32 -132 198 C-134.06640625 198.4140625 -134.06640625 198.4140625 -136.5625 198.625 C-137.38878906 198.69976562 -138.21507812 198.77453125 -139.06640625 198.8515625 C-139.70449219 198.90054688 -140.34257812 198.94953125 -141 199 C-141 199.66 -141 200.32 -141 201 C-147.54481472 203.01378914 -154.16175187 203.94215863 -161 203 C-162.85546875 201.66796875 -162.85546875 201.66796875 -164 200 C-164 199.01 -164 198.02 -164 197 C-164.66 197 -165.32 197 -166 197 C-168.75088105 186.47542384 -170.40296598 176.40670753 -170.4375 165.5 C-170.44716797 164.50347412 -170.45683594 163.50694824 -170.46679688 162.48022461 C-170.38382683 155.42350064 -170.38382683 155.42350064 -168.50488281 153.3503418 C-167.75996582 152.68192261 -167.75996582 152.68192261 -167 152 C-166.42676193 149.72838745 -166.42676193 149.72838745 -166.3125 147.3125 C-166.24675781 146.50425781 -166.18101562 145.69601563 -166.11328125 144.86328125 C-166.07589844 144.24839844 -166.03851563 143.63351563 -166 143 C-165.34 143 -164.68 143 -164 143 C-164 141.35 -164 139.7 -164 138 C-163.34 138 -162.68 138 -162 138 C-162.08678763 135.70760939 -162.19495273 133.4160193 -162.3125 131.125 C-162.37050781 129.84882813 -162.42851562 128.57265625 -162.48828125 127.2578125 C-162.74158203 125.64519531 -162.74158203 125.64519531 -163 124 C-163.99 123.34 -164.98 122.68 -166 122 C-166.24869641 119.08669922 -166.32634278 116.40579705 -166.25 113.5 C-166.24484375 112.71496094 -166.2396875 111.92992188 -166.234375 111.12109375 C-166.15462412 105.30924824 -166.15462412 105.30924824 -165 103 C-164.34 103 -163.68 103 -163 103 C-163.33 102.01 -163.66 101.02 -164 100 C-164.08106686 98.44578271 -164.10756898 96.88832973 -164.09765625 95.33203125 C-164.09443359 94.43935547 -164.09121094 93.54667969 -164.08789062 92.62695312 C-164.07951172 91.69818359 -164.07113281 90.76941406 -164.0625 89.8125 C-164.05798828 88.87212891 -164.05347656 87.93175781 -164.04882812 86.96289062 C-164.03704626 84.64186288 -164.02059558 82.32096356 -164 80 C-164.66 80 -165.32 80 -166 80 C-166.33776684 78.2508503 -166.67003671 76.50063855 -167 74.75 C-167.185625 73.77546875 -167.37125 72.8009375 -167.5625 71.796875 C-168 69 -168 69 -168 65 C-168.66 65 -169.32 65 -170 65 C-170.27714844 63.94039062 -170.55429688 62.88078125 -170.83984375 61.7890625 C-171.205614 60.40101131 -171.57150572 59.01299213 -171.9375 57.625 C-172.21110352 56.57699219 -172.21110352 56.57699219 -172.49023438 55.5078125 C-173.48512509 51.66044902 -173.48512509 51.66044902 -175 48 C-175.09503971 46.58713615 -175.13072853 45.1699615 -175.1328125 43.75390625 C-175.13410156 42.91666016 -175.13539063 42.07941406 -175.13671875 41.21679688 C-175.13285156 40.34087891 -175.12898437 39.46496094 -175.125 38.5625 C-175.12886719 37.69044922 -175.13273438 36.81839844 -175.13671875 35.91992188 C-175.13542969 35.08138672 -175.13414062 34.24285156 -175.1328125 33.37890625 C-175.13168457 32.6113501 -175.13055664 31.84379395 -175.12939453 31.05297852 C-174.95665715 28.31232069 -174.36538891 26.44843185 -172.625 24.3125 C-171 23 -171 23 -168 23 C-168 22.34 -168 21.68 -168 21 C-167.0934668 21.01571045 -166.18693359 21.0314209 -165.25292969 21.04760742 C-161.83099439 21.09928972 -158.40948459 21.13661492 -154.98730469 21.16479492 C-153.51718527 21.17971429 -152.047109 21.20005727 -150.57714844 21.22631836 C-142.28014199 21.37063873 -134.64447588 21.13420909 -126.62207031 18.67407227 C-121.17582166 17.27397054 -114.35373772 17.01542481 -109 19 C-108.01 20.485 -108.01 20.485 -107 22 C-104.82145934 22.3723049 -104.82145934 22.3723049 -102.31640625 22.1796875 C-101.38892578 22.1384375 -100.46144531 22.0971875 -99.50585938 22.0546875 C-98.53455078 21.99539062 -97.56324219 21.93609375 -96.5625 21.875 C-95.59505859 21.83890625 -94.62761719 21.8028125 -93.63085938 21.765625 C-88.6131191 21.84176211 -88.6131191 21.84176211 -84.55517578 19.47753906 C-82.24187279 17.27971964 -80.43376271 17.67455677 -77.30078125 17.7421875 C-75.60985352 17.76345703 -75.60985352 17.76345703 -73.88476562 17.78515625 C-72.11649414 17.82962891 -72.11649414 17.82962891 -70.3125 17.875 C-59.60490605 18.19661 -59.60490605 18.19661 -49 17 C-48.67 16.34 -48.34 15.68 -48 15 C-42.70668247 12.02515555 -36.55345446 12.61473836 -30.65625 12.52148438 C-24.76533211 12.3385089 -19.3720403 11.56494746 -14 9 C-13.505 8.319375 -13.01 7.63875 -12.5 6.9375 C-10.26310963 4.04818327 -7.56276122 4.10194704 -4.05859375 3.58984375 C-1.62029558 3.13144182 -1.62029558 3.13144182 0 0 Z " fill="#3B482D" transform="translate(176,1)"/>
</svg>
