<?xml version="1.0" encoding="UTF-8"?>
<svg version="1.1" xmlns="http://www.w3.org/2000/svg" width="301" height="219">
<path d="M0 0 C3.03353875 0.41533014 4.94666657 0.04852223 7.91015625 -0.6015625 C10.3468239 -0.66857756 12.78517367 -0.68684271 15.22265625 -0.6640625 C16.47691406 -0.65503906 17.73117188 -0.64601562 19.0234375 -0.63671875 C19.97605469 -0.62511719 20.92867188 -0.61351563 21.91015625 -0.6015625 C21.91015625 0.0584375 21.91015625 0.7184375 21.91015625 1.3984375 C23.54984375 1.15287109 23.54984375 1.15287109 25.22265625 0.90234375 C30.45469883 0.24833843 35.64509287 0.28873348 40.91015625 0.3359375 C41.87566406 0.34044922 42.84117188 0.34496094 43.8359375 0.34960938 C46.19407714 0.36128333 48.55208227 0.37765729 50.91015625 0.3984375 C50.91015625 -0.2615625 50.91015625 -0.9215625 50.91015625 -1.6015625 C60.35685693 -1.71299147 69.78238755 -1.61404542 79.22265625 -1.2265625 C80.57363403 -1.1802771 80.57363403 -1.1802771 81.9519043 -1.13305664 C82.80051025 -1.0943042 83.64911621 -1.05555176 84.5234375 -1.015625 C85.27407471 -0.9842041 86.02471191 -0.9527832 86.7980957 -0.92041016 C88.91015625 -0.6015625 88.91015625 -0.6015625 90.84448242 0.42529297 C93.51334918 1.68260332 95.41114854 1.53322385 98.34765625 1.3828125 C99.40251221 1.34534912 100.45736816 1.30788574 101.54418945 1.26928711 C102.6549585 1.22940674 103.76572754 1.18952637 104.91015625 1.1484375 C115.11096729 0.93353789 121.33010386 1.73591663 129.91015625 7.3984375 C135.20229692 9.09666174 139.90913214 9.05348612 144.91015625 6.5859375 C150.20999615 3.99998113 155.70070162 3.11614047 161.45703125 2.109375 C164.52021149 1.47872024 167.02852679 0.56038486 169.91015625 -0.6015625 C175.44898155 -1.89614001 181.00490138 -1.74977148 186.66015625 -1.7265625 C187.61792969 -1.73042969 188.57570313 -1.73429688 189.5625 -1.73828125 C190.93341797 -1.73634766 190.93341797 -1.73634766 192.33203125 -1.734375 C193.1631543 -1.73324707 193.99427734 -1.73211914 194.85058594 -1.73095703 C196.91015625 -1.6015625 196.91015625 -1.6015625 198.91015625 -0.6015625 C198.91015625 0.0584375 198.91015625 0.7184375 198.91015625 1.3984375 C200.163125 1.45902344 201.41609375 1.51960937 202.70703125 1.58203125 C204.35808349 1.66646006 206.0091246 1.75110689 207.66015625 1.8359375 C208.89765625 1.89491211 208.89765625 1.89491211 210.16015625 1.95507812 C211.35898437 2.01791992 211.35898437 2.01791992 212.58203125 2.08203125 C213.31518555 2.11868896 214.04833984 2.15534668 214.80371094 2.19311523 C218.12526075 2.5168778 220.36047859 3.00243317 223.08984375 4.96875 C225.53276148 8.22946851 225.738823 11.33437352 226.03515625 15.2734375 C226.46914996 20.25051434 227.28179293 24.65956792 228.91015625 29.3984375 C229.140625 31.84765625 229.140625 31.84765625 229.09765625 34.0859375 C229.09121094 34.83230469 229.08476562 35.57867187 229.078125 36.34765625 C228.91015625 38.3984375 228.91015625 38.3984375 227.91015625 41.3984375 C227.25015625 41.3984375 226.59015625 41.3984375 225.91015625 41.3984375 C225.58015625 43.0484375 225.25015625 44.6984375 224.91015625 46.3984375 C224.25015625 46.3984375 223.59015625 46.3984375 222.91015625 46.3984375 C222.78898437 47.12289062 222.6678125 47.84734375 222.54296875 48.59375 C221.91272409 51.38705658 220.97216552 53.67529833 219.78515625 56.2734375 C217.46829395 61.8857646 218.00904079 65.69509111 219.91015625 71.3984375 C220.41641574 78.60289952 220.73839505 85.10918805 216.91015625 91.3984375 C214.78515625 93.1484375 214.78515625 93.1484375 212.91015625 94.3984375 C212.58015625 95.3884375 212.25015625 96.3784375 211.91015625 97.3984375 C211.08515625 98.0378125 210.26015625 98.6771875 209.41015625 99.3359375 C206.86871288 101.14049697 206.86871288 101.14049697 205.97265625 103.3359375 C205.88750429 106.1459523 206.63260194 107.9072066 207.91015625 110.3984375 C208.42578125 110.8934375 208.94140625 111.3884375 209.47265625 111.8984375 C211.3960896 113.90549839 211.5448421 115.69511276 211.91015625 118.3984375 C212.63203125 118.5221875 213.35390625 118.6459375 214.09765625 118.7734375 C218.38577756 119.72635335 222.27927071 120.7121824 224.91015625 124.3984375 C225.12736635 127.04840076 225.19367179 129.44920308 225.09765625 132.0859375 C225.07735352 133.1387793 225.07735352 133.1387793 225.05664062 134.21289062 C225.02135807 135.94173579 224.96755208 137.67018515 224.91015625 139.3984375 C224.25015625 139.3984375 223.59015625 139.3984375 222.91015625 139.3984375 C222.95140625 140.6359375 222.99265625 141.8734375 223.03515625 143.1484375 C223.04673916 146.41481712 222.76702645 148.6131322 220.91015625 151.3984375 C220.25015625 151.3984375 219.59015625 151.3984375 218.91015625 151.3984375 C218.91015625 152.3884375 218.91015625 153.3784375 218.91015625 154.3984375 C218.25015625 154.7284375 217.59015625 155.0584375 216.91015625 155.3984375 C215.77665091 157.41513577 215.77665091 157.41513577 214.91015625 159.3984375 C215.90015625 159.7284375 216.89015625 160.0584375 217.91015625 160.3984375 C217.91015625 161.0584375 217.91015625 161.7184375 217.91015625 162.3984375 C218.90015625 162.3984375 219.89015625 162.3984375 220.91015625 162.3984375 C223.59441312 164.39602401 225.57224638 165.97807057 226.37109375 169.3359375 C226.56096186 173.19172075 226.12125543 175.06067881 224.03515625 178.3984375 C221.91015625 180.3984375 221.91015625 180.3984375 219.91015625 180.3984375 C220.24015625 182.3784375 220.57015625 184.3584375 220.91015625 186.3984375 C221.57015625 186.3984375 222.23015625 186.3984375 222.91015625 186.3984375 C223.30203125 187.3059375 223.69390625 188.2134375 224.09765625 189.1484375 C226.00038089 192.56021961 227.8052545 194.11061516 230.91015625 196.3984375 C232.55423479 199.68659458 232.67762123 202.87056766 231.91015625 206.3984375 C230.0538517 209.13739475 227.81989434 210.84943535 224.91015625 212.3984375 C220.89925205 213.13409674 217.03500917 213.01299524 212.97265625 212.8359375 C211.92658203 212.81724609 210.88050781 212.79855469 209.80273438 212.77929688 C204.10292635 212.6467432 198.55422574 212.17565363 192.91015625 211.3984375 C186.86755262 210.8778177 182.02745249 211.17522542 176.34765625 213.3984375 C171.01890629 215.35579533 166.27642045 215.81292238 160.66015625 215.8359375 C159.54338501 215.85043945 159.54338501 215.85043945 158.40405273 215.86523438 C154.58044552 215.807449 151.70335488 215.35547687 148.15527344 213.90332031 C143.93340036 212.2612938 140.18902777 211.92763377 135.69140625 211.88671875 C134.9480603 211.86876755 134.20471436 211.85081635 133.43884277 211.83232117 C131.09600271 211.77872285 128.7533602 211.7444877 126.41015625 211.7109375 C124.80856653 211.67771958 123.20700274 211.64322587 121.60546875 211.60742188 C117.70717514 211.52302684 113.80893494 211.45597818 109.91015625 211.3984375 C109.58015625 210.7384375 109.25015625 210.0784375 108.91015625 209.3984375 C107.92619873 209.36085327 107.92619873 209.36085327 106.92236328 209.32250977 C103.95975442 209.2067049 100.99747594 209.08390864 98.03515625 208.9609375 C97.00261719 208.92162109 95.97007812 208.88230469 94.90625 208.84179688 C93.92011719 208.79990234 92.93398437 208.75800781 91.91796875 208.71484375 C90.55115967 208.65985718 90.55115967 208.65985718 89.15673828 208.60375977 C86.91015625 208.3984375 86.91015625 208.3984375 84.91015625 207.3984375 C84.91015625 208.0584375 84.91015625 208.7184375 84.91015625 209.3984375 C83.92015625 209.3984375 82.93015625 209.3984375 81.91015625 209.3984375 C81.91015625 210.0584375 81.91015625 210.7184375 81.91015625 211.3984375 C72.36575539 211.9169462 72.36575539 211.9169462 68.22265625 209.8359375 C64.14852046 208.06791631 62.25812868 208.71377663 57.91015625 209.3984375 C55.13060654 209.499676 52.37667455 209.5621662 49.59765625 209.56640625 C48.82510498 209.56973465 48.05255371 209.57306305 47.2565918 209.57649231 C45.63298126 209.5815256 44.00936051 209.58390176 42.38574219 209.58374023 C39.91714344 209.5859313 37.44898895 209.6041376 34.98046875 209.62304688 C33.39453276 209.62598075 31.80859467 209.62796559 30.22265625 209.62890625 C29.49328857 209.63609177 28.7639209 209.64327728 28.01245117 209.65068054 C23.30897299 209.62993749 19.38436737 208.78606694 14.91015625 207.3984375 C12.05290186 207.0457094 9.22521982 207.06602787 6.34765625 207.0859375 C5.56116699 207.08722656 4.77467773 207.08851563 3.96435547 207.08984375 C-2.19140311 207.18963315 -7.83133069 208.24313577 -13.80859375 209.73046875 C-18.90787229 210.76853617 -23.91242879 210.65446351 -29.08984375 210.3984375 C-29.08984375 209.7384375 -29.08984375 209.0784375 -29.08984375 208.3984375 C-30.07984375 208.3984375 -31.06984375 208.3984375 -32.08984375 208.3984375 C-32.08984375 207.7384375 -32.08984375 207.0784375 -32.08984375 206.3984375 C-32.8890625 206.41003906 -33.68828125 206.42164063 -34.51171875 206.43359375 C-40.22989163 206.48057404 -45.94111332 206.45125243 -51.65234375 206.1484375 C-52.60238281 206.10203125 -53.55242188 206.055625 -54.53125 206.0078125 C-57.81332506 205.22612745 -59.06995768 204.07278549 -61.08984375 201.3984375 C-61.59740222 198.61701707 -61.28012889 196.2527146 -61.08984375 193.3984375 C-60.42984375 193.3984375 -59.76984375 193.3984375 -59.08984375 193.3984375 C-59.58484375 192.4703125 -59.58484375 192.4703125 -60.08984375 191.5234375 C-61.49372059 187.13632238 -61.24951898 182.96692323 -61.08984375 178.3984375 C-61.74984375 178.3984375 -62.40984375 178.3984375 -63.08984375 178.3984375 C-64.6971001 175.18392481 -64.1473256 171.96231214 -64.08984375 168.3984375 C-63.42984375 168.3984375 -62.76984375 168.3984375 -62.08984375 168.3984375 C-62.25484375 167.4290625 -62.41984375 166.4596875 -62.58984375 165.4609375 C-63.22380648 161.10355987 -63.17951095 156.79213046 -63.08984375 152.3984375 C-62.42984375 152.3984375 -61.76984375 152.3984375 -61.08984375 152.3984375 C-61.11046875 151.3671875 -61.13109375 150.3359375 -61.15234375 149.2734375 C-61.08984375 145.3984375 -61.08984375 145.3984375 -60.46875 142.5078125 C-60.03091264 138.9148379 -60.65695652 137.11982484 -61.96484375 133.7734375 C-64.26900506 126.9398632 -64.63347079 120.4733107 -64.76123047 113.29052734 C-64.8609524 108.79774557 -65.24623511 105.55375853 -67.08984375 101.3984375 C-67.69807823 96.41232925 -68.15347035 91.92296897 -65.21484375 87.7109375 C-63.08984375 86.3984375 -63.08984375 86.3984375 -61.08984375 86.3984375 C-61.08984375 85.7384375 -61.08984375 85.0784375 -61.08984375 84.3984375 C-60.09984375 84.3984375 -59.10984375 84.3984375 -58.08984375 84.3984375 C-58.08984375 83.4084375 -58.08984375 82.4184375 -58.08984375 81.3984375 C-57.09984375 80.9034375 -57.09984375 80.9034375 -56.08984375 80.3984375 C-55.36824951 78.75480616 -54.69632954 77.08793364 -54.08984375 75.3984375 C-53.42984375 75.3984375 -52.76984375 75.3984375 -52.08984375 75.3984375 C-50.4430392 71.35628088 -51.84824917 68.62025147 -53.40234375 64.7109375 C-53.85222656 63.55207031 -54.30210938 62.39320312 -54.765625 61.19921875 C-55.78730924 58.29243478 -55.78730924 58.29243478 -58.08984375 57.3984375 C-58.08984375 53.7684375 -58.08984375 50.1384375 -58.08984375 46.3984375 C-57.42984375 46.3984375 -56.76984375 46.3984375 -56.08984375 46.3984375 C-57.02574879 45.2929186 -57.96364233 44.18908297 -58.90234375 43.0859375 C-59.42441406 42.47105469 -59.94648437 41.85617188 -60.484375 41.22265625 C-62.02057623 39.38289241 -62.02057623 39.38289241 -63.77734375 37.9921875 C-65.64347464 35.72617141 -65.3897809 34.09682439 -65.27734375 31.2109375 C-65.25027344 30.30988281 -65.22320312 29.40882812 -65.1953125 28.48046875 C-65.16050781 27.79339844 -65.12570313 27.10632813 -65.08984375 26.3984375 C-64.42984375 26.0684375 -63.76984375 25.7384375 -63.08984375 25.3984375 C-63.08984375 24.7384375 -63.08984375 24.0784375 -63.08984375 23.3984375 C-63.74984375 23.0684375 -64.40984375 22.7384375 -65.08984375 22.3984375 C-65.08984375 21.4084375 -65.08984375 20.4184375 -65.08984375 19.3984375 C-65.74984375 19.3984375 -66.40984375 19.3984375 -67.08984375 19.3984375 C-67.46484375 16.2109375 -67.46484375 16.2109375 -67.08984375 12.3984375 C-62.31365875 7.00992109 -56.2896569 4.7064238 -49.16015625 4.18359375 C-43.07190169 4.11388091 -37.12023459 4.59438539 -31.08984375 5.3984375 C-31.08984375 4.7384375 -31.08984375 4.0784375 -31.08984375 3.3984375 C-28.18384114 2.14178772 -26.29379791 1.3984375 -23.08984375 1.3984375 C-23.08984375 0.7384375 -23.08984375 0.0784375 -23.08984375 -0.6015625 C-15.46601074 -2.19724848 -7.60986683 -1.48156699 0 0 Z " fill="#3B482D" transform="translate(68.08984375,2.6015625)"/>
</svg>
