<?xml version="1.0" encoding="utf-8"?>
<!DOCTYPE svg PUBLIC "-//W3C//DTD SVG 1.0//EN" "http://www.w3.org/TR/2001/REC-SVG-20010904/DTD/svg10.dtd">
<svg version="1.0" xmlns="http://www.w3.org/2000/svg" width="1280px" height="1202px" viewBox="0 0 1280 1202" preserveAspectRatio="xMidYMid meet">
 <g fill="#bdb4ac">
  <path d="M34.67 1188.24 c-2.42 -7.88 -4.85 -17.09 -5.45 -20.61 -0.61 -4.36 -2.06 -7.52 -4.73 -10.55 -5.70 -6.55 -13.21 -17.94 -19.15 -29.21 l-5.33 -10.30 0 -100.97 0 -100.97 4.97 -3.64 c4.61 -3.27 5.58 -5.09 12.48 -22.91 11.03 -28.36 17.21 -46.79 21.82 -65.09 l4 -16.12 4.73 0 4.73 0 -0.12 22.42 c-0.12 20.85 -0.36 23.39 -3.88 36.36 -1.94 7.64 -3.39 14.18 -3.15 14.55 0.36 0.24 3.88 -2.79 8 -6.91 6.55 -6.67 7.52 -8.12 8.36 -13.94 0.61 -3.52 1.82 -10.91 2.79 -16.48 2.06 -10.79 1.45 -19.76 -2.42 -34.79 -6.06 -23.64 -28.97 -56.97 -54.06 -78.91 l-8.24 -7.15 0 -29.94 c0 -26.42 0.24 -30.06 1.94 -30.06 2.06 0 21.33 15.27 33.33 26.30 16 14.91 34.42 40.85 43.03 60.85 7.15 16.36 9.33 29.94 8.61 52.85 -0.48 12.73 -1.45 22.79 -3.03 29.45 -1.21 5.45 -2.18 9.94 -2.06 9.94 0.12 0 5.21 -6.18 11.39 -13.82 13.58 -16.97 21.70 -29.09 22.55 -33.94 0.85 -4.85 -3.15 -20.48 -7.76 -30.18 -1.94 -4.12 -9.33 -15.15 -16.48 -24.48 -17.21 -22.79 -19.27 -27.03 -19.76 -41.82 -0.36 -11.27 2.42 -30.55 5.70 -39.15 1.21 -3.03 1.82 -3.39 5.82 -3.03 4.24 0.36 4.61 0.61 5.45 5.33 1.33 8.12 6.06 16 18.79 31.39 27.27 32.73 37.33 38.42 57.45 32.12 10.30 -3.27 18.79 -8.24 27.64 -16.36 10.06 -9.45 12 -13.09 13.45 -24.97 0.73 -5.58 1.82 -13.82 2.55 -18.30 l1.33 -8.24 4.73 0 c3.88 0 4.85 0.48 5.33 2.79 0.36 1.45 2.30 9.70 4.24 18.30 2.06 8.48 4.85 21.94 6.18 29.70 4 22.79 6.91 32.73 13.45 46.18 10.67 21.94 26.67 35.27 49.70 41.09 4.85 1.21 11.88 2.42 15.52 2.67 l6.55 0.48 3.76 -10.30 c26.55 -72.61 77.94 -133.09 128.97 -151.52 15.88 -5.82 24.97 -7.27 44.24 -7.27 18.91 0 26.79 1.45 38.91 7.15 16.61 7.76 26.18 19.15 33.21 39.52 4.12 11.88 4.24 12.48 4.73 35.15 0.24 16 -0.12 26.30 -1.33 33.70 l-1.70 10.67 3.76 -0.85 c7.52 -1.58 26.67 -8.12 38.91 -13.21 31.88 -13.33 50.91 -29.09 73.21 -60.73 23.03 -32.48 28.97 -40.24 36.85 -48.48 8.73 -9.33 22.67 -19.64 32 -23.76 l5.70 -2.55 -5.21 -4.73 c-6.30 -5.58 -16.36 -8.85 -23.39 -7.76 -2.67 0.48 -7.64 2.18 -11.03 4 -15.52 7.76 -28.12 20.73 -49.70 51.03 -7.03 9.82 -15.64 20.61 -19.15 24.12 -13.33 12.85 -28 18.55 -43.64 16.85 -13.33 -1.33 -21.21 -6.30 -30.30 -19.27 -8.48 -12.12 -13.58 -24.97 -13.70 -34.79 l-0.12 -7.88 4.97 -0.36 c4.73 -0.36 5.09 -0.12 8.61 5.70 5.45 8.61 12.36 12.36 21.21 11.27 l3.27 -0.36 -2.79 -7.52 c-14.79 -39.52 -42.67 -66.79 -99.52 -97.82 -54.18 -29.70 -82.55 -49.33 -106.18 -73.58 -16.12 -16.48 -24.97 -31.64 -30.30 -51.88 -2.42 -9.09 -5.21 -34.79 -4.48 -41.09 l0.36 -3.76 -19.39 -0.12 c-10.67 0 -23.27 -0.73 -28 -1.45 -7.52 -1.21 -25.09 -5.82 -30.91 -8.12 -1.82 -0.73 -2.06 1.21 -2.55 17.82 -0.48 18.18 -0.48 18.67 2.79 25.21 10.55 21.58 13.33 52.85 7.76 85.58 -5.33 30.30 -14.79 49.09 -44.48 88.61 l-13.21 17.70 2.55 6.30 c5.58 13.70 13.45 25.33 25.33 36.97 9.58 9.58 13.58 12.61 22.18 16.85 6.30 3.03 14.30 5.94 20.24 7.03 8.97 1.82 10.67 1.82 19.76 0 16.24 -3.15 26.06 -8.85 41.09 -23.88 13.33 -13.21 22.06 -25.58 27.15 -38.55 5.21 -12.97 6.06 -11.64 -9.33 -14.06 -27.03 -4.36 -41.09 -10.67 -54.06 -24.36 -8.97 -9.45 -13.45 -17.33 -16.85 -29.70 -1.82 -6.55 -2.18 -12.73 -2.18 -35.76 0.12 -25.82 0.36 -28.85 3.27 -41.21 1.82 -7.27 4.73 -17.70 6.67 -23.03 3.27 -9.21 3.64 -9.70 7.39 -10.06 3.27 -0.36 5.82 1.09 17.58 10.18 27.52 21.45 48.36 45.33 57.33 65.45 4 8.97 8.48 26.18 9.58 36 0.85 7.52 1.09 7.88 5.58 10.42 2.79 1.58 4.97 3.88 5.45 5.70 0.97 3.64 -0.36 23.27 -2.42 35.03 -1.21 7.76 -1.70 8.48 -4.48 8.85 -2.91 0.36 -3.15 0.85 -4.48 11.52 -4 31.88 -18.79 62.06 -40.73 82.91 -16.73 16 -31.52 22.91 -52.24 24.24 -18.18 1.09 -35.15 -2.67 -48.85 -10.79 -15.76 -9.45 -33.94 -30.67 -42.55 -49.58 -3.27 -7.15 -8.73 -23.76 -10.42 -31.76 l-0.73 -3.39 -8.12 7.52 c-25.94 23.88 -44.12 31.39 -76.12 31.39 -34.67 0 -60.73 -7.27 -106.18 -29.70 l-19.15 -9.45 0 -25.21 0 -25.09 8.73 -8.12 c24.61 -22.91 46.55 -36.61 73.58 -45.94 32.85 -11.39 63.64 -13.09 98.18 -5.09 l6.79 1.58 -0.12 7.76 c-0.24 7.76 -4.61 24.85 -8.73 33.58 -2.79 5.94 -5.33 6.18 -22.42 1.94 -43.64 -10.91 -96.24 5.09 -140.61 42.67 l-8.12 6.91 5.09 2.30 c8.61 3.88 28.85 10.30 39.76 12.61 12.97 2.79 46.06 3.15 58.79 0.61 32.48 -6.42 62.06 -22.42 89.45 -48.24 l6.42 -6.06 1.45 -14.42 c3.76 -35.76 11.64 -62.06 35.64 -119.27 1.09 -2.79 0.61 -4 -5.58 -12.12 -9.82 -13.09 -11.64 -18.79 -11.52 -36.12 0 -9.94 0.85 -17.70 2.67 -25.70 l2.67 -11.52 4.97 -0.36 4.97 -0.36 0.73 5.58 c0.48 3.03 1.94 7.76 3.39 10.67 3.27 6.55 13.58 19.27 14.55 18.06 0.48 -0.48 1.09 -5.82 1.58 -11.88 l0.73 -11.03 -9.45 -5.58 c-14.30 -8.24 -27.52 -18.67 -39.76 -31.27 -38.42 -39.88 -53.21 -93.09 -40.48 -146.55 8.12 -33.94 20.24 -57.45 41.33 -80.36 l8.73 -9.58 -0.24 -8 c-0.12 -4.48 -0.48 -8.24 -0.61 -8.36 -0.12 -0.12 -8.12 3.64 -17.82 8.61 -19.88 10.06 -31.27 13.45 -50.55 15.52 -29.45 2.91 -49.58 -2.67 -74.06 -20.48 -2.18 -1.58 -3.15 -1.70 -3.52 -0.61 -0.24 0.85 -2.67 1.45 -5.94 1.45 l-5.58 0 0.73 -8.12 c0.61 -8 0.48 -8.48 -4.36 -16.12 -6.67 -10.79 -19.03 -36.36 -19.03 -39.64 0 -2.67 0.48 -2.79 9.58 -2.79 l9.58 0 4.24 5.82 c2.42 3.15 5.94 7.27 8 9.21 l3.64 3.39 1.82 -4.48 c1.09 -2.42 2.55 -6.55 3.27 -9.21 l1.45 -4.73 8.36 0 c6.42 0 8.24 0.36 8.24 1.82 0 0.97 -1.94 7.03 -4.24 13.58 -2.30 6.55 -4.24 12.48 -4.24 13.21 0 1.45 8.73 5.58 18.67 8.73 9.70 3.15 33.94 2.79 45.82 -0.61 12.85 -3.76 28.48 -10.67 41.94 -18.55 9.33 -5.58 11.15 -7.03 10.55 -9.09 -0.36 -1.33 -0.97 -3.88 -1.33 -5.70 l-0.73 -3.39 37.09 0 c34.55 0 37.09 0.12 37.09 2.18 0 3.39 -11.64 17.94 -26.18 32.97 l-13.58 13.94 -0.48 7.39 -0.48 7.27 6.67 -4 c12.85 -7.76 24.12 -4.73 50.67 13.33 28.97 19.76 38.55 21.45 60.36 10.67 16.85 -8.36 36.61 -29.58 54.55 -58.91 6.79 -10.91 14.06 -19.39 18.91 -21.94 2.18 -1.09 7.15 -1.70 13.82 -1.70 l10.30 0 0 5.82 c0 3.15 -0.85 10.18 -1.82 15.64 -1.94 10.79 -0.97 17.45 4.12 28.97 6.30 14.06 25.09 34.30 40.24 43.27 l7.76 4.48 1.09 -6.30 c1.21 -7.76 -0.48 -18.79 -4.24 -27.64 -1.58 -3.64 -8 -13.33 -14.30 -21.70 -13.33 -17.82 -16.85 -24.85 -17.94 -35.76 l-0.73 -8 19.88 0 19.88 0 8 10.67 c4.36 5.82 15.15 20.48 24 32.61 8.85 12.24 16.36 22.18 16.73 22.18 0.36 0 0.36 -5.33 0.12 -11.88 -0.85 -13.58 -5.58 -29.82 -12.61 -42.30 -6.55 -11.76 -7.03 -11.27 14.55 -11.27 l18.67 0 0.97 9.33 c1.21 13.58 -0.24 34.91 -3.27 47.88 -2.55 11.03 -16.36 48.73 -21.58 58.91 -2.30 4.61 -3.03 5.09 -7.27 5.09 -3.88 0 -4.85 -0.48 -6.06 -3.27 -0.85 -1.94 -5.09 -8.36 -9.58 -14.55 l-8 -11.15 -2.06 8.12 c-1.09 4.48 -4.36 15.27 -7.15 23.88 -5.58 17.33 -5.58 18.06 -1.09 36.36 3.52 14.67 3.64 14.79 13.94 19.52 24.24 11.03 48.36 17.09 62.67 15.64 15.88 -1.58 30.67 -7.76 39.03 -16.24 3.88 -4.12 5.58 -4.97 9.33 -4.97 l4.61 0 0 5.21 c0 11.88 -6.55 26.67 -15.88 36.12 -3.03 3.15 -9.70 8 -14.67 11.03 l-9.21 5.33 3.76 6.91 c7.39 13.94 23.27 27.03 52.36 43.27 8.73 4.85 19.52 11.27 24.24 14.30 28.24 18.79 46.55 48.48 53.45 87.03 2.91 16.36 2.91 50.18 0.12 65.33 -4.48 24.24 -6.67 25.70 -22.18 14.42 -5.33 -3.76 -21.58 -12.73 -36.24 -19.88 l-26.67 -13.09 -2.79 7.39 c-3.64 9.82 -14.67 26.06 -22.18 32.85 -3.39 3.03 -10.30 7.64 -15.39 10.06 -8.85 4.48 -9.70 4.61 -21.94 4.61 -11.27 0 -13.70 -0.36 -19.52 -3.15 -17.45 -8.24 -32.61 -27.64 -38.30 -48.85 -2.79 -10.30 -3.27 -30.06 -1.33 -57.70 2.30 -32.36 1.21 -44.24 -6.55 -72.12 -2.79 -9.70 -10.79 -34.67 -11.76 -36.24 -0.24 -0.48 -2.55 2.79 -4.97 7.39 -14.79 28 -41.94 52.36 -78.91 70.30 -16.12 7.88 -31.88 13.70 -45.09 16.85 -10.91 2.42 -10.91 2.42 -6.55 14.30 12.85 35.64 47.64 66.55 120.85 107.39 56.85 31.76 79.52 49.33 96 74.18 14.42 21.94 20 37.45 23.76 67.03 l0.85 7.27 5.58 -5.82 c3.03 -3.15 10.67 -12.97 16.85 -21.82 22.06 -31.03 35.03 -44.24 50.79 -51.64 8.73 -4 28.73 -5.09 38.91 -2.06 15.15 4.36 26.67 17.94 41.70 48.61 12.85 26.42 16.73 36.36 16.85 42.79 l0.12 5.33 -7.27 2.67 c-4 1.45 -10.91 4.73 -15.15 7.39 -11.64 6.91 -32.48 28.48 -45.45 47.15 -33.21 47.64 -45.33 60 -70.30 72.24 -9.82 4.73 -27.03 9.58 -37.70 10.55 l-8.61 0.73 -3.39 10.79 c-6.42 20 -20.36 39.03 -37.70 51.39 -15.52 11.03 -39.52 20.24 -61.45 23.39 -4.85 0.73 -17.94 2.18 -29.21 3.15 -29.82 2.67 -44.48 6.67 -58.18 15.76 -6.30 4.24 -17.70 17.09 -17.70 20.12 0 0.61 -2.18 1.09 -4.85 1.09 l-4.85 0 0 -7.03 c0 -3.76 1.09 -11.03 2.42 -15.88 7.39 -26.67 24.48 -46.18 46.55 -53.33 10.06 -3.27 18.18 -4.48 43.76 -6.79 41.94 -3.76 69.21 -11.76 89.09 -26.30 7.27 -5.45 15.76 -13.09 15.76 -14.42 0 -0.36 -4.48 -1.09 -9.94 -1.58 -14.18 -1.09 -26.30 -2.91 -40.48 -5.70 l-12.12 -2.55 -12.12 8.24 c-6.55 4.48 -15.52 9.82 -19.88 11.88 -7.27 3.52 -8.85 3.76 -20.61 3.76 -10.91 0 -13.58 -0.36 -18.42 -2.79 -6.79 -3.27 -18.30 -15.39 -21.94 -22.79 -1.33 -2.91 -3.03 -5.33 -3.52 -5.33 -0.48 0 -3.52 5.09 -6.55 11.27 -10.18 20.12 -18.30 30.42 -32.36 40.97 -17.70 13.21 -35.03 19.52 -58.06 21.21 l-10.67 0.85 -1.21 4.36 c-0.61 2.42 -2.06 8.97 -3.15 14.67 -0.97 5.70 -2.30 11.15 -2.79 12.12 -0.73 1.33 1.33 3.03 8.12 7.03 13.09 7.76 23.27 18.42 29.21 30.79 7.52 15.64 8.85 21.94 9.45 45.45 0.48 16.36 0.24 23.64 -1.45 33.33 -2.06 12.48 -9.09 36.24 -11.64 39.39 -1.82 2.06 -7.03 2.06 -22.67 -0.36 -25.58 -3.76 -43.88 -11.64 -57.82 -24.97 -9.33 -8.85 -15.03 -17.45 -19.76 -29.82 -2.91 -7.52 -3.15 -9.58 -3.15 -28.12 0 -17.82 0.24 -21.33 3.15 -32.12 1.82 -6.67 4.36 -14.79 5.82 -18.06 l2.55 -6.06 -3.39 -7.27 c-3.15 -6.79 -3.39 -8.61 -3.39 -21.33 0 -12.85 0.36 -14.91 4.36 -26.18 l4.24 -12.24 -4.61 -3.88 c-6.55 -5.58 -15.88 -19.27 -20.24 -29.82 -4.61 -10.91 -11.39 -34.42 -13.45 -46.30 -0.85 -4.85 -2.06 -8.85 -2.55 -8.85 -0.48 0 -2.18 2.30 -3.88 5.21 -4.24 7.03 -11.03 13.70 -19.52 19.27 -5.45 3.52 -6.55 4.61 -4.36 4.61 1.45 0 4.73 1.58 7.15 3.52 2.42 1.82 9.09 6.55 15.03 10.42 10.30 6.91 10.55 7.15 10.55 11.76 0 3.88 -1.45 6.91 -6.79 15.03 -3.76 5.58 -8.73 12.36 -11.03 15.03 -3.76 4.24 -4.85 4.85 -9.45 4.85 -5.45 0 -6.91 -0.85 -29.33 -16.48 -8.85 -6.06 -7.39 -11.27 9.33 -33.21 l7.15 -9.33 -5.09 1.94 c-3.76 1.45 -9.58 1.94 -22.79 1.94 l-17.70 0 -0.85 11.52 c-1.94 29.82 -11.15 54.55 -30.42 82.42 l-7.88 11.52 3.76 0.36 3.76 0.36 -0.97 8.12 c-1.94 15.15 -1.09 37.33 1.94 49.94 8.24 34.55 22.06 60.97 66.67 127.88 13.82 20.73 26.91 40.73 29.21 44.61 2.18 3.76 4.36 6.91 4.73 6.91 1.58 0 24.24 -24.12 29.70 -31.52 6.42 -8.85 12.73 -20.61 12.73 -23.88 0 -4.61 -8.36 -19.52 -15.03 -26.67 -3.88 -4.12 -10.30 -9.58 -14.42 -12.24 -8.61 -5.33 -36.12 -18.55 -52.61 -25.09 -20.12 -8 -27.03 -14.42 -31.39 -29.21 -2.55 -8.61 -2.91 -32.61 -0.48 -46.55 3.27 -19.64 14.06 -46.67 25.45 -64 12.61 -18.91 23.52 -26.79 38.79 -27.88 15.52 -1.09 26.06 3.76 30.67 14.06 4.61 10.42 4 34.06 -1.21 50.91 -1.82 6.18 -1.94 6.30 -6.55 6.30 -4.12 0 -4.73 -0.36 -4.73 -2.67 -0.12 -4.48 -4.24 -12.36 -8.24 -15.76 -6.55 -5.45 -11.03 -6.30 -18.79 -3.39 -11.76 4.36 -23.88 17.45 -34.18 36.61 l-5.33 9.94 2.30 4.36 c4.61 8.97 11.88 13.58 41.21 26.06 28.97 12.24 41.94 19.52 50.91 28.36 13.94 13.70 20.48 31.27 20.61 54.42 0 15.64 -3.27 43.52 -6.18 53.33 -5.09 16.61 -15.64 34.55 -29.82 50.30 -3.52 4 -6.30 7.88 -5.94 8.61 5.82 13.45 10.91 27.15 12.73 33.70 l2.18 8.36 7.03 -7.64 c11.76 -12.61 20.36 -25.21 40.61 -59.03 23.64 -39.64 33.21 -53.21 51.52 -73.09 13.21 -14.55 14.42 -15.52 18.67 -15.52 4.24 0 4.73 0.36 8.97 7.88 6.67 11.64 19.27 20.36 35.03 24.36 21.58 5.58 46.91 -7.52 67.64 -34.67 3.76 -4.97 12.73 -18.67 19.88 -30.30 7.27 -11.64 15.64 -24.73 18.79 -28.97 3.03 -4.36 6.06 -8.61 6.67 -9.58 0.85 -1.58 -2.30 -1.70 -23.64 -1.09 -28.24 0.73 -34.79 2.06 -51.39 9.94 -18.30 8.73 -32 22.55 -39.03 39.39 -2.91 7.15 -3.27 9.58 -3.76 27.03 l-0.48 19.03 -4.73 0 -4.61 0 -3.03 -9.45 c-4.85 -15.39 -6.06 -24 -6.06 -44.48 0 -31.27 5.09 -45.33 22.91 -63.03 10.67 -10.79 20.48 -16.61 35.15 -21.21 11.03 -3.27 34.67 -4.97 58.18 -4.12 10.06 0.36 31.03 0.12 46.67 -0.48 25.70 -0.97 29.09 -1.33 34.91 -3.76 l6.30 -2.79 0 -8.36 c0 -48.24 24.48 -88.36 66.18 -108.61 6.18 -3.03 13.33 -5.70 16 -6.06 10.91 -1.45 25.82 6.91 56.97 31.76 9.45 7.64 29.09 11.27 48.12 8.97 19.03 -2.30 43.27 -11.64 58.42 -22.42 l5.82 -4.12 -5.45 0 c-3.03 0 -14.42 -0.85 -25.45 -1.94 -16.97 -1.82 -22.67 -1.82 -37.45 -0.61 -11.03 0.85 -17.94 0.97 -18.67 0.24 -1.94 -1.94 -0.12 -63.39 2.18 -74.06 4.36 -20 15.03 -35.64 28.97 -42.42 12.85 -6.30 26.30 -7.52 48.61 -4.24 22.18 3.15 35.52 1.70 43.64 -4.73 l3.27 -2.67 -8.85 -4.36 c-21.09 -10.42 -40.48 -32.48 -56 -63.64 -10.30 -20.36 -19.15 -50.30 -21.21 -71.39 l-0.85 -8.36 -7.27 -1.58 c-10.67 -2.30 -44 -3.27 -56.85 -1.58 -5.94 0.85 -17.09 3.03 -24.61 5.09 -20.36 5.21 -21.58 5.09 -28.61 -3.76 -15.27 -18.91 -20 -29.58 -14.42 -32.61 4.12 -2.18 30.30 -7.39 44.48 -8.73 16.85 -1.70 43.88 -0.85 58.18 1.82 9.21 1.58 22.79 4.85 26.42 6.30 1.33 0.48 1.82 -1.94 2.42 -11.27 1.94 -27.88 8.12 -51.15 25.09 -93.58 6.18 -15.64 21.82 -58.67 21.82 -60.12 0 -2.67 -20.24 6.79 -30.91 14.55 -15.76 11.27 -31.15 31.03 -38.06 48.85 -2.67 7.15 -7.39 26.06 -7.39 30.18 0 0.24 -2.06 0.36 -4.48 0.12 -4.48 -0.36 -4.61 -0.48 -5.58 -6.42 -1.33 -8.85 1.21 -37.09 4.61 -50.79 5.70 -23.15 14.42 -39.52 29.58 -55.52 16.36 -17.21 32.36 -26.79 55.64 -32.97 5.70 -1.45 10.55 -3.27 10.79 -4 0.24 -0.73 -4 0 -9.58 1.58 -15.76 4.73 -25.82 6.55 -42.18 7.88 -25.58 2.06 -48.73 -1.21 -66.18 -9.21 -33.09 -15.15 -57.82 -49.94 -59.64 -83.88 l-0.61 -11.27 4.24 0 c3.76 0 4.36 0.48 7.27 6.42 12.61 25.58 40.12 45.09 71.15 50.55 31.15 5.45 74.91 -4.61 113.70 -26.30 8.12 -4.61 9.58 -5.82 8.36 -7.15 -0.97 -0.85 -2.06 -3.64 -2.55 -6.18 -0.48 -2.55 -2.79 -8.73 -5.09 -13.82 l-4.24 -9.33 -6.18 4.24 c-16 10.79 -26.67 14.30 -43.27 14.30 -16.97 -0.12 -20.85 -1.70 -24.97 -10.79 -4.24 -9.33 -8.97 -28.85 -8.97 -37.21 l0 -7.15 3.88 0 c2.79 0 5.09 1.21 8 4 3.76 3.64 4.61 3.88 12.12 3.88 5.94 0 9.82 -0.85 14.55 -2.91 3.39 -1.58 6.30 -3.15 6.30 -3.64 0 -0.36 -4.48 -3.15 -10.06 -6.06 -17.21 -9.21 -30.18 -18.42 -40.24 -28.61 -21.58 -21.45 -34.55 -51.64 -36.48 -84.85 l-0.85 -14.06 8.24 0.36 8.12 0.36 2.18 6.67 c5.33 17.09 14.18 31.39 26.18 42.30 8.85 8 15.88 12.73 39.88 26.79 21.45 12.36 28.61 17.45 37.58 26.30 l5.94 6.06 7.64 -3.52 c19.64 -8.85 40.36 -9.33 57.09 -1.21 8.61 4.24 19.15 15.64 25.33 27.64 9.33 18.06 22.18 59.64 22.18 72.12 l0 6.91 -5.58 0.85 c-8.24 1.21 -28.61 8.48 -40.48 14.42 -5.70 2.91 -20.12 10.79 -32.12 17.70 -12 6.79 -24.97 13.94 -28.73 15.88 -4.97 2.55 -7.03 4.24 -7.03 5.94 0 1.33 0.24 2.42 0.61 2.42 2.42 0 53.82 -6.55 66.18 -8.48 45.70 -6.91 80.85 -19.52 96 -34.42 4 -4 8 -9.58 10.79 -15.39 7.15 -14.79 7.64 -13.58 -5.94 -16.61 -31.03 -7.03 -52.73 -25.33 -60.24 -51.15 -3.15 -10.42 -4.48 -32.97 -3.15 -49.82 1.21 -14.42 5.58 -37.33 9.21 -47.39 0.97 -2.79 1.45 -5.21 1.21 -5.45 -0.24 -0.36 -6.79 0.85 -14.42 2.55 -24.24 5.45 -38.67 7.15 -63.27 7.15 -18.06 0.12 -25.09 -0.36 -32.73 -2.06 -14.30 -3.15 -25.94 -9.21 -35.64 -18.42 -8.97 -8.48 -18.30 -21.45 -18.30 -25.70 l0 -2.55 125.45 0 c120.12 -0.12 125.45 0 125.45 2.06 0 1.70 -5.58 4.61 -24.48 12.73 -13.58 5.70 -26.91 11.27 -29.82 12.24 -2.91 1.09 -5.82 2.18 -6.42 2.67 -0.73 0.36 4.36 6.55 11.39 13.70 15.64 15.88 25.94 29.82 33.70 45.58 7.88 16.12 12 30.91 12.85 46.06 0.48 8 1.33 13.09 2.67 15.15 1.58 2.42 2.06 7.52 2.30 28.12 l0.36 25.21 -3.52 0 c-3.27 0 -3.64 0.48 -4.36 4.97 -0.48 2.79 -0.61 5.33 -0.24 5.58 0.36 0.36 10.30 0.73 22.18 0.85 16.61 0.12 24.12 -0.36 32.61 -2.06 l11.15 -2.30 -7.39 -12.24 c-11.03 -18.55 -27.88 -54.06 -33.45 -70.55 -8.36 -24.61 -9.94 -34.30 -10.67 -63.03 -0.73 -27.64 0.61 -40.12 6.06 -56.12 2.67 -8 2.79 -8.12 7.39 -8.48 l4.61 -0.36 -0.85 13.09 c-2.06 32.48 8.85 73.09 31.15 115.52 4 7.64 14.91 26.55 24.24 42.06 l16.97 28 12 -5.21 c32.61 -14.30 49.21 -28.85 75.27 -66.06 21.70 -31.03 29.21 -40 33.58 -40 0.97 0 1.33 11.15 1.33 35.27 l0 35.27 -6.91 9.82 c-31.39 44.97 -51.15 61.45 -84.12 69.82 l-8 2.06 6.06 12.61 c6.55 13.94 12.85 30.06 15.39 39.03 0.85 3.27 1.82 5.82 2.30 5.82 1.09 0 13.70 -19.39 27.39 -41.82 22.91 -37.58 37.70 -56.36 44.61 -56.36 l3.27 0 0 23.03 0 23.03 -7.15 7.15 c-10.42 10.42 -19.64 23.76 -37.09 53.94 l-3.39 6.06 3.39 -2.67 c2.67 -2.06 4.97 -2.67 11.03 -2.67 6.42 0 8.85 0.73 15.88 4.48 4.48 2.42 10.30 5.45 12.85 6.67 l4.48 2.18 0 16.36 0 16.36 -3.27 0.73 c-11.39 2.42 -15.76 4.73 -22.42 11.64 -5.45 5.45 -7.76 7.03 -10.67 7.03 -3.52 0 -3.64 -0.24 -3.64 -5.21 0 -7.64 3.15 -16.97 7.76 -23.03 l4.12 -5.33 -5.21 -2.67 c-2.79 -1.33 -5.70 -2.55 -6.30 -2.55 -1.94 0 -6.06 5.09 -8.12 9.94 -1.58 4.12 -2.30 4.61 -6.06 4.61 l-4.36 0 0 -5.82 c0 -3.27 0.85 -8.61 1.82 -11.88 0.97 -3.27 1.82 -6.18 1.82 -6.42 0 -0.36 -2.79 3.39 -6.06 8.24 l-6.06 8.85 0.73 17.82 c0.85 19.52 -0.48 33.94 -4.36 49.09 -3.76 14.18 -5.21 16.48 -10.42 16.48 l-4.36 0 0.85 -14.91 c0.85 -13.09 -0.73 -35.64 -2.67 -38.79 -0.24 -0.48 -6.30 5.21 -13.33 12.61 -26.91 28 -53.33 44.48 -80.48 50.18 -10.91 2.30 -37.82 2.30 -48.48 0.12 -26.42 -5.70 -46.91 -21.58 -59.64 -46.55 -10.79 -20.97 -14.06 -35.76 -15.03 -66.06 -0.61 -20.12 -0.85 -22.67 -2.67 -22.18 -14.55 4.24 -41.45 8.97 -83.76 14.67 -44.61 5.94 -39.64 4.48 -41.21 12.61 -4.85 24.24 -14.91 55.64 -30.91 97.09 -13.94 35.88 -19.39 52.24 -20.61 61.21 -0.36 3.39 -0.97 7.15 -1.21 8.61 -0.48 2.06 1.09 3.15 10.06 7.15 26.91 12 51.27 28.73 74.67 51.52 24.73 24 39.52 42.91 40.48 51.64 l0.61 5.33 -5.09 0 c-4.85 0 -5.58 -0.61 -25.82 -20.97 -22.55 -22.67 -36.12 -32.97 -58.30 -44 -10.55 -5.33 -28.73 -12.85 -28.73 -11.88 0 0.24 1.58 4.48 3.64 9.58 22.06 55.39 61.94 91.64 95.27 86.42 21.58 -3.39 46.67 -19.76 65.09 -42.55 14.30 -17.58 31.88 -47.64 28.48 -48.61 -0.85 -0.12 -6.42 -1.58 -12.36 -2.91 -16.36 -4 -27.52 -10.06 -38.42 -20.85 -9.94 -9.82 -13.82 -16.12 -18.18 -30.30 -2.67 -8.24 -2.91 -11.27 -2.91 -33.33 0 -29.94 1.33 -37.82 12.24 -72.97 l4.24 -13.70 4.61 0 c4.36 0 5.45 0.97 20.48 16.73 18.18 19.15 24.48 26.67 32.24 38.79 11.39 17.58 18.06 36.73 20.36 59.27 l1.45 13.82 8.61 -0.85 c12.24 -1.09 28.48 -5.58 50.18 -13.70 35.03 -13.21 37.33 -13.70 58.06 -14.42 l18.42 -0.48 0 8.24 c-0.12 4.61 -0.61 12.24 -1.21 16.85 -3.15 24.73 16.24 55.15 46.42 72.73 3.15 1.82 6.18 2.91 6.67 2.42 1.45 -1.33 0.85 -22.67 -0.73 -28.12 -1.58 -5.09 -4.36 -9.58 -19.27 -30.06 -18.42 -25.09 -19.76 -36 -8.61 -67.03 l3.64 -9.94 4.61 0 c4.36 0 4.61 0.24 5.45 4.61 1.21 6.79 8 18.67 19.15 33.70 5.45 7.52 17.21 23.52 26.06 35.64 8.97 12.12 16.48 21.82 16.73 21.58 0.97 -1.09 -3.64 -16.61 -7.39 -24.61 -2.18 -4.61 -8.36 -14.42 -13.70 -21.82 -12.24 -16.48 -13.58 -20.24 -13.58 -36.97 0 -13.70 2.42 -25.94 7.39 -37.45 2.42 -5.82 2.79 -6.18 7.15 -6.18 l4.48 0 0.73 6.55 c0.85 8.73 4.97 17.94 12 26.55 7.03 8.73 13.33 13.58 21.82 16.61 l6.42 2.18 0.36 24.97 c0.24 23.76 0.24 24.97 -2.06 24.97 -2.55 0 -3.76 4.12 -3.76 12.73 0 12.61 -7.52 43.27 -15.88 65.09 -3.64 9.45 -3.76 9.45 -8.12 9.45 -4.36 0 -4.85 -0.48 -14.79 -14.55 l-10.30 -14.55 -0.97 4 c-2.91 12 -7.88 26.06 -13.94 38.67 l-6.67 14.30 -4.73 0 c-5.21 0 -13.45 -3.76 -24.61 -11.27 -16.97 -11.52 -29.33 -26.79 -35.88 -44.24 -3.64 -9.82 -4 -11.88 -4.48 -29.21 l-0.48 -18.55 -6.30 0.73 c-10.06 1.33 -19.64 4.12 -39.52 11.64 -28.48 10.67 -41.82 14.18 -59.27 15.64 l-9.09 0.73 -2.67 10.18 c-7.39 27.03 -17.09 48.85 -30.79 69.33 -8.85 13.09 -26.06 31.27 -37.45 39.76 -16.24 12 -32.61 18.06 -51.27 19.15 l-11.88 0.73 0 6.18 c0 9.58 -2.30 26.06 -4.36 30.91 -6.30 15.15 -23.52 19.64 -58.67 15.27 -10.42 -1.33 -20.12 -1.82 -24.48 -1.33 -10.55 1.09 -21.45 6.79 -29.45 15.52 -3.64 4 -6.67 7.52 -6.67 8 0 0.48 8 0.85 17.94 0.97 9.82 0 26.30 0.97 36.61 2.06 26.91 3.03 38.55 1.09 58.79 -9.21 9.09 -4.73 13.09 -7.76 36.61 -27.27 12 -9.94 27.03 -18.42 32.73 -18.42 l4.24 0 -0.48 23.27 c-0.24 16.12 -0.85 23.39 -1.82 23.64 -4.36 1.45 -23.03 13.70 -30.79 20.24 -4.97 4.12 -15.39 14.79 -23.27 23.76 -8 8.97 -19.64 22.30 -26.06 29.70 -23.76 27.03 -36 37.21 -55.15 46.06 -11.39 5.21 -25.82 9.94 -33.70 11.03 -7.03 0.97 -7.76 2.06 -11.52 16.61 l-1.94 8.12 3.39 6.91 c4.61 8.97 14.18 18.55 23.03 22.91 6.06 2.91 8.61 3.52 16.24 3.39 16.73 -0.12 30.91 -7.27 47.88 -24.12 14.79 -14.55 21.82 -24.48 32.85 -45.58 4.97 -9.70 10.79 -19.76 12.97 -22.30 5.09 -6.18 14.18 -10.30 23.03 -10.30 l6.91 0 0 7.64 c-0.12 4.12 -0.61 11.15 -1.09 15.76 -2.42 18.42 9.21 41.45 29.58 59.03 7.88 6.79 22.18 16.12 23.52 15.27 1.82 -1.21 2.55 -11.88 1.21 -20 -1.82 -11.27 -4.36 -16.24 -17.82 -35.03 -17.21 -23.88 -17.82 -25.09 -17.70 -39.03 0.12 -11.88 2.67 -23.88 7.64 -35.39 2.30 -5.33 2.79 -5.82 6.55 -5.82 3.88 0 4.24 0.36 5.70 5.58 2.18 7.52 10.30 20.85 24.97 40.48 15.27 20.48 31.39 42.42 36.85 50.06 2.18 3.15 4.48 5.70 4.85 5.70 1.70 0 2.30 -10.55 1.09 -18.79 -2.42 -17.94 -7.64 -29.82 -20.12 -46.55 -9.94 -13.33 -12.85 -20.36 -13.45 -33.33 -0.73 -15.27 1.45 -26.42 8.85 -44.48 1.09 -2.79 -4.36 -3.64 -14.67 -2.18 -16.36 2.30 -28.36 11.52 -36.61 28.12 -3.76 7.64 -4.24 8.12 -8.12 8.12 l-4.24 0 0 -6.55 c0 -14.30 11.39 -39.76 23.03 -51.64 12.61 -12.85 24.48 -15.39 61.45 -13.45 13.94 0.73 24.85 0.73 30.06 0 16.85 -2.30 29.09 -12 35.27 -27.76 1.94 -5.09 4 -8.48 5.09 -8.48 0.97 0 -1.70 -3.88 -5.94 -8.61 -15.88 -17.58 -24.12 -31.52 -29.70 -50.42 -5.58 -18.91 -5.45 -57.45 0.24 -76.73 1.82 -5.94 1.94 -6.06 6.55 -6.06 l4.85 0 0 13.82 c0 21.58 5.45 37.82 19.52 57.58 13.70 19.64 33.70 36.24 76.24 63.88 46.18 30.06 61.58 43.03 77.21 65.09 8.85 12.61 19.27 33.21 24.85 49.33 l4 11.52 0.36 41.82 c0.24 23.03 0 44.12 -0.36 47.03 l-0.73 5.21 -5.09 -0.36 -5.09 -0.36 -0.73 -16.36 c-1.82 -37.82 -8.61 -56.24 -27.64 -75.27 -17.70 -17.70 -43.52 -28.97 -66.55 -28.97 -14.79 0 -41.70 9.21 -56.85 19.52 -8.48 5.70 -26.55 23.64 -32.12 31.76 -7.64 11.15 -9.82 17.09 -8.85 23.64 2.06 13.70 14.55 41.58 25.45 57.21 4.85 6.79 5.45 7.39 5.45 4.48 0 -2.91 0.48 -3.27 4.24 -3.27 2.42 0 7.52 1.58 11.52 3.64 l7.15 3.64 5.70 -11.15 c21.45 -41.33 55.76 -64 96.85 -64 15.64 0 21.58 1.33 26.30 6.06 2.91 3.03 3.39 4.36 3.39 10.67 0 8.24 -4.48 25.21 -9.09 34.30 -2.67 5.09 -3.52 5.94 -6.79 5.94 -2.42 0 -4.85 -1.21 -7.76 -4.12 -9.70 -9.70 -32 -7.76 -56.61 4.85 -10.30 5.45 -27.52 18.79 -30.06 23.52 -1.45 2.79 -2.18 2.42 10.91 6.06 37.21 10.06 69.94 8.97 102.67 -3.64 5.21 -2.06 10.67 -3.64 12.12 -3.64 l2.79 0 0 92.73 c0 81.58 -0.24 92.73 -1.82 92.73 -0.97 0 -1.82 -0.73 -1.82 -1.70 0 -0.97 -0.61 -1.94 -1.21 -2.18 -0.73 -0.24 -2.30 -5.58 -3.64 -11.88 -1.94 -9.21 -2.42 -16.48 -2.42 -36.48 l0 -24.85 -7.88 0.85 c-4.36 0.61 -10.18 1.58 -12.97 2.30 -6.67 1.82 -20.36 8.24 -20.36 9.70 0 0.48 3.03 5.58 6.67 11.15 18.67 28.12 27.52 56 29.70 93.33 1.09 16.61 0 44.48 -1.94 54.91 -0.73 4.12 -0.85 4.24 -6.67 4.24 l-5.94 0 0.73 -16.61 c0.61 -13.09 0.36 -19.03 -1.21 -27.52 -8 -41.94 -28.97 -74.79 -76.61 -120.12 -41.82 -39.88 -57.58 -55.64 -67.15 -67.52 -31.15 -38.42 -43.39 -70.06 -45.70 -116.73 -1.09 -24.36 3.03 -47.15 11.88 -65.82 9.33 -19.39 29.21 -39.39 49.58 -49.82 13.58 -7.03 20.12 -9.33 33.58 -12.12 l9.94 -2.06 -16.61 -11.03 c-9.09 -5.94 -21.94 -15.03 -28.36 -20.12 l-11.88 -9.33 0 6.18 c0 7.52 -5.82 25.45 -11.64 35.88 -11.76 21.09 -26.91 27.88 -59.27 26.79 l-16.36 -0.61 0 4.97 c0.12 7.39 4.73 17.45 13.70 29.45 15.76 21.33 20.24 34.42 21.09 61.82 1.09 32.48 -4.36 54.79 -23.52 96.48 -4.24 9.09 -4.48 9.33 -8.73 9.33 -4.12 0 -4.61 -0.36 -6.18 -4.85 -2.18 -5.82 -16 -25.82 -16.97 -24.48 -0.36 0.48 -1.70 4.73 -2.91 9.33 -1.94 7.64 -11.03 31.03 -16.24 41.82 -4 8.12 -12.97 6.06 -32.73 -7.64 -25.82 -17.82 -40.12 -44.36 -40.24 -75.03 l-0.12 -10.06 -5.09 5.58 c-2.79 3.03 -8.61 12.12 -12.85 20 -18.79 35.03 -36.36 55.64 -56.97 66.42 -12.24 6.42 -21.45 8.36 -37.09 7.76 -11.52 -0.36 -14.30 -0.97 -20.24 -3.76 -12.97 -6.30 -24.97 -23.03 -27.52 -38.42 -0.61 -3.64 -1.09 -5.58 -1.09 -4.24 -0.12 1.33 -2.42 12.12 -5.33 23.88 l-5.21 21.58 -4.73 0 c-3.52 0 -7.27 -1.58 -14.91 -6.18 -27.52 -16.61 -46.06 -36.85 -56.97 -61.82 -6.30 -14.67 -8.85 -27.88 -9.70 -50.42 -0.36 -10.91 -0.85 -19.76 -1.09 -19.76 -1.21 0 -14.06 8.24 -19.76 12.73 -8.24 6.30 -20.12 18.67 -25.21 26.18 -4.97 7.15 -11.76 20.48 -10.91 21.33 0.36 0.36 3.76 -0.61 7.64 -1.94 9.70 -3.64 26.18 -7.39 32.61 -7.39 l5.33 0 3.03 10.06 c5.09 16.85 6.79 24.12 6.79 30.06 l0 5.82 -6.91 1.33 c-7.64 1.58 -28 7.88 -30.30 9.45 -1.70 1.09 7.03 16.36 16.36 28.61 5.82 7.64 26.67 29.21 27.52 28.48 0.24 -0.24 1.09 -5.09 1.82 -10.79 1.58 -12.12 4 -22.18 7.52 -31.76 2.42 -6.91 2.55 -7.03 7.27 -7.03 l4.85 0 -1.09 11.27 c-1.09 12.85 -1.09 37.58 0.12 47.27 l0.85 6.67 10.55 4.85 c31.52 14.55 67.15 19.03 99.39 12.61 44.48 -8.97 94.06 -35.52 114.06 -61.09 4.73 -6.18 5.94 -7.03 9.58 -7.03 l4.24 0 -0.61 6.06 c-0.73 7.52 -9.45 25.70 -17.21 36 -24.85 32.85 -76.48 60.73 -129.82 70.18 -20.73 3.64 -52.85 1.70 -72.61 -4.36 -4.48 -1.45 -8.48 -2.42 -8.73 -2.06 -0.24 0.24 0.36 6.18 1.45 13.09 4 26.91 3.64 79.88 -0.85 103.27 l-1.45 6.91 -6.79 0 -6.79 0 -0.12 -22.67 c0 -18.42 -0.61 -26.79 -3.27 -43.39 -7.88 -51.03 -9.33 -60.97 -9.33 -65.70 0 -4.97 -0.36 -5.33 -9.33 -12.24 -26.30 -20 -49.21 -52.24 -59.39 -83.52 -1.82 -5.45 -3.64 -10.06 -4 -10.06 -3.52 0 -34.91 25.70 -44.48 36.48 l-4 4.36 2.42 9.33 c2.18 8.24 10.79 30.18 12.61 31.88 0.36 0.36 1.33 0.12 2.30 -0.61 3.03 -2.55 13.45 -23.76 17.94 -36.61 l4.48 -12.73 4.61 0 4.73 0 -0.36 8.48 c-0.61 15.39 -7.64 37.58 -17.09 54.42 l-4.73 8.48 9.82 14.55 c5.45 7.88 22.42 30.06 37.82 49.09 37.09 46.30 50.30 64 50.30 67.52 l0 2.91 -23.88 -0.24 -24 -0.36 -11.27 -13.94 c-27.15 -33.70 -45.21 -58.18 -55.64 -75.27 l-7.15 -11.64 -8.97 7.76 c-14.55 12.48 -28.61 22.67 -67.27 48.85 -33.09 22.42 -47.27 32.73 -56.73 41.70 -3.03 2.91 -4.36 3.15 -13.09 3.15 -9.45 0 -9.58 0 -9.58 -3.03 0 -6.79 9.82 -22.42 21.70 -35.03 10.67 -11.15 24.48 -21.33 64.97 -48.36 36.97 -24.61 57.21 -39.52 56.61 -41.94 -0.12 -0.85 -1.70 -6.18 -3.27 -11.88 -1.70 -5.70 -3.64 -15.15 -4.48 -21.09 l-1.45 -10.67 -3.76 5.70 c-2.18 3.15 -8.36 13.09 -13.94 22.06 -18.55 30.42 -32.61 45.45 -50.30 53.94 -10.67 5.09 -18.42 6.67 -32.12 6.67 -21.21 0 -32.36 -4.36 -45.82 -17.94 l-8.73 -8.85 -11.88 11.88 c-14.67 14.67 -24.73 28.12 -39.15 52.48 -6.18 10.30 -14.79 24.85 -19.27 32.12 l-8 13.33 -40.12 0.36 -40.12 0.24 -5.45 -11.15 c-8.36 -17.09 -7.15 -16.48 -17.82 -9.33 -10.55 7.03 -25.21 14.42 -36 17.94 -6.67 2.30 -10.55 2.55 -32.48 2.55 -13.70 0 -25.82 -0.48 -27.03 -1.21 -1.09 -0.61 -6.18 -3.03 -11.27 -5.21 -5.09 -2.30 -12.61 -6.42 -16.73 -9.21 l-7.39 -5.09 3.15 7.03 c1.82 3.88 3.52 8.48 3.88 10.42 l0.48 3.27 -9.58 0 -9.58 0 -4.61 -14.18z m111.39 -36.73 c15.15 -5.45 25.21 -10.67 24.12 -12.48 -0.48 -0.85 -11.15 -16.73 -23.64 -35.39 -40.12 -60.12 -54.67 -88.73 -61.94 -122.06 -3.88 -18.06 -3.88 -53.82 0 -73.33 1.45 -7.39 3.52 -15.76 4.48 -18.67 1.09 -2.91 1.70 -4.97 1.45 -4.61 -0.24 0.24 -5.82 7.64 -12.36 16.24 -20.48 27.03 -36.12 42.42 -54.55 53.58 -4 2.42 -7.64 5.09 -8.24 5.70 -1.21 1.82 -6.06 17.70 -5.45 18.30 0.24 0.24 4.73 1.33 10.06 2.42 42.30 8.73 78.42 51.76 88.61 105.45 1.58 8 2.18 18.79 2.42 40 0.12 16 0.36 29.33 0.36 29.58 0.12 0.24 5.45 0.12 12 -0.24 9.09 -0.48 14.18 -1.45 22.67 -4.48z m-55.39 -10.55 c-6.79 -51.27 -38.67 -95.88 -78.18 -109.58 -3.76 -1.21 -7.15 -2.06 -7.52 -1.58 -1.45 1.33 5.09 28.24 9.58 39.88 10.06 25.58 30.67 50.91 55.15 67.64 8.48 5.82 18.79 11.76 20.73 11.76 0.85 0 0.97 -2.42 0.24 -8.12z m1120 -128.12 c0.73 -1.70 4.97 -6.91 9.45 -11.64 6.42 -6.79 10.30 -9.58 17.94 -13.33 8.73 -4.12 24.36 -8.48 30.79 -8.48 1.70 0 2.55 -1.09 3.15 -3.76 1.58 -8.24 3.03 -7.76 -22.06 -7.88 -18.67 0 -24.97 -0.48 -35.39 -2.79 -18.18 -3.88 -38.06 -10.79 -57.45 -20 -9.21 -4.36 -17.21 -8 -17.58 -8 -0.48 0 -1.82 1.70 -3.03 3.76 l-2.30 3.88 16.24 15.15 c8.97 8.36 25.58 24.36 36.85 35.64 11.39 11.15 20.97 20.36 21.33 20.36 0.36 0 1.33 -1.33 2.06 -2.91z m-874.42 -32.48 c-4.73 -20.73 -16 -35.15 -39.27 -50.42 -7.64 -4.97 -16.97 -11.15 -20.61 -13.58 -3.64 -2.42 -7.27 -4.85 -8.12 -5.33 -0.97 -0.48 -2.18 1.70 -3.88 7.15 -2.30 7.52 -2.42 8.24 -0.61 13.70 3.76 11.15 9.58 20.24 18.67 29.45 7.39 7.39 11.52 10.30 20.61 14.91 6.30 3.03 16.73 6.91 23.03 8.61 6.30 1.58 11.64 2.91 11.76 3.03 0.12 0 -0.61 -3.39 -1.58 -7.52z m784.85 -53.21 c-2.30 -1.45 -2.91 -0.24 -0.97 2.06 1.09 1.33 1.70 1.58 2.06 0.48 0.36 -0.85 -0.24 -1.94 -1.09 -2.55z m-388.36 -1.33 c-1.94 -9.45 -8.12 -24.85 -13.58 -34.06 -7.76 -13.21 -26.55 -32 -40.36 -40.48 -15.39 -9.45 -14.91 -9.45 -12 1.09 7.27 26.06 27.39 52.73 52.97 69.82 6.18 4.12 11.88 7.52 12.48 7.52 0.85 0 0.97 -1.58 0.48 -3.88z m20 -45.45 c0 -0.85 -1.33 -1.58 -2.91 -1.58 -2.18 0 -2.79 0.61 -2.55 2.18 0.24 1.09 0.85 4.85 1.33 8.12 l0.85 6.06 1.58 -6.67 c0.85 -3.64 1.58 -7.39 1.70 -8.12z m-450.55 -20 l0.61 -14.30 -3.27 0 c-5.09 0 -21.09 -4.36 -26.79 -7.27 -2.79 -1.45 -5.33 -2.42 -5.58 -2.06 -1.09 1.09 6.06 13.09 11.88 19.64 5.21 5.70 21.58 19.39 22.30 18.42 0.12 -0.12 0.48 -6.67 0.85 -14.42z m55.39 -67.88 c18.18 -5.58 37.45 -18.91 44.36 -30.79 1.70 -3.03 5.82 -11.76 9.09 -19.52 7.03 -16.97 12.36 -23.39 19.27 -23.39 4.12 0.12 4.36 0.36 8.73 9.45 5.45 11.52 12 19.27 20.48 23.88 12.73 6.91 21.21 4.61 46.67 -12.36 17.82 -12 20.48 -13.33 32.85 -17.21 l9.94 -3.15 -3.88 -7.88 c-10.79 -22.06 -37.70 -36.61 -64.48 -34.79 -19.39 1.33 -42.55 10.67 -64.24 25.70 -27.27 19.03 -49.45 45.58 -73.82 88.36 l-3.39 5.82 5.21 -0.85 c2.91 -0.48 8.85 -1.94 13.21 -3.27z m-108.36 -280.97 c11.88 -14.55 21.09 -29.45 21.09 -33.94 0 -3.52 -3.88 -18.30 -6.79 -25.45 l-2.06 -4.97 -11.39 27.64 c-6.18 15.15 -14.06 35.52 -17.33 45.21 l-6.06 17.58 6.18 -6.67 c3.27 -3.64 10.79 -12.36 16.36 -19.39z m130.06 20.36 c-3.88 -7.27 -12 -18.06 -20.36 -26.79 -9.09 -9.58 -34.42 -31.15 -36.48 -31.15 -0.61 0 -1.94 2.79 -2.91 6.06 -1.58 5.33 -1.58 6.67 0 11.15 6.55 18.67 26.30 34.67 50.18 40.85 11.52 3.03 11.27 3.03 9.58 -0.12z m617.70 -48.97 c-3.03 -7.27 -12.48 -22.30 -20.61 -32.61 -9.33 -11.76 -28.61 -32.12 -30.42 -32.12 -1.45 0 -6.55 16.24 -6.55 20.85 0 1.45 1.09 5.21 2.42 8.12 7.39 16.12 23.39 29.45 44.12 36.61 12.97 4.61 13.33 4.61 11.03 -0.85z m-380.48 -48.24 c7.39 -3.76 17.58 -12.12 16.12 -13.21 -0.24 -0.24 -4 -2.55 -8.24 -5.09 -10.18 -6.06 -21.94 -17.21 -25.82 -24.48 -6.67 -12.12 -7.64 -18.18 -7.52 -44.61 0 -26.55 1.21 -33.70 7.64 -46.55 l3.52 -6.79 -4.12 -5.94 c-6.79 -10.06 -9.21 -18.79 -9.82 -35.64 -0.61 -14.55 -0.73 -15.03 -3.27 -14.30 -4.36 1.33 -25.09 4.36 -34.91 5.09 -5.21 0.48 -9.45 0.97 -9.45 1.09 0 0.24 1.82 7.15 4.12 15.39 8.73 31.76 10.42 52.24 7.39 87.64 -1.21 13.70 -1.70 27.52 -1.33 31.88 0.97 8.73 4.85 20.36 9.82 28.73 5.33 9.21 19.52 22.67 28.36 27.03 10.55 5.21 16.61 5.21 27.52 -0.24z m103.52 -31.39 c-5.82 -16.12 -13.82 -28.97 -26.30 -42.18 -7.15 -7.52 -18.30 -16.85 -20.24 -16.85 -0.36 0 -0.73 3.15 -0.73 7.03 0 3.76 -0.85 12.97 -1.82 20.24 -0.97 7.39 -1.82 13.45 -1.82 13.58 0 0.12 9.94 5.21 22.18 11.15 12.12 5.94 24 12.24 26.30 13.82 2.30 1.70 4.48 2.55 4.73 1.82 0.24 -0.61 -0.85 -4.48 -2.30 -8.61z m376.85 -18.55 c24.36 -5.45 49.21 -20.85 73.21 -45.09 l12 -12 -5.70 -13.21 c-6.67 -15.64 -18.06 -37.82 -29.94 -58.18 l-8.61 -14.67 -9.82 -0.85 c-22.91 -1.82 -58.18 -8.48 -75.64 -14.18 -1.09 -0.36 -2.55 2.67 -4.61 9.70 -4.48 15.15 -10.67 26.06 -20 35.64 -7.03 7.03 -10.42 9.21 -23.39 15.52 -17.33 8.24 -16.61 6.91 -13.33 22.67 11.27 54.91 55.39 86.06 105.82 74.67z m-445.58 -12.85 c-0.97 -9.82 -4.12 -24.24 -6.55 -30.67 -3.39 -8.97 -7.03 -13.94 -12.24 -16.61 -4 -2.06 -4.73 -2.18 -7.88 -0.48 -4.12 2.18 -9.94 8.24 -13.58 14.42 l-2.79 4.61 5.21 6.67 c6.42 8.36 16 16.12 27.76 22.30 4.97 2.67 9.45 4.85 9.94 4.85 0.36 0 0.48 -2.30 0.12 -5.09z m-295.15 -46.55 l7.39 -0.85 7.27 -14.79 c19.64 -40.12 57.58 -75.52 98.55 -92 l9.82 -4 -12.61 -4.97 c-22.06 -8.48 -39.64 -11.88 -52.73 -10.06 -24.24 3.52 -40.48 15.15 -46.06 33.21 -1.33 4.61 -1.82 11.15 -1.70 24.24 l0 17.82 -5.33 0 -5.45 0 -1.58 -6.91 c-2.42 -10.79 -2.06 -38.06 0.73 -47.03 9.94 -32.61 35.76 -58.18 65.09 -64.36 17.94 -3.88 48.36 -0.48 66.91 7.27 l4.48 1.94 0 -4.12 c0 -2.18 0.36 -5.70 0.73 -7.64 0.73 -3.39 0.24 -3.88 -6.42 -7.64 -18.55 -10.42 -35.64 -26.55 -43.15 -40.85 -6.55 -12.61 -9.45 -24 -10.42 -39.88 l-0.73 -14.06 -4.73 4.61 c-2.55 2.42 -9.82 12.48 -16.24 22.18 -17.82 27.27 -41.33 48.97 -59.88 55.52 -4.36 1.58 -5.70 2.67 -5.09 4 2.06 5.21 4 21.70 4.12 34.55 0 19.52 -1.58 31.15 -7.52 56.12 l-5.09 20.85 -5.58 0 c-12.61 0 -42.55 -22.18 -57.82 -42.91 -16.12 -21.82 -22.79 -42.30 -24.24 -74.91 -0.73 -16.24 -0.85 -16.61 -3.15 -15.27 -4.24 2.18 -28 26.55 -34.67 35.52 -11.03 14.67 -24.36 46.18 -24.36 57.70 0 8.24 10.30 30.06 21.94 46.30 13.09 18.42 29.33 31.88 56 46.18 5.82 3.15 10.55 5.33 10.55 4.73 0 -0.61 -3.03 -7.15 -6.67 -14.42 -7.88 -15.76 -18.67 -30.42 -34.06 -46.30 -9.21 -9.58 -11.39 -12.48 -11.39 -15.39 0 -4 3.76 -18.42 6.79 -26.06 1.94 -4.61 2.18 -4.85 7.39 -4.85 5.21 0 5.82 0.48 13.94 8.85 20 20.85 36.48 46.79 41.58 65.70 1.21 4.36 2.30 14.30 2.67 24.48 l0.73 17.21 6.18 2.30 c8.97 3.39 20.85 6.18 31.15 7.39 12.24 1.45 14.18 1.45 22.67 0.61z m52.97 -10.91 c18.06 -5.82 48.61 -20.73 62.91 -30.91 11.27 -8 24.73 -20.48 29.70 -27.64 l2.91 -4 -4.12 0.85 c-8.36 1.82 -32.24 10.06 -41.09 14.30 -20 9.58 -37.94 22.06 -54.91 38.42 -10.67 10.18 -14.55 15.03 -11.52 14.06 0.85 -0.36 8.12 -2.55 16.12 -5.09z m-78.79 -128.12 c-4.73 -19.39 -14.55 -35.39 -32 -52 -11.52 -10.91 -32.97 -25.45 -33.82 -22.91 -0.73 2.06 7.15 23.64 11.52 31.64 5.70 10.55 14.18 20.97 25.82 32 10.67 9.94 29.45 23.15 30.18 21.21 0.24 -0.73 -0.61 -5.21 -1.70 -9.94z m575.64 -5.82 c7.88 -4 19.76 -9.09 26.42 -11.39 l12.12 -4 -4.97 -5.33 c-5.94 -6.42 -14.42 -11.39 -23.15 -13.21 -7.64 -1.70 -17.70 0 -28 4.61 l-6.91 3.03 -0.48 18.30 c-0.36 10.18 -1.09 19.39 -1.58 20.73 -0.73 1.82 0.24 1.45 5.58 -1.58 3.64 -2.18 12.97 -7.15 20.97 -11.15z m130.42 -36.97 c0 -2.42 -10.91 -20.97 -17.82 -30.18 -7.76 -10.30 -32.48 -36.97 -34.18 -36.97 -0.85 0 -5.33 12.36 -6.55 17.94 -2.30 10.55 16.48 33.70 34.30 42.30 11.03 5.33 24.24 9.09 24.24 6.91z"/>
  <path d="M1053.70 356.85 c-16 -13.33 -18.55 -16.24 -18.55 -21.21 0 -5.09 4.97 -12.24 17.45 -24.97 6.55 -6.79 7.88 -7.64 12.12 -7.64 l4.73 0 -5.70 -4.97 c-4.48 -4 -5.58 -5.70 -5.58 -8.97 0 -4.61 6.18 -13.58 17.70 -25.70 6.55 -7.03 7.64 -7.64 12.24 -7.64 4.48 0 6.06 0.97 18.42 11.76 13.09 11.39 13.45 11.88 13.45 16.73 0 3.88 -0.97 6.30 -4.12 10.42 l-4.12 5.45 4.12 -0.48 c3.64 -0.48 5.33 0.73 17.94 11.88 13.58 11.88 14.06 12.48 14.06 17.21 0 5.45 -2.55 9.09 -16.85 24.24 -6.79 7.27 -8.24 8.24 -12.12 8.24 -5.09 0 -7.27 -1.33 -18.67 -11.39 l-8.36 -7.39 -9.70 10.67 c-9.33 10.18 -9.82 10.55 -15.03 10.55 -4.73 0 -6.30 -0.85 -13.45 -6.79z m39.64 -37.45 c1.33 -1.58 0.97 -1.82 -2.42 -1.82 -3.39 0 -3.76 0.24 -2.42 1.82 0.85 0.97 1.94 1.82 2.42 1.82 0.48 0 1.58 -0.85 2.42 -1.82z"/>
  <path d="M315.15 1199.52 c0 -1.82 2.91 -6.67 7.27 -12.12 9.94 -12.61 11.64 -12.61 27.15 -0.12 10.55 8.48 12.85 11.03 12.85 14.06 0 0.61 -10.06 1.09 -23.64 1.09 l-23.64 0 0 -2.91z"/>
  <path d="M471.88 1196.97 c0.48 -2.91 2.55 -10.18 4.73 -16 l4 -10.67 4.85 -0.36 c4.73 -0.36 4.97 -0.12 6.55 4.24 0.85 2.55 4 8.85 6.91 13.94 8.24 14.55 8.48 14.30 -11.15 14.30 l-16.61 0 0.73 -5.45z"/>
  <path d="M532.48 1194.91 c-6.91 -10.30 -7.64 -12.73 -7.64 -25.70 0 -11.88 2.42 -24 7.52 -36.61 2.67 -6.67 3.03 -7.15 7.15 -7.52 l4.36 -0.36 1.33 6.67 c1.70 8.61 5.58 16 16.48 32 8.85 13.21 14.55 25.33 16 34.18 l0.85 4.85 -20.48 0 -20.48 0 -5.09 -7.52z"/>
  <path d="M733.33 1191.03 c0 -18.91 4.48 -38.67 12.61 -55.27 3.64 -7.39 2.67 -6.42 -7.88 8.24 -7.15 9.82 -7.39 9.94 -12.48 9.94 -4.48 0 -6.91 -1.21 -19.88 -10.55 -14.18 -10.06 -14.79 -10.67 -14.79 -14.79 0 -4.85 1.82 -8 14.30 -24.61 7.52 -10.06 8.24 -10.67 12.48 -10.67 3.76 0 7.15 1.82 19.76 10.67 13.94 9.70 15.15 10.91 15.52 14.79 l0.36 4.12 5.45 -8.36 c12.61 -19.39 25.45 -28.48 40.36 -28.48 4.48 0 8.12 0.24 8.12 0.61 0 3.76 6.67 43.76 8.36 50.55 3.64 14.06 9.45 28 15.76 37.58 6.55 10.06 10.67 14.42 17.70 19.03 5.33 3.39 6.67 4.85 6.67 7.15 0 1.09 -5.94 1.45 -25.58 1.45 l-25.45 0 -1.82 -4.24 c-3.39 -8.12 -7.64 -26.06 -9.70 -41.21 -1.45 -10.30 -2.55 -14.79 -3.39 -14.18 -24.12 17.82 -40 38.06 -42.67 54.55 l-0.85 5.09 -6.42 0 -6.55 0 0 -11.39z"/>
  <path d="M957.58 1200.61 c0 -0.97 1.09 -1.82 2.30 -1.82 1.33 0 2.55 -0.36 2.79 -0.85 0.24 -0.61 9.09 -3.88 19.76 -7.39 10.67 -3.52 29.45 -10.79 41.82 -16.12 82.67 -36 109.09 -44.12 148.85 -45.58 10.06 -0.36 18.42 -1.09 18.42 -1.58 0 -1.94 -12.12 -12.12 -17.82 -14.91 -17.21 -8.85 -45.21 -7.03 -80.36 4.97 -5.70 1.94 -25.82 9.82 -44.85 17.45 -61.94 25.09 -95.88 33.94 -131.52 34.18 -18.30 0.12 -25.94 -1.21 -36.85 -6.18 -16.73 -7.88 -18.91 -13.33 -18.91 -48.24 0 -27.03 0.85 -32.48 7.39 -46.30 8 -16.97 23.52 -29.45 41.82 -33.58 4.24 -0.97 19.52 -2.30 33.82 -3.03 48.12 -2.30 62.42 -9.45 69.82 -34.91 0.24 -0.85 2.30 -1.58 4.73 -1.58 l4.24 0 0 19.39 c0 10.55 -0.61 22.18 -1.33 25.70 -2.91 13.94 -11.27 25.33 -22.79 31.15 -8.48 4.36 -19.39 6.18 -44.97 7.39 -39.03 1.94 -51.88 5.82 -66.67 20.36 l-7.76 7.76 2.91 2.42 c10.18 8.24 25.33 12.36 41.21 11.52 30.79 -1.94 69.33 -12.36 116.12 -31.39 45.58 -18.55 64.36 -24.97 82.67 -28.48 l5.45 -1.09 -6.67 -2.18 c-10.79 -3.64 -26.67 -12.24 -34.55 -18.55 -16.85 -13.70 -28.61 -33.94 -34.06 -59.15 -3.88 -17.58 -3.39 -64.36 0.85 -75.39 0.97 -2.55 1.82 -2.91 5.58 -2.55 l4.61 0.36 0.12 18.18 c0.12 15.15 0.61 19.52 2.79 26.67 5.70 17.70 17.58 35.03 31.39 45.45 9.70 7.39 24.12 14.79 32.97 17.09 l6.42 1.70 -0.73 21.21 c-0.36 11.64 -0.97 22.18 -1.45 23.39 -0.85 1.94 0.36 2.06 14.18 2.06 22.30 0 35.15 4.12 47.03 15.27 12.48 11.64 18.18 28.97 18.18 54.91 0 16.85 -3.76 48 -5.94 50.18 -0.85 0.85 -4.85 0.73 -11.88 -0.36 -30.55 -4.61 -67.88 2.42 -116.48 21.70 -6.18 2.42 -8.36 2.55 -64.48 2.55 -50.91 0 -58.18 -0.24 -58.18 -1.82z"/>
  <path d="M1156.36 1199.39 c0 -2.67 0.48 -3.03 4.85 -3.03 4.36 0 4.85 0.36 4.85 3.03 0 2.79 -0.48 3.03 -4.85 3.03 -4.36 0 -4.85 -0.24 -4.85 -3.03z"/>
  <path d="M1140.85 844.12 c-14.67 -10.42 -14.79 -10.55 -14.79 -15.27 0 -5.09 4.24 -12.36 16 -27.27 5.70 -7.27 6.30 -7.64 11.27 -7.64 4.61 0 7.03 1.21 19.64 10.06 13.33 9.45 14.30 10.30 14.67 14.42 0.48 5.58 -1.21 8.97 -12.61 24 -9.09 12 -9.21 12.12 -14.30 12.12 -4.61 0 -6.91 -1.21 -19.88 -10.42z"/>
  <path d="M1264.12 710.06 l-10.18 -7.64 -0.36 -7.52 c-0.36 -7.64 2.42 -17.94 8.48 -32.12 2.30 -5.33 2.79 -5.82 6.67 -5.82 2.30 0 5.70 0.85 7.64 1.82 l3.64 1.94 0 28.36 0 28.48 -2.91 0 c-1.58 0 -7.27 -3.27 -12.97 -7.52z"/>
  <path d="M1012.12 696 c-13.58 -9.45 -15.15 -10.91 -15.52 -14.55 -0.48 -4.85 3.52 -12.48 12.97 -24.48 l7.03 -8.97 -12.61 -8.85 c-12 -8.61 -12.48 -9.09 -12.48 -13.45 0 -5.09 8.24 -18.67 17.70 -29.21 8.73 -9.82 8.85 -9.70 40.85 13.33 5.09 3.64 4.36 8 -3.03 19.03 -3.39 5.09 -7.76 11.27 -9.70 13.70 -1.82 2.42 -3.39 5.09 -3.39 5.70 0 0.73 5.21 4.97 11.52 9.45 11.39 8 11.52 8.24 11.52 13.21 0 4.24 -1.33 7.03 -8.61 17.70 -15.27 22.55 -14.67 22.42 -36.24 7.39z"/>
  <path d="M1208.48 690.55 c0 -20.48 14.91 -51.27 44.97 -92.97 13.33 -18.55 21.58 -27.88 24.48 -27.88 1.82 0 2.06 2.06 2.06 20.61 0 18.91 -0.12 20.61 -2.18 20.61 -5.82 0 -39.15 45.33 -55.39 75.52 -5.45 10.06 -5.82 10.55 -9.82 10.55 l-4.12 0 0 -6.42z"/>
  <path d="M1183.52 669.58 c-2.55 -1.82 -9.21 -6.42 -14.67 -10.42 -9.09 -6.55 -10.06 -7.52 -10.06 -11.15 0 -4.36 8.24 -18.18 17.33 -28.85 4.36 -5.21 5.33 -5.82 9.94 -5.82 3.88 0 6.30 0.97 10.42 4 2.91 2.30 9.58 6.91 14.79 10.42 8.48 5.70 9.33 6.55 9.33 10.30 0 4 -4.12 10.55 -17.94 28.97 -4 5.21 -4.85 5.70 -9.45 5.70 -3.39 0 -6.55 -0.97 -9.70 -3.15z"/>
  <path d="M436.85 614.18 c-14.06 -9.70 -14.42 -10.06 -14.79 -14.91 -0.36 -4.24 0.61 -6.30 6.91 -15.88 4 -6.06 9.21 -13.33 11.64 -16 6.79 -7.52 9.45 -7.03 26.18 4.85 7.64 5.45 14.55 10.06 15.39 10.42 0.85 0.36 1.45 2.79 1.45 5.45 0 5.58 -3.52 11.88 -14.79 26.67 -6.91 9.21 -7.27 9.45 -12.36 9.45 -4.61 0 -7.03 -1.21 -19.64 -10.06z"/>
  <path d="M613.45 564.12 l-14.67 -10.30 0 -5.21 c0 -5.58 5.21 -14.55 16.48 -28.61 8.24 -10.06 9.21 -9.94 29.33 3.76 15.27 10.42 16 11.15 16 15.03 0 4.36 -8.36 17.94 -18.42 30.06 -7.39 8.73 -10.30 8.36 -28.73 -4.73z"/>
  <path d="M861.21 495.39 c-14.91 -10.30 -16.24 -12 -14.67 -18.42 0.85 -3.52 14.06 -23.52 17.45 -26.55 l2.55 -2.30 -12.36 -8.61 c-10.91 -7.64 -12.36 -9.09 -12.73 -12.61 -0.48 -4.73 2.79 -10.79 14.06 -25.94 10.67 -14.30 11.15 -14.30 32.12 -0.24 19.52 13.21 19.39 12.61 5.82 32.85 -6.67 9.94 -9.21 14.79 -8.36 15.76 0.61 0.73 6.06 4.73 12 8.85 10.30 7.03 10.79 7.64 10.79 11.88 0 4.85 -1.45 7.52 -14.18 24.85 -7.76 10.30 -8 10.55 -12.97 10.55 -4.24 -0.12 -7.15 -1.58 -19.52 -10.06z"/>
  <path d="M3.39 497.45 l-3.39 -0.61 0 -24.24 0 -24.12 3.15 0 c1.70 0 8.12 0.61 14.18 1.33 19.88 2.42 48.24 -3.64 68.36 -14.79 10.06 -5.58 11.27 -6.79 7.39 -7.64 -31.52 -6.79 -53.94 -10.06 -73.70 -10.79 l-7.88 -0.24 -0.36 -20.61 c-0.24 -18.79 0.85 -31.15 4 -41.82 0.48 -1.45 -0.73 -1.70 -7.27 -1.45 l-7.88 0.48 0 -16 0 -16.12 4.61 0.85 c2.42 0.36 6.91 0.73 9.82 0.73 l5.33 0 -0.73 8.85 c-0.48 4.73 -1.09 10.06 -1.45 11.76 -0.48 1.70 1.09 -1.09 3.39 -6.18 4.85 -10.91 7.27 -14.55 14.42 -21.21 11.88 -11.27 21.70 -14.42 42.67 -13.45 11.76 0.48 17.09 1.33 26.79 4.36 19.64 6.06 28.73 7.64 35.39 6.18 7.76 -1.82 14.42 -6.55 16.97 -12.24 1.82 -4.36 2.42 -4.73 6.79 -4.73 l4.85 0 -0.61 13.70 c-1.21 25.70 -8 42.18 -19.76 48.12 -5.45 2.67 -7.52 3.03 -20 3.03 -12.61 -0.12 -15.76 -0.61 -32.12 -5.09 -9.94 -2.79 -20.48 -5.45 -23.39 -5.82 -6.06 -0.97 -15.39 0.97 -23.88 4.97 -5.94 2.79 -17.58 11.88 -17.58 13.70 0 0.48 6.18 1.33 13.70 1.70 7.39 0.48 19.64 1.94 26.91 3.27 35.39 6.79 40.12 7.39 48 6.79 17.70 -1.33 33.58 -7.64 53.58 -21.09 17.09 -11.52 35.76 -20.85 42.06 -20.85 l4.85 0 0 6.55 c0 9.33 -3.39 34.55 -5.21 38.06 -0.97 1.94 -4.73 4.24 -10.79 6.91 -19.15 8.24 -31.76 17.94 -70.06 53.94 -28.61 26.91 -32.24 29.94 -42.42 35.88 -20.48 12 -40.24 17.33 -67.27 18.06 -9.94 0.24 -19.64 0.12 -21.45 -0.12z"/>
  <path d="M173.70 477.94 l-14.91 -10.42 0 -5.33 c0 -5.70 4.12 -12.97 14.91 -26.42 9.94 -12.24 10.91 -12.24 30.55 1.45 l15.15 10.67 0 4.97 c0 4 -1.45 7.03 -8.61 17.58 -11.39 16.73 -12.73 18.06 -17.94 18.06 -3.52 -0.12 -7.39 -2.18 -19.15 -10.55z"/>
  <path d="M468.73 395.64 c-15.27 -10.42 -15.39 -10.55 -15.39 -15.27 0 -5.21 4.61 -12.85 16.61 -27.88 9.09 -11.52 10.30 -11.39 29.70 2.42 18.79 13.58 19.03 14.18 8.85 29.45 -13.33 19.64 -15.15 21.70 -20 21.70 -3.52 0 -7.52 -2.06 -19.76 -10.42z"/>
  <path d="M61.33 293.94 c-27.15 -6.79 -45.58 -27.52 -45.58 -51.27 l0 -6.55 -5.33 3.15 c-3.03 1.70 -6.55 3.15 -7.88 3.15 -2.55 0 -2.55 -0.48 -2.55 -24.12 l0 -24 7.76 -3.88 c10.06 -4.97 20.73 -8.61 25.09 -8.61 4.24 0 4.48 0.97 4.97 18.18 0.36 11.15 0.85 13.70 3.88 19.88 6.91 14.06 21.58 25.09 40.36 29.94 14.30 3.76 29.45 0.97 36.85 -6.91 2.55 -2.79 2.67 -3.15 1.21 -13.21 -2.55 -17.94 -10.06 -36.97 -21.09 -53.21 -5.94 -8.73 -20.85 -24.61 -27.52 -29.21 -4.36 -3.03 -4.85 -3.88 -4.85 -8.48 0 -5.58 4.97 -22.06 10.06 -33.70 2.91 -6.55 3.39 -6.91 7.39 -6.91 3.39 0 5.82 1.33 12.61 7.27 4.61 4.12 11.03 10.67 14.30 14.79 5.33 6.55 5.94 7.03 6.30 4.48 0.48 -3.27 11.15 -19.76 17.82 -27.52 3.88 -4.36 5.09 -5.09 9.21 -5.09 4.12 0 7.15 1.58 20 10.42 18.79 13.09 18.67 12.85 6.67 30.55 -12.97 19.03 -13.33 19.52 -18.67 19.52 -3.64 0.12 -6.79 -1.33 -14.79 -6.55 -5.58 -3.76 -10.55 -7.27 -10.91 -7.88 -0.48 -0.73 -1.21 -1.21 -1.94 -1.21 -0.61 0 1.09 4.36 3.76 9.70 10.30 20.36 14.42 45.21 12.24 72.24 -1.70 21.33 -4.24 32.24 -10.42 44.85 -6.91 14.30 -14.18 22.30 -24.61 27.39 -7.64 3.76 -8.85 4 -22.67 4.24 -9.45 0.12 -16.97 -0.36 -21.70 -1.45z"/>
  <path d="M733.33 208.61 c-1.70 -1.21 -8.36 -6.18 -14.79 -10.91 -10.91 -7.88 -11.88 -8.97 -11.88 -12.61 0 -4 6.79 -15.15 16.36 -27.03 l4.12 -4.97 -12.73 -9.21 c-16.97 -12.48 -16.97 -12.48 0.97 -36.85 l8.24 -11.27 5.45 0 c4.85 0 6.91 1.09 20 10.42 13.45 9.58 14.55 10.67 14.55 14.30 0 4.24 -5.09 13.45 -13.94 24.97 -3.03 4.12 -5.21 7.76 -4.97 8.36 0.36 0.48 5.82 4.36 12.12 8.73 11.39 7.64 11.52 7.88 11.64 12.73 0 5.09 -4.36 12.48 -17.21 29.33 -4.48 5.82 -5.21 6.30 -9.94 6.18 -2.79 0 -6.30 -0.97 -8 -2.18z"/>
  <path d="M545.45 176.73 c0 -6.06 2.55 -18.55 6.30 -31.03 3.03 -10.30 4.24 -11.52 20.36 -19.76 7.88 -4 12.73 -7.76 20.73 -15.64 15.52 -15.39 46.91 -54.06 52.73 -65.09 l2.06 -3.76 -14.06 -18.79 c-7.76 -10.30 -14.18 -19.64 -14.18 -20.73 0 -1.70 3.39 -1.94 31.52 -1.94 l31.52 0 0 3.39 c0 1.82 -0.97 5.94 -2.06 9.09 -1.70 4.61 -1.82 6.18 -0.61 7.88 9.45 13.45 18.42 33.45 21.33 47.76 3.27 15.76 1.94 44.61 -3.03 64.85 -2.67 10.79 -3.88 12.24 -11.03 12.97 -24.61 2.55 -33.82 3.76 -48.24 6.30 -40.97 7.39 -59.52 13.33 -78.55 25.45 -4.12 2.67 -7.88 4.12 -10.55 4.12 -4.24 0 -4.24 -0.12 -4.24 -5.09z m110.91 -73.70 c8.73 -1.33 17.45 -2.42 19.64 -2.42 2.06 0 4.12 -0.48 4.61 -1.21 0.85 -1.45 -7.64 -18.55 -14.79 -29.58 l-5.45 -8.36 -6.30 11.39 c-3.39 6.30 -9.70 16.48 -13.94 22.79 l-7.76 11.39 4.12 -0.85 c2.30 -0.48 11.27 -1.94 19.88 -3.15z"/>
  <path d="M0 115.76 l0 -34.55 8 -6.55 c4.48 -3.64 12 -8.61 16.73 -11.15 4.73 -2.42 8.85 -4.73 9.09 -4.97 1.21 -0.97 -6.79 -7.88 -12.48 -10.67 -4.48 -2.30 -8 -3.03 -13.70 -3.03 l-7.64 0 0 -21.82 0 -21.82 3.39 0 c4.12 0 16.12 7.03 22.42 13.09 7.76 7.39 16.97 22.55 30.06 48.97 8.97 18.42 12.48 26.79 12.97 31.15 l0.48 5.82 -8.24 2.67 c-4.61 1.33 -12.12 4.85 -16.61 7.76 -9.09 5.82 -24.36 20.24 -33.82 32.12 -3.64 4.48 -6.91 7.52 -8.36 7.52 -2.18 0 -2.30 -1.33 -2.30 -34.55z"/>
  <path d="M1163.64 134.67 c-11.64 -3.76 -20.85 -12.48 -28.36 -26.67 -6.18 -11.88 -9.21 -21.21 -9.21 -28.85 l0 -6.42 4 0 c3.52 0 4.61 0.85 8.61 6.67 3.52 4.97 6.30 7.39 11.15 9.82 6.06 2.91 7.03 3.03 12.36 1.82 13.45 -3.39 24.12 -13.21 40.85 -37.21 16.36 -23.76 24.12 -33.58 31.03 -39.64 10.91 -9.45 23.64 -14.18 38.67 -14.18 l7.27 0 0 22.79 0 22.67 -7.64 3.52 c-11.03 5.09 -22.91 17.82 -39.52 42.42 -15.76 23.27 -26.42 34.79 -36.97 40.12 -6.18 3.03 -8.85 3.64 -18.18 3.88 -6.06 0.12 -12.36 -0.12 -14.06 -0.73z"/>
  <path d="M1150.91 47.15 c-17.94 -15.39 -20 -17.70 -20 -21.94 0 -3.39 1.70 -6.30 8.24 -14.42 l8.24 -10.18 13.58 -0.36 13.58 -0.36 8.97 7.64 c8.61 7.27 8.97 7.88 9.09 12.97 0.12 5.94 -2.42 9.70 -16.73 24.73 -7.15 7.39 -8.24 8.12 -12.73 8.12 -4.24 0 -6.06 -0.97 -12.24 -6.18z"/>
  <path d="M330.30 33.82 c-5.33 -4 -12.61 -9.82 -16 -12.85 -5.82 -4.97 -6.42 -5.82 -6.42 -10.55 0 -2.79 0.85 -6.30 1.94 -7.76 1.82 -2.67 2.18 -2.67 32.12 -2.67 l30.18 0 0 5.45 c0 4.61 -0.97 7.03 -5.94 14.30 -3.15 4.85 -8.12 11.64 -10.91 15.15 -4.61 5.82 -5.45 6.30 -10.18 6.30 -4.48 0 -6.55 -0.97 -14.79 -7.39z"/>
  <path d="M373.70 28.85 c0.73 -8.61 2.91 -18.67 5.58 -25.45 1.21 -3.27 1.58 -3.39 10.42 -3.39 10.55 0 11.03 0.73 5.58 8.73 -1.94 2.91 -5.45 10.42 -7.76 16.73 l-4.24 11.52 -5.21 0.36 -5.09 0.36 0.73 -8.85z"/>
 </g>
</svg>
